<?xml version="1.0" encoding="UTF-8"?>
<svg xmlns="http://www.w3.org/2000/svg" viewBox="0 0 733.16 526.54">
  <defs>
    <style>
      .cls-1 {
        fill: #263238;
      }

      .cls-1, .cls-2, .cls-3, .cls-4, .cls-5, .cls-6, .cls-7, .cls-8, .cls-9, .cls-10, .cls-11, .cls-12, .cls-13, .cls-14, .cls-15, .cls-16, .cls-17, .cls-18, .cls-19, .cls-20, .cls-21, .cls-22, .cls-23, .cls-24, .cls-25, .cls-26 {
        stroke-width: 0px;
      }

      .cls-27 {
        letter-spacing: 0em;
      }

      .cls-2 {
        fill: #063e55;
      }

      .cls-28 {
        glyph-orientation-vertical: 0deg;
        text-orientation: upright;
        writing-mode: tb;
      }

      .cls-3, .cls-25 {
        fill: #000;
      }

      .cls-29 {
        font-size: 22.06px;
      }

      .cls-29, .cls-4, .cls-5, .cls-30, .cls-10, .cls-22 {
        fill: #fff;
      }

      .cls-29, .cls-30, .cls-31 {
        font-family: Poppins-SemiBold, 'Poppins SemiBold';
        font-weight: 600;
      }

      .cls-4 {
        opacity: .8;
      }

      .cls-32 {
        letter-spacing: 0em;
      }

      .cls-5, .cls-25 {
        opacity: .3;
      }

      .cls-33 {
        font-family: Poppins-Bold, 'Poppins Bold';
        font-size: 31.27px;
        font-weight: 700;
      }

      .cls-33, .cls-24 {
        fill: #001b40;
      }

      .cls-6 {
        fill: #249390;
      }

      .cls-7, .cls-31 {
        fill: #129197;
      }

      .cls-30 {
        font-size: 16.53px;
      }

      .cls-8 {
        fill: #003174;
      }

      .cls-9 {
        fill: #1353aa;
      }

      .cls-10 {
        opacity: .7;
      }

      .cls-11 {
        fill: #3965d3;
      }

      .cls-34 {
        letter-spacing: -.01em;
      }

      .cls-35 {
        letter-spacing: 0em;
      }

      .cls-12 {
        fill: #709fff;
      }

      .cls-36 {
        stroke-dasharray: 0 0 5.7 5.7;
      }

      .cls-36, .cls-37 {
        stroke: #fff;
        stroke-linecap: round;
        stroke-linejoin: round;
        stroke-width: 1.93px;
      }

      .cls-36, .cls-37, .cls-38 {
        fill: none;
      }

      .cls-13 {
        fill: #407bff;
      }

      .cls-14 {
        fill: #e7ecff;
      }

      .cls-39 {
        letter-spacing: -.08em;
      }

      .cls-15 {
        fill: #eaab93;
      }

      .cls-16 {
        fill: #305c6b;
      }

      .cls-40 {
        letter-spacing: .02em;
      }

      .cls-17 {
        fill: #111b47;
      }

      .cls-18 {
        fill: #05415b;
      }

      .cls-19 {
        fill: #d6896d;
      }

      .cls-20 {
        fill: #994000;
      }

      .cls-21 {
        fill: #ffc28a;
      }

      .cls-38 {
        stroke: #1353aa;
        stroke-miterlimit: 10;
        stroke-width: .97px;
      }

      .cls-23 {
        fill: #065959;
      }

      .cls-26 {
        fill: #225b5b;
      }

      .cls-31 {
        font-size: 23.24px;
      }
    </style>
  </defs>
  <g id="OBJECTS">
    <path class="cls-2" d="M417.53,45.89c-110.82,25.86-164.75,131.67-143.3,222.7,1.58,6.69,3.55,13.3,5.95,19.78,31.66,85.55,138.94,152.42,245.86,131.2,114.07-22.65,159.38-131.76,143.29-221.48-8.98-50.05-36.31-100.03-85.41-128.95-47.62-28.05-109.78-36.46-166.39-23.25Z"/>
    <g>
      <g>
        <rect class="cls-17" x="431.1" y="44.09" width="176.63" height="354.62" rx="22.24" ry="22.24"/>
        <path class="cls-24" d="M429.29,120.64h1.81v42.96h-1.81c-.91,0-1.65-.74-1.65-1.65v-39.66c0-.91.74-1.65,1.65-1.65Z"/>
        <path class="cls-22" d="M585.18,50.52h-19.63l-2.17,7.92c-.58,2.11-2.5,3.57-4.69,3.57h-74.62c-2.19,0-4.11-1.46-4.69-3.57l-2.17-7.92h-23.54c-8.91,0-16.12,7.22-16.12,16.12v298.24c0,8.91,7.22,16.12,16.12,16.12h131.51c8.91,0,16.12-7.22,16.12-16.12V66.65c0-8.91-7.22-16.12-16.12-16.12Z"/>
        <circle class="cls-9" cx="540.06" cy="53.36" r="2.84"/>
        <rect class="cls-24" x="495.94" y="51.89" width="32.47" height="3.22" rx="1.54" ry="1.54"/>
      </g>
      <rect class="cls-14" x="446.04" y="77.31" width="146.76" height="41.68" rx="8.35" ry="8.35"/>
      <rect class="cls-14" x="446.04" y="229.8" width="146.76" height="113.14" rx="8.35" ry="8.35"/>
      <path class="cls-14" d="M584.45,351.77h-130.06c-4.61,0-8.35,3.74-8.35,8.35v18.98c2.27,1.22,4.86,1.92,7.62,1.92h131.51c2.76,0,5.35-.7,7.62-1.92v-18.98c0-4.61-3.74-8.35-8.35-8.35Z"/>
    </g>
    <g>
      <path class="cls-3" d="M99.05,366.01s-.04,0-.06,0l-86.93-13.33c-.21-.03-.35-.22-.31-.43.03-.21.23-.34.43-.31l86.93,13.33c.21.03.35.22.31.43-.03.19-.19.32-.37.32Z"/>
      <path class="cls-13" d="M242.53,251.35l17.53-8.5c.04.13,122.12-24.24,166.55-24.91,44.81-.68,80.44-4.84,131.43,18,50.99,22.84,121.63,85.52,135.98,143.41,14.34,57.9-23.32,63.41-24.96,63.74-113.14,22.31-151.91,13.28-170.5,10.62S11.09,360.34,11.09,360.34v-70.62c99.03-16.48,231.44-38.38,231.44-38.38Z"/>
      <path class="cls-1" d="M132.46,309.92s286.18-13.28,287.25-13.64c1.05-.35,12.84,62.7,13.31,65.43L11.09,335.05v-19.6l121.37-5.54Z"/>
      <path class="cls-13" d="M406.03,227.4s145.13,13.11,147.07,13.11,138.33,55.82,144.16,150.47c.08,1.24-32.03,11.16-72.32,2.43-40.29-8.74-108.24-84.94-114.55-89.8-6.31-4.85-55.82-58.73-92.22-59.7L11.09,298.64v-6.45l394.94-64.79Z"/>
      <path class="cls-1" d="M153.2,266.13s-18.51,17.86-18.7,24.79,0,69.84,0,69.84l3.46,23.28h-2.5l-4.87-22.61s-.16-67.98,0-70.71c.37-6.23,18.55-23.92,18.55-23.92l4.06-.67Z"/>
      <path class="cls-25" d="M352.95,357.05l79.76,3.71,12.46,37.89-296.19-36.53c-55.44-6.27-41.48-4.29-137.89-17.01v-10.05l341.86,21.99Z"/>
      <path class="cls-1" d="M11.09,345.1l19.1,2.53s392.36,47.89,408.39,49.5c16.02,1.61,133.37,59.72,133.37,59.72l-70.84,4.4L11.09,360.34"/>
      <path class="cls-1" d="M11.09,288.87l232.27-38.35,17.53-8.5s122.4-24.81,167.03-24.55c45.43.27,79.95-5.2,130.94,17.64,23.08,10.34,50.18,28.83,74.26,51.35,2.04,1.93,25.18,25.39,2.97,28.72-22.23,3.33-69.45-1.67-86.12-8.33-16.67-6.67-80.54-57.14-99.99-66.59-19.45-9.45-76.7,1.58-76.7,1.58L11.09,294.3"/>
      <path class="cls-22" d="M561.87,331.01s12.51-2,18.12,1.67c5.61,3.67,23.67,17.14,19.14,21.46-4.53,4.31-14.39-.53-23.67-6.57s-14.97-12.25-15.5-12.75c-4.1-3.81,1.91-3.81,1.91-3.81Z"/>
      <path class="cls-22" d="M653.35,328.03s-3.8,4.19-1.01,8.77c2.79,4.58,12.12,17.19,16.26,14.13s2.67-4.55-.58-12.79c-3.34-8.46-6.39-13.3-7.56-13.18-2.19.21-7.1,3.07-7.1,3.07Z"/>
      <path class="cls-1" d="M558.85,452.47l-.64-.77c.22-.18,22.4-18.54,24.32-24.63.72-2.28,1.23-7.04,1.87-13.08,1.12-10.46,2.65-24.78,6.44-37.5,2.62-8.76,20.32-14.05,52.63-15.73,12.11-.63,23.4-.57,30.75-.41,13.89.3,14.07.73,14.17.96l-.46.19-.17.47c-3.77-.93-90.28-4.2-95.95,14.8-3.77,12.63-5.3,26.9-6.41,37.32-.65,6.09-1.16,10.9-1.91,13.27-2.01,6.37-23.72,24.34-24.64,25.1Z"/>
      <path class="cls-1" d="M508.25,429.29l-.99-.15c.61-3.97,14.98-97.33,19.75-108.68,4.86-11.57,21.39-13.22,22.09-13.28l.09,1c-.17.02-16.64,1.66-21.26,12.67-4.72,11.24-19.53,107.47-19.68,108.44Z"/>
      <path class="cls-25" d="M433.02,361.7c39.12,2.32,147.01,56.57,174.52,64.19,27.52,7.63,86.91-4.84,86.91-4.84,0,0-5.07,16.48-22.51,21.52-12.29,3.55-80.2,14.27-100,14.27-1.66,0-101.97-50.55-127.38-58.21l-11.54-36.94Z"/>
      <path class="cls-1" d="M444.09,398.8l-12.45-37.89c-.18-.9-16.68-84.27-18.54-100.39-2.98-25.86,22.22-42.83,22.48-43l.55.83c-.25.17-24.95,16.81-22.04,42.05,1.85,16.07,18.34,99.41,18.51,100.25l12.43,37.83-.95.31Z"/>
      <path class="cls-13" d="M212.07,346.11l1.43-51.29,16.12-2.02c-1.43.34-1.79,55.87-1.79,55.87l1.79,22.33-15.38-1.76"/>
      <path class="cls-5" d="M212.07,346.11l1.43-51.29,16.12-2.02c-1.43.34-1.79,55.87-1.79,55.87l1.79,22.33-15.38-1.76"/>
      <polygon class="cls-5" points="364.47 229.94 349.62 243.91 267.37 255.83 278.4 243.75 364.47 229.94"/>
      <polygon class="cls-5" points="180.77 260.96 171.96 270.32 125.96 276.99 133.1 268.9 180.77 260.96"/>
      <path class="cls-3" d="M298.64,419.5c-.1,0-.19-.06-.23-.15l-5.83-14.11s-.01-.04-.02-.06l-3.15-24.15c-.02-.14.08-.26.22-.28.13-.01.26.08.28.22l3.15,24.11,5.82,14.08c.05.13,0,.27-.14.33-.03.01-.06.02-.1.02Z"/>
      <path class="cls-3" d="M275.15,415.18c-.1,0-.19-.06-.23-.16l-5.16-12.86s-.01-.04-.02-.06l-3.15-24.15c-.02-.14.08-.26.22-.28.14-.01.26.08.28.22l3.15,24.12,5.15,12.83c.05.13-.01.27-.14.33-.03.01-.06.02-.09.02Z"/>
      <path class="cls-3" d="M235.43,384.29s-.02,0-.04,0l-81.14-11.82c-.14-.02-.23-.15-.21-.28.02-.14.15-.23.28-.21l81.02,11.8,11.24-9.81c.1-.09.26-.08.35.02.09.1.08.26-.02.35l-11.32,9.88s-.1.06-.16.06Z"/>
      <g>
        <path class="cls-13" d="M33.96,322.36l14.6-.27v8.62l-14.6-.68v-7.67Z"/>
        <path class="cls-13" d="M50.32,322.06l17.72-.33v9.89l-17.72-.82v-8.74Z"/>
        <path class="cls-13" d="M150.67,318.8c5.15-.24,10.91-.52,17.12-.81v18.1l-17.12-.79v-16.5Z"/>
        <path class="cls-13" d="M134.22,319.58c3.89-.18,8.86-.42,14.69-.69v16.34l-14.69-.68v-14.96Z"/>
        <path class="cls-13" d="M69.8,321.69l24.26-.45v11.58l-24.26-1.12v-10Z"/>
        <path class="cls-13" d="M264.4,340.72l-28.48-1.32-.81-23.73c1.45-.07,2.9-.14,4.35-.21,8.89-.42,17.05-.81,24.54-1.17l.4,26.43Z"/>
        <path class="cls-13" d="M301.46,342.43l-34.29-1.59-.91-26.66c13.76-.66,25.21-1.21,34.75-1.67l.45,29.92Z"/>
        <path class="cls-13" d="M303.24,312.41c17.34-.84,28.05-1.38,34.74-1.75,1.58,7.89,3.13,33.61,3.13,33.61l-36.85-1.71-1.03-30.16Z"/>
        <path class="cls-13" d="M197.57,316.58v20.89l-28.02-1.3v-18.27c8.64-.41,18.11-.86,28.02-1.33Z"/>
      </g>
      <path class="cls-5" d="M226.29,300.92c-.08,3.92-.52,15.85-.66,19.8-.03.7-.52,1.26-1.1,1.24l-8.15-.28c-.55-.02-.98-.56-.96-1.23l.44-19.21c.02-.68.48-1.25,1.05-1.27l8.38-.28c.57-.02,1.03.53,1.02,1.23Z"/>
      <polygon class="cls-13" points="118.64 303.13 117.14 342.4 118.64 358.09 105.78 356.85 103.97 340.6 105.16 304.56 118.64 303.13"/>
      <polygon class="cls-5" points="118.64 303.13 117.14 342.4 118.64 358.09 105.78 356.85 103.97 340.6 105.16 304.56 118.64 303.13"/>
      <path class="cls-5" d="M115.48,309.62c-.03,2.76-.27,11.15-.35,13.92-.01.49-.4.88-.85.87l-6.38-.26c-.43-.02-.77-.4-.76-.88l.18-13.51c0-.48.37-.87.81-.88l6.55-.13c.45,0,.81.38.81.87Z"/>
      <polygon class="cls-13" points="388.61 266.61 385.78 354.94 388.61 390.25 364.29 387.46 360.86 350.89 363.13 269.81 388.61 266.61"/>
      <polygon class="cls-5" points="388.61 266.61 385.78 354.94 388.61 390.25 364.29 387.46 360.86 350.89 363.13 269.81 388.61 266.61"/>
      <path class="cls-5" d="M383.33,279.44c-.13,6.2-.82,25.07-1.05,31.3-.04,1.11-.83,2-1.74,1.97l-12.88-.44c-.87-.03-1.54-.89-1.52-1.95l.69-30.37c.02-1.08.76-1.97,1.65-2l13.24-.44c.91-.03,1.63.84,1.61,1.94Z"/>
      <g>
        <path class="cls-1" d="M159.5,390.45s-5.81,3.04-8.6,2.67c-2.79-.37-47.19-8.58-48.41-10.76s-8.06-22.34,1.56-23.31c10.2-1.03,42.1,4.35,44.3,5.18,2.2.83,13.16,18.17,11.15,26.21Z"/>
        <path class="cls-25" d="M158.86,390.77s1.18-4.18.37-6.73c-.81-2.55-7.97-20.77-10.88-19.8-2.91.97-7.47,4.71-6.49,7.87.99,3.16,9.34,21.09,9.76,21.05s6.41-.85,7.24-2.38Z"/>
        <path class="cls-3" d="M143.59,376.7s-.04,0-.06,0c-1.21-.11-42.82-6.64-44.59-6.92-.2-.03-.34-.22-.31-.43.03-.2.23-.35.43-.31.43.07,43.36,6.8,44.54,6.91.84.07,6.9-2.46,10.55-4.07.19-.09.41,0,.49.19.08.19,0,.41-.19.49-1.58.7-9.43,4.13-10.85,4.13Z"/>
      </g>
      <g>
        <path class="cls-1" d="M416.81,439.16s-9.76,5.11-14.46,4.5c-4.7-.62-79.36-14.44-81.41-18.09-2.05-3.65-13.55-37.56,2.62-39.2,17.16-1.74,70.8,7.31,74.5,8.71,3.7,1.4,22.12,30.56,18.76,44.08Z"/>
        <path class="cls-25" d="M415.73,439.7s1.99-7.02.62-11.31c-1.37-4.29-13.4-34.93-18.3-33.3-4.9,1.63-12.57,7.91-10.91,13.24,1.66,5.32,15.7,35.46,16.41,35.39.71-.06,10.78-1.43,12.18-4.01Z"/>
        <path class="cls-3" d="M521.64,459.84s-.07,0-.1-.02l-113.5-51.04c-1.47.65-15.65,6.87-17.97,6.87-.03,0-.06,0-.09,0-2.02-.18-71.98-11.16-74.96-11.63-.14-.02-.23-.15-.21-.29.02-.14.15-.23.29-.21.73.11,72.93,11.44,74.93,11.62.02,0,.05,0,.08,0,1.87,0,13.47-4.94,17.85-6.87.07-.03.14-.03.2,0l113.6,51.08c.13.06.18.2.12.33-.04.09-.13.15-.23.15Z"/>
      </g>
      <path class="cls-1" d="M339.86,232.24c-.27.4-13.9,15.1-13.9,15.1l-6.46.94,14.58-15.37,5.79-.67Z"/>
      <path class="cls-1" d="M301.97,237.73c-.27.4-13.9,15.1-13.9,15.1l-6.46.94,14.58-15.37,5.79-.67Z"/>
      <path class="cls-3" d="M46.12,284.13s-12.81,11.18-12.94,15.97c-.13,4.79,0,48.34,0,48.34l2.42,16.67-2.23-.46-2.89-15.74s-.11-47.05,0-48.94c.26-4.31,11.88-15.14,11.88-15.14l3.76-.7Z"/>
      <path class="cls-13" d="M400.29,219.22c11.17-1.34,21.07-2.22,28.7-2.4,44.62-1.06,80.2-3.72,131.19,19.12,11.46,5.13,22.02,13.28,34.61,21.93,19.76,16.9,47.68,40.43,39.99,46.43-12.01,9.38-52.7,6.5-78.46-4.99-25.76-11.49-71.14-52.8-95.09-68.32-17.07-11.06-47.61-11.96-60.95-11.78Z"/>
      <path class="cls-10" d="M400.29,219.22c11.17-1.34,21.07-2.22,28.7-2.4,44.62-1.06,80.2-3.72,131.19,19.12,11.46,5.13,22.02,13.28,34.61,21.93,19.76,16.9,47.68,40.43,39.99,46.43-12.01,9.38-52.7,6.5-78.46-4.99-25.76-11.49-71.14-52.8-95.09-68.32-17.07-11.06-47.61-11.96-60.95-11.78Z"/>
      <path class="cls-4" d="M587.76,252.93s21.53,30.51,7.71,28.5c-13.82-2.01-24.7-11.56-23.53-4.52,1.17,7.04,1.56,28.31,1.56,28.31l-17.18-5.9s-13.11-35.23-5.57-39.25c7.54-4.02,32.91,9.43,31.41,2.96-1.51-6.47-16.92-24.61-16.92-24.61,7.62,4.21,15.55,9.46,22.52,14.51Z"/>
      <path class="cls-4" d="M539.24,227.79s19.37,19.12,12.69,21.04c-5.9,1.7-23.48-2.41-23.48,2.46,0,6.58,8.36,36.62,8.36,36.62l-5.67-3.81s-11.59-31-10.91-37.3c.68-6.3,25.07-2.75,24.07-5.35-1.94-5.03-10.26-15.58-10.26-15.58l5.2,1.91Z"/>
      <g>
        <g>
          <path class="cls-1" d="M529.17,466.61c-.24,0-.46-.18-.49-.43-.04-.27.15-.53.42-.57,37.39-5.6,91.64-14.73,129.94-21.41.26-.05.53.13.58.41.05.27-.13.53-.41.58-38.3,6.68-92.56,15.82-129.96,21.42-.03,0-.05,0-.08,0Z"/>
          <path class="cls-1" d="M519.06,464.45c-.24,0-.46-.18-.49-.43-.04-.27.15-.53.42-.57l.19-.03c37.89-5.67,95.16-14.24,132.97-20.84.27-.05.53.13.58.41.05.27-.13.53-.41.58-37.82,6.6-95.09,15.17-132.99,20.84l-.19.03s-.05,0-.08,0Z"/>
        </g>
        <path class="cls-1" d="M728.56,509.29s-.07,0-.11-.01L4,354.21c-.27-.06-.44-.32-.38-.59.06-.27.32-.44.59-.38l724.46,155.06c.27.06.44.32.38.59-.05.24-.26.4-.49.4Z"/>
        <path class="cls-1" d="M725.39,526.54s-.07,0-.11-.01L.39,361.69c-.27-.06-.44-.33-.38-.6.06-.27.33-.44.6-.38l724.89,164.84c.27.06.44.33.38.6-.05.23-.26.39-.49.39Z"/>
        <path class="cls-1" d="M731.93,453.83s-.07,0-.1,0L49.6,316.67c-.27-.05-.45-.32-.39-.59.05-.27.32-.45.59-.39l682.23,137.15c.27.05.45.32.39.59-.05.24-.26.4-.49.4Z"/>
        <path class="cls-1" d="M731.93,459.67s-.07,0-.1,0L45.07,321.61c-.27-.05-.45-.32-.39-.59.05-.27.32-.45.59-.39l686.76,138.05c.27.05.45.32.39.59-.05.24-.26.4-.49.4Z"/>
        <g>
          <path class="cls-1" d="M585.99,478.77c-.24,0-.46-.18-.49-.43-.04-.27.15-.53.42-.57,21.23-3.18,44.73-8.25,67.45-13.16,17.77-3.84,36.15-7.81,52.87-10.72.26-.05.53.13.58.41.05.27-.13.53-.41.58-16.7,2.91-35.07,6.88-52.83,10.72-22.74,4.91-46.25,9.99-67.51,13.17-.03,0-.05,0-.08,0Z"/>
          <path class="cls-1" d="M579.15,477.05c-.24,0-.46-.18-.49-.43-.04-.27.15-.53.42-.57,20.78-3.11,42.84-8.17,64.17-13.06,17.6-4.04,35.8-8.21,52.98-11.21.27-.05.53.13.58.41.05.27-.13.53-.41.58-17.15,2.99-35.33,7.16-52.92,11.2-21.35,4.9-43.43,9.96-64.24,13.08-.03,0-.05,0-.08,0Z"/>
        </g>
        <g>
          <path class="cls-1" d="M648.32,492.28c-.24,0-.46-.18-.49-.43-.04-.27.15-.53.42-.57,16.09-2.41,32.42-6.21,48.2-9.88,11.85-2.76,24.1-5.61,36.12-7.83.27-.05.53.13.58.4.05.27-.13.53-.4.58-12,2.22-24.24,5.07-36.08,7.83-15.8,3.68-32.15,7.48-48.28,9.89-.03,0-.05,0-.08,0Z"/>
          <path class="cls-1" d="M638.84,490.08c-.24,0-.46-.18-.49-.43-.04-.27.15-.53.42-.57,17.79-2.66,35.66-6.77,52.94-10.74,13.13-3.02,26.7-6.13,40.14-8.6.27-.04.53.13.58.4.05.27-.13.53-.4.58-13.42,2.46-26.98,5.57-40.1,8.59-17.3,3.97-35.18,8.08-53.01,10.75-.03,0-.05,0-.08,0Z"/>
        </g>
      </g>
    </g>
    <g>
      <rect class="cls-7" x="352.52" y="127.26" width="62.79" height="62.79" rx="5.79" ry="5.79"/>
      <g>
        <path class="cls-22" d="M383.91,137.86c-11.47,0-20.8,9.33-20.8,20.8s9.33,20.8,20.8,20.8,20.8-9.33,20.8-20.8-9.33-20.8-20.8-20.8Z"/>
        <path class="cls-7" d="M383.47,163.84c-.27,0-.53-.07-.75-.21-.43-.26-.69-.74-.69-1.24v-15.02c0-.8.65-1.45,1.45-1.45s1.45.65,1.45,1.45v12.64l6.1-3.14c.21-.11.44-.16.66-.16.54,0,1.04.3,1.29.78.18.34.21.74.09,1.1-.12.37-.37.67-.72.85l-8.21,4.23c-.21.11-.43.16-.66.16Z"/>
      </g>
    </g>
    <g>
      <g>
        <path class="cls-22" d="M643.53,109.1h-205.99v132.65h205.99c2.96,0,5.35-2.4,5.35-5.35v-121.95c0-2.96-2.4-5.35-5.35-5.35Z"/>
        <path class="cls-38" d="M437.54,241.76h205.99c2.96,0,5.35-2.4,5.35-5.35v-121.95c0-2.96-2.4-5.35-5.35-5.35h-205.99"/>
        <path class="cls-7" d="M643.53,109.1h-75.95v132.65h75.95c2.96,0,5.35-2.4,5.35-5.35v-121.95c0-2.96-2.4-5.35-5.35-5.35Z"/>
        <g>
          <line class="cls-37" x1="567.58" y1="112.72" x2="567.58" y2="115.62"/>
          <line class="cls-36" x1="567.58" y1="121.32" x2="567.58" y2="232.37"/>
          <line class="cls-37" x1="567.58" y1="235.22" x2="567.58" y2="238.12"/>
        </g>
      </g>
      <g>
        <rect class="cls-22" x="579.09" y="143.47" width="57.11" height="5.74"/>
        <rect class="cls-22" x="579.09" y="152.92" width="39.15" height="5.74"/>
      </g>
      <g>
        <g>
          <rect class="cls-24" x="579.09" y="183.59" width="15.14" height="30.08"/>
          <rect class="cls-11" x="621.05" y="183.59" width="15.14" height="30.08"/>
          <polygon class="cls-22" points="612.57 194.59 611.2 193.23 607.74 196.69 604.27 193.23 602.91 194.59 606.37 198.06 602.91 201.52 604.27 202.89 607.74 199.42 611.2 202.89 612.57 201.52 609.1 198.06 612.57 194.59"/>
        </g>
        <text class="cls-28"/>
        <text class="cls-28"/>
        <text class="cls-28"/>
        <text class="cls-28"/>
      </g>
      <g>
        <rect class="cls-7" x="437.54" y="150.94" width="68.28" height="7.72"/>
        <rect class="cls-7" x="510.51" y="150.94" width="24.24" height="7.72" transform="translate(1045.26 309.59) rotate(180)"/>
      </g>
      <g>
        <rect class="cls-24" x="510.51" y="224.28" width="39.12" height="3.75"/>
        <rect class="cls-24" x="510.51" y="229.77" width="23.69" height="3.75"/>
        <rect class="cls-24" x="437.54" y="224.28" width="29.69" height="3.75"/>
        <rect class="cls-24" x="437.54" y="229.77" width="17.97" height="3.75"/>
        <polygon class="cls-9" points="495.94 190.63 493.94 188.63 488.87 193.71 483.8 188.63 481.8 190.63 486.87 195.71 481.8 200.78 483.8 202.78 488.87 197.71 493.94 202.78 495.94 200.78 490.87 195.71 495.94 190.63"/>
        <rect class="cls-11" x="437.54" y="171.73" width="29.69" height="47.94"/>
        <rect class="cls-11" x="510.51" y="171.73" width="39.12" height="47.94"/>
      </g>
    </g>
    <g>
      <ellipse class="cls-14" cx="395.71" cy="452.02" rx="139.04" ry="8.12"/>
      <g>
        <path class="cls-24" d="M407.14,440.63s-3.38.21-4.86,1.06c-1.48.84-3.38,1.69-2.96,2.53.42.84,10.35,4.22,18.58,4.65,8.24.42,17.1-1.06,17.32-2.11.21-1.06-4.41-4.22-5.07-4.86-.66-.64-23.02-1.27-23.02-1.27Z"/>
        <path class="cls-16" d="M389.58,379.3s14.05,33.29,14.69,62.51c0,0,1.61.64,6.1,1.28,4.5.64,19.59,1.93,20.56.32.96-1.61,4.82-58.46,4.82-58.46l-46.17-5.66Z"/>
        <path class="cls-22" d="M431.97,384.89c-.44,7.54-.88,15.09-1.33,22.63-.13,2.17-.25,4.33-.38,6.5-.03.58.87.58.9,0l1.33-22.63c.13-2.17.25-4.33.38-6.5.03-.58-.87-.58-.9,0Z"/>
        <path class="cls-22" d="M430.03,419.51c-.48,7.25-.95,14.5-1.43,21.75-.04.58.87.58.9,0,.48-7.25.95-14.5,1.43-21.75.04-.58-.87-.58-.9,0Z"/>
      </g>
      <g>
        <path class="cls-24" d="M338.73,446.6s-3.61.23-5.19,1.13c-1.58.9-3.61,1.81-3.16,2.71.45.9,11.07,4.52,19.87,4.97,8.81.45,18.29-1.13,18.52-2.26.23-1.13-4.72-4.51-5.42-5.19-.7-.68-24.62-1.35-24.62-1.35Z"/>
        <path class="cls-16" d="M319.96,381.01s15.02,35.6,15.71,66.85c0,0,1.72.69,6.53,1.37s20.95,2.06,21.98.34c1.03-1.72,5.15-62.51,5.15-62.51l-49.37-6.06Z"/>
        <path class="cls-22" d="M365.29,386.99c-.47,8.07-.95,16.13-1.42,24.2-.14,2.32-.27,4.63-.41,6.95-.04.62.93.62.97,0l1.42-24.2c.14-2.32.27-4.63.41-6.95.04-.62-.93-.62-.97,0Z"/>
        <path class="cls-22" d="M363.21,424.01c-.51,7.75-1.02,15.51-1.53,23.26-.04.62.92.62.97,0,.51-7.75,1.02-15.51,1.53-23.26.04-.62-.93-.62-.97,0Z"/>
      </g>
      <g>
        <path class="cls-8" d="M362.57,334.24c1.8-2.56,4.94-3.8,7.97-4.6,4.83-1.27,9.82-1.78,14.79-2.23,20.02-1.81,40.31-2.77,60.15.48,4.17.68,8.9,1.99,10.68,5.83,1.38,2.97.38,6.68-1.87,9.06-2.24,2.39-5.51,3.6-8.75,4.02-3.25.42-6.54.13-9.81-.05-21.08-1.17-42.12,2.18-63.21,3.04-3.59.15-7.82-.08-9.76-3.47-1.98-3.45-2.56-8.71-.19-12.08Z"/>
        <path class="cls-9" d="M456.16,333.72c-1.78-3.84-6.5-5.14-10.68-5.83-9.99-1.64-20.1-2.2-30.23-2.13,4.92.24,9.83.68,14.71,1.37,4.19.6,8.94,1.8,10.8,5.6,1.44,2.94.52,6.67-1.68,9.1-2.19,2.43-5.43,3.71-8.67,4.2-1.63.25-3.28.31-4.93.3l.1.17h0c3.38,0,6.76.05,10.14.24,3.27.18,6.56.47,9.81.05,3.25-.42,6.51-1.63,8.75-4.02,2.24-2.39,3.25-6.09,1.87-9.06Z"/>
      </g>
      <g>
        <path class="cls-7" d="M410.91,389.07s48.27-1.49,53.6-1.15c5.33.33,14.32-2.66,14.32-10.99s-5.33-12.65-9.66-13.32c-4.33-.67-26.63-1.66-29.63-2.66-3-1-36.29-.33-37.95-2.33-1.66-2-6.66-45.95-11.32-67.92-4.66-21.97-6.31-45.38-12.65-50.94-6.34-5.56-59.6-10.73-84.57-10.86l8.66,55.49,15.33,87.83,93.87,16.85Z"/>
        <path class="cls-26" d="M302.75,369.6s-3.29-49.94-8.07-75.35c-4.78-25.42-11.36-50.53-10.17-56.22,1.2-5.68,6.88-12.26,13.46-7.48,6.58,4.78,12.86,37.08,14.95,50.53,2.09,13.46,13.16,82.23,13.46,83.13.3.9,46.95,5.08,55.32,5.38,8.37.3,32.29-1.2,35.58,1.5,3.29,2.69,8.07,15.55-2.69,17.64-10.76,2.09-107.65-3.89-109.44-5.98-1.79-2.09-2.09-7.77-2.39-13.16Z"/>
      </g>
      <g>
        <path class="cls-3" d="M466.26,429.54s1.64,5.61,1.64,9.82-.47,10.75.7,13.33c1.17,2.57,3.97,2.1,8.42,1.87,4.44-.23,15.43-3.74,20.11-3.97,4.68-.23,23.61-1.87,26.42-4.91,2.81-3.04,2.81-5.14.94-6.55s-21.27-3.51-28.29-6.08c-7.01-2.57-12.62-8.18-12.62-8.18l-17.3,4.68Z"/>
        <path class="cls-18" d="M496.18,433.05c-7.01-2.57-12.62-8.18-12.62-8.18l-6.72,1.82c.55.53,1.1,1.05,1.65,1.58,1.74,1.67,3.5,3.33,5.48,4.7,3.48,2.41,7.52,3.86,11.56,5.14,4.38,1.4,9.37,2.6,13.41.39.9-.49,1.76-1.24,2.13-2.17-5.63-.97-11.61-2.07-14.88-3.27Z"/>
        <path class="cls-24" d="M404.77,333.23s22.61-3.2,31.93,1.58c11.86,6.08,20.44,29.52,25.58,38.87,5.14,9.35,23.14,51.43,23.14,51.43,0,0-26.88,9.59-34.37,9.59,0,0-24.55-67.33-27.12-68.03-2.57-.7-62.42,3.97-71.54-1.87-9.12-5.84,52.37-31.56,52.37-31.56Z"/>
        <path class="cls-9" d="M446.51,403.26c-4.23-10.99-8.46-21.98-12.69-32.96l-7.15-18.56c-.22-.57-1.15-.32-.93.26,4.24,11.03,8.49,22.05,12.73,33.08,4.23,10.99,8.46,21.98,12.69,32.96,2.02,5.24,4.03,10.48,6.05,15.72.31-.07.62-.14.95-.22-3.88-10.09-7.77-20.18-11.65-30.27Z"/>
        <path class="cls-22" d="M521.76,442.61c-5.93,2.86-12.66,2.82-19.06,3.54-6.72.76-13.09,2.96-19.67,4.41-3.74.82-7.55,1.33-11.38,1.04-.62-.05-.62.92,0,.97,6.92.52,13.63-1.53,20.24-3.27,3.32-.88,6.66-1.67,10.08-2.09,3.26-.4,6.54-.57,9.8-.97,3.61-.45,7.18-1.19,10.48-2.78.56-.27.07-1.1-.49-.83Z"/>
        <path class="cls-21" d="M506.71,435c-.92,1.84-1.74,3.73-2.45,5.66-.09.24.1.53.34.59.27.07.5-.09.59-.34.68-1.85,1.46-3.67,2.35-5.43.28-.55-.55-1.04-.83-.49Z"/>
        <path class="cls-21" d="M501.99,433.89c-1.18,1.91-2.3,3.85-3.36,5.83-.29.55.54,1.04.83.49,1.06-1.98,2.18-3.92,3.36-5.83.33-.53-.51-1.02-.83-.49Z"/>
        <path class="cls-21" d="M497.71,432.52c-1.33,1.99-2.5,4.07-3.52,6.23-.26.56.57,1.05.83.49,1.01-2.16,2.19-4.24,3.52-6.23.35-.52-.49-1-.83-.49Z"/>
        <path class="cls-21" d="M493.12,430.81c-.17-.17-.52-.2-.68,0-.82.99-1.66,1.97-2.47,2.98-.71.9-1.37,1.86-1.62,3-.13.61.8.86.93.26.23-1.04.84-1.91,1.49-2.73.77-.95,1.56-1.88,2.34-2.83.17-.2.2-.49,0-.68Z"/>
        <path class="cls-21" d="M488.74,427.98c-.17-.17-.52-.21-.68,0-1.45,1.84-2.91,3.68-4.36,5.52-.16.2-.2.48,0,.68.17.17.52.21.68,0,1.45-1.84,2.91-3.68,4.36-5.52.16-.2.2-.48,0-.68Z"/>
        <path class="cls-21" d="M484.77,425.77c-1.99,1.28-3.7,2.96-5.02,4.92-.35.52.49,1,.83.49,1.23-1.82,2.83-3.39,4.68-4.58.52-.34.04-1.17-.49-.83Z"/>
      </g>
      <g>
        <path class="cls-3" d="M391.15,402.73s-2.11,2.57-6.65,3.32c-4.53.76-8.16.6-9.52,1.21-1.36.6-2.72,1.36-2.87,3.93-.15,2.57,2.87,14.96,3.02,18.73.15,3.78-.15,9.97,1.51,16.31,1.66,6.34,4.99,11.78,8.91,13.14,3.93,1.36,6.5-.45,7.55-3.32,1.06-2.87.45-13.44,1.21-18.58.76-5.14,4.99-21.6,6.34-25.23,1.36-3.63-9.52-9.52-9.52-9.52Z"/>
        <path class="cls-18" d="M397.3,406.82c-.18.19-.35.39-.51.59-1.44,1.77-2.4,3.87-3.26,5.98-1.93,4.76-3.38,9.72-4.3,14.78-.52,2.87-.86,5.94.29,8.62.74,1.73,2.51,3.63,4.48,4.55.07-1.45.16-2.78.32-3.87.76-5.14,4.99-21.6,6.34-25.23.6-1.6-1.19-3.64-3.37-5.43Z"/>
        <path class="cls-24" d="M332.59,343.51s4.84-8.41,8.16-10.96c3.31-2.55,54.81-7.14,68.07-7.65,13.26-.51,18.36,1.27,20.65,5.61s-.76,22.43-2.55,29.06c-1.78,6.63-22.43,52.77-23.96,53.54-1.53.76-20.65-11.47-21.92-21.42l10.2-29.06s-62.46,18.1-58.64-19.12Z"/>
        <path class="cls-9" d="M400.8,345.2c-4.47,1.06-8.67,2.93-12.88,4.71-2.12.9-4.25,1.78-6.43,2.52-2.32.79-4.69,1.41-7.08,1.97-4.86,1.13-9.75,2.15-14.63,3.21-4.41.96-8.83,1.93-13.34,2.3-3.17.26-6.4.19-9.51-.44.38.41.78.81,1.2,1.19,6.4.97,13.11-.23,19.4-1.57,4.91-1.05,9.82-2.13,14.72-3.21,4.8-1.06,9.45-2.36,14-4.23,4.62-1.9,9.16-4.04,14-5.31-3.34,13.87-7.77,27.47-13.24,40.64-1.33,3.2-2.74,6.37-4.19,9.52.19.33.4.65.61.98,5.94-12.8,10.9-26.05,14.79-39.61,1.15-4,2.2-8.03,3.17-12.09.09-.36-.23-.68-.59-.59Z"/>
        <path class="cls-22" d="M389.69,456.9c-2.97-.55-5.49-2.37-7.3-4.75-1.99-2.61-3.02-5.77-3.51-8.99-1.12-7.37.49-14.91-1.21-22.23-.47-2.03-1.18-4-1.57-6.05-.41-2.14-.41-4.35-.03-6.5.11-.61-.82-.87-.93-.26-.34,1.91-.41,3.84-.16,5.77.24,1.9.81,3.73,1.32,5.56,1.08,3.85,1.3,7.75,1.26,11.73-.06,7.09-.6,15,3.74,21.09,1.96,2.74,4.77,4.93,8.14,5.55.61.11.87-.82.26-.93Z"/>
        <path class="cls-21" d="M396.09,433.17c-2.56-1.85-5.45-3.35-8.65-3.58-.62-.04-.62.92,0,.97,3.02.22,5.75,1.71,8.17,3.45.5.36.99-.47.49-.83Z"/>
        <path class="cls-21" d="M397.22,427.35c-.49-.61-1.14-1.03-1.79-1.45-.73-.47-1.46-.94-2.21-1.37-1.46-.84-3.02-1.53-4.7-1.79-.61-.09-.87.84-.26.93,1.6.24,3.07.89,4.47,1.69.69.39,1.36.82,2.02,1.25.64.42,1.3.82,1.78,1.42.39.49,1.07-.2.68-.68Z"/>
        <path class="cls-21" d="M398.31,421.55c-2.24-2.03-5.03-3.4-8.02-3.88-.61-.1-.87.83-.26.93,2.83.45,5.48,1.7,7.6,3.63.46.42,1.14-.26.68-.68Z"/>
        <path class="cls-21" d="M399.98,416.7c-.73-1.17-1.91-1.88-3.1-2.52-1.39-.75-2.82-1.44-4.27-2.08-.56-.25-1.06.59-.49.83,1.37.6,2.71,1.24,4.03,1.95,1.11.59,2.31,1.21,2.99,2.3.33.53,1.16.04.83-.49Z"/>
      </g>
      <g>
        <path class="cls-24" d="M386.64,197.82c.37.38.71.79,1.03,1.21,1.74,2.27,1.38,5.05,2.94,7.36.84,1.25,1.89,2.36,2.59,3.7,1.36,2.59,1.21,5.91-.38,8.37-1.37,2.12-3.64,3.52-5.13,5.57-1.51,2.08-2.11,4.61-3.26,6.88-1.39,2.76-3.73,3.93-6.06,5.81-2.5,2.02-3.43,5.45-4.85,8.25-1.16,2.28-2.8,4.31-4.78,5.93-4.73,3.86-9.68,4.49-15.67,3.61-6.69-.99-12.81-2.75-18.27-6.89-2.12-1.61-4.18-3.68-4.49-6.31-.34-2.81,1.38-5.42,3.07-7.69,2.16-2.91,3.2-5.36,3.22-8.98.01-2.73-.17-6.14.86-8.68,1.42-3.51,5.08-4.69,7.87-6.8,2.87-2.17,4.74-5.23,6.45-8.33,1.79-3.25,5.63-5.03,8.94-6.34,3.94-1.57,8.22-2.31,12.47-2.1,3.75.18,7.52,1.11,10.67,3.14,1.01.65,1.95,1.43,2.78,2.3Z"/>
        <path class="cls-3" d="M367.09,243.92s6.29,3.15,10.13,11.13c3.83,7.97,13.46,35.1,13.87,36.55.41,1.45,1.45,10.87.52,12.32-.93,1.45-7.56,5.69-11.6.52-6.05-35.81-13.97-57-13.97-57l1.05-3.51Z"/>
        <path class="cls-3" d="M379.47,304.16s1.78,4.19,5.44,4.82c3.66.62,9.63-4.1,10.62-8.92.98-4.82-.98-8.47-2.77-10.17-1.78-1.7-5.98-1.34-7.14-.98-1.16.36-3.21,2.77-4.19,4.28-.98,1.52-2.68,7.76-1.96,10.97Z"/>
        <path class="cls-20" d="M386.58,288.72c-1.09.88-2.25,2.15-3.06,3.98-1.48,3.34-.7,6.61.59,8.7,1.61,2.59,6.33,3.21,8.56,2.23,1.44-.63,2.31-2.18,2.76-3.21.03-.12.07-.24.1-.36.98-4.82-.98-8.47-2.77-10.17-1.45-1.37-4.47-1.4-6.19-1.17Z"/>
        <path class="cls-19" d="M399.17,297.86s-2.29.69-3.44.92c-.19.04-.35.06-.46.07-.65.06-2.68,3.53-3.75,5.12-2.43.42-6.05-.36-7.42-2.56-.81-1.3-1.42-3.07-1.4-5.03,1.24-1.38,3.94-3.97,3.94-3.97,0,0,4.8.43,8.33.86,1.95.24,3.52.47,3.7.63.49.43.49,3.97.49,3.97Z"/>
        <path class="cls-19" d="M400.48,292.96c.25-.06,1.92-1.8,2.23-2.91.31-1.12-.12-1.36.56-2.05.68-.68,2.73-2.11,2.91-2.98.19-.87-1.8-2.67-3.04-2.85s-2.73.87-3.6,1.61c-.87.74-2.23,1.61-3.04,3.53-.81,1.92-2.36,4.53-1.61,5.39.74.87,3.22,1.05,3.22,1.05l2.36-.81Z"/>
        <g>
          <path class="cls-9" d="M394.35,295.02l16.29-25.91c.71-1.14-.08-2.62-1.42-2.65l-13.53-.36c-.61-.02-1.19.29-1.51.81l-16.29,25.91c-.71,1.14.08,2.62,1.42,2.65l13.53.36c.61.02,1.19-.29,1.51-.81Z"/>
          <polygon class="cls-9" points="377.74 294.37 378.79 296.34 380.1 294.37 379.83 291.9 379.02 292.05 377.74 294.37"/>
          <polygon class="cls-9" points="410.7 267.38 411.49 268.92 410.37 269.12 409.51 267.93 410.7 267.38"/>
          <path class="cls-8" d="M395.11,296.51l16.29-25.91c.71-1.14-.08-2.62-1.42-2.65l-13.53-.36c-.61-.02-1.19.29-1.51.81l-16.29,25.91c-.71,1.14.08,2.62,1.42,2.65l13.53.36c.61.02,1.19-.29,1.51-.81Z"/>
        </g>
        <path class="cls-15" d="M402.4,291.84s-7.63-2.17-8.31-2.73c-.68-.56-.87-1.86-.43-2.23.43-.37,9.18.25,9.92.68.74.43,1.18,1.18,1.24,1.61.06.43.31,3.16-2.42,2.67Z"/>
        <path class="cls-15" d="M402.96,291.53s.68,1.74.43,2.48c-.25.74.06.87-1.49,1.55,0,0-.25,2.23-1.05,2.67-.81.43-7.56-.68-7.87-1.36-.31-.68.5-2.05.5-2.05,0,0-2.91-.12-3.22-1.18s0-1.8.56-1.92,9.05.5,9.49.31.81-.87.81-.87l1.86.37Z"/>
        <path class="cls-19" d="M400.35,295.26c-1.98-.02-3.94-.2-5.89-.56-.3-.06-.43.41-.13.47,1.99.36,4,.56,6.02.57.31,0,.31-.48,0-.48Z"/>
        <path class="cls-15" d="M405.68,285.58s-4.03-1.92-4.22-2.67c-.19-.74-.43-1.86.93-1.92,1.36-.06,3.84.99,4.22,1.86.37.87.37,1.98-.93,2.73Z"/>
        <path class="cls-22" d="M327.99,340.74s3.14-.83,7.59-1.98c1.6-2.37,3.56-4.98,5.17-6.22,2.19-1.68,25.42-4.26,44.76-5.96-1.27-4.98-6.48-25.49-7.34-30.87-.99-6.14-.6-22.27-1.39-25.44-.79-3.17-17.81-28.11-17.81-28.11l-17.76-4.05s-2.1.71-4.9,1.64c-4.92,1.64-11.98,3.98-13.55,4.37-.02,0-.03,0-.03,0-.14.04-.27.14-.4.32-1.98,2.76-2,22.12-2.38,26.31-.4,4.45,10.69,49.19,10,51.87-.7,2.67-1.98,18.11-1.98,18.11Z"/>
        <path class="cls-14" d="M356.32,256.34c-2.02.23-4.07.28-6.1.12-1.78-.14-3.63-.4-5.11-1.49-.5-.37-.98.47-.49.83,1.49,1.1,3.35,1.41,5.15,1.58,2.18.2,4.37.17,6.54-.08.61-.07.62-1.04,0-.97Z"/>
        <path class="cls-14" d="M375.2,294.46c.71-.12,1.56-.32,1.79-1.01.08-.24.06-.5.05-.75-.42-6.35-.85-12.71-1.27-19.06-.07-1.02-.27-4.88-1.8-5.01-1.09-.1-2.38,3.78-2.97,4.74-2.22,3.58-5.25,6.66-8.83,8.9-.6.37-1.23.73-1.93.8-.63.06-1.26-.12-1.88-.25-2.69-.57-5.49-.26-8.22.05-.89.1-1.82.22-2.56.71-1.14.76-1.56,2.21-1.89,3.54-3.58,14.38-6.13,29.08-6.36,43.89-.02,1.48.29,3.38,1.74,3.69,1.46.32,2.53-1.31,3.1-2.68,4.11-9.87,6.8-20.78,14.15-28.54,4.46-4.71,10.48-7.92,16.88-9.01Z"/>
        <path class="cls-15" d="M341.21,238.12s-3.8,1.28-7.99,2.67c1.54,2.79,8.48,14.28,18.33,14.4,11.05.13,9.65-7.86,9.08-10.56-1.03-1.53-1.67-2.47-1.67-2.47l-17.76-4.04Z"/>
        <path class="cls-3" d="M372.12,286.94c.74,8.64,3.27,13.73,5.05,19.59,1.57,5.18,5.36,17.46,6.22,20.25,2.15-.19,4.26-.38,6.3-.55-.77-2.39-2.63-7.94-3.89-9.98-1.63-2.62-5.47-11.57-5.78-16.66-.31-5.09-1.39-25.91-2.62-30.85-1.23-4.94-8.17-22.52-9.72-24.37-1.54-1.85-10.5-2.61-10.5-2.61,0,0,11.88,22.82,13.44,26.36,1.56,3.55.76,10.18,1.5,18.82Z"/>
        <path class="cls-22" d="M382.91,309.34c-1.59-3.05-1.78-6.54-1.93-9.92-.16-3.76-.31-7.53-.47-11.29-.29-6.77-.66-13.66-2.67-20.18-.55-1.8-1.23-3.57-2.05-5.26-.84-1.73-1.9-3.44-1.89-5.42,0-.64-1-.64-1,0,0,1.71.69,3.25,1.44,4.75.77,1.54,1.49,3.1,2.06,4.73,1.16,3.3,1.86,6.76,2.3,10.22.91,7.19.96,14.5,1.26,21.73.16,3.79.31,7.7,2.09,11.14.3.57,1.16.07.86-.5Z"/>
        <path class="cls-15" d="M341.21,238.12s4.86-1,9.48-7.32c3.43-4.71,4.04-10.74,4.04-10.74,0,0,1.28.89,3.4,6.19,2.12,5.3,2.04,11.78,2.04,11.78l-1.89,6.29s-5.66,2.87-9.25,1.44c-3.59-1.44-7.81-7.63-7.81-7.63Z"/>
        <path class="cls-19" d="M356.92,221.16s-4.58,8.92-3.77,13.5c.75,4.25,2.37,7.44,5.48,8.48l1.53-5.11-3.24-16.87Z"/>
        <path class="cls-15" d="M357.07,221.93c-.63.85-1.25,1.73-1.71,2.67-.82,1.71-1.17,3.56-.95,5.45.18,1.55.44,3.1,1,4.55,1.12,2.9,4.03,6.27,7.16,6.99,3.19.74,7.36-.86,12.02-5.77,4.66-4.91,4.79-7.85,6.5-10.31,1.87-2.68,3.77-5.16,4.84-8.3,1.03-3.03,1.4-6.29,1.03-9.48-.23-1.94-.73-3.86-1.58-5.62-1.55-3.21-4.28-5.82-7.51-7.34s-6.93-1.98-10.45-1.42c-3.32.53-6.45,2.15-8.72,4.65-2.21,2.43-3.72,5.81-4.3,9.03-.42,2.32-.27,4.79.73,6.93.56,1.19,1.36,2.25,1.93,3.43.7,1.45,1.01,3.18,0,4.54Z"/>
        <path class="cls-24" d="M356.58,212.71c.6.12,1.19.41,1.74.91.57.52.95,1.23,1.17,1.97.22.74.33,1.58.94,2.06.55.43,1.42.36,1.89-.14.42-.44.51-1.09.65-1.68.38-1.56,1.83-1.84,3.26-1.87,2.02-.03,4,.65,5.89,1.28,3.42,1.15,7.15,1.55,10.64.63,3.48-.92,6.67-3.29,8.1-6.59,1.3-3,1.07-6.55-.29-9.54-2.01-4.43-7.15-7.31-11.65-8.51-4.19-1.12-8.63-1.09-12.92-.47-2.26.32-4.51.82-6.59,1.75-3.76,1.68-6.18,4.82-7.78,8.54-.72,1.67-1.36,3.38-2.26,4.97-.89,1.57-2.28,2.8-3.11,4.39-.36.68-.55,1.47-.39,2.21.31,1.41,1.84,2.28,3.29,2.28,1.44,0,2.79-.67,4.04-1.4,1.09-.64,2.26-1,3.39-.78Z"/>
        <path class="cls-15" d="M359.07,216.53c-.48-3.55-4.98-6.58-6.33-3.01-1.71,4.52-.57,11.46,3.02,11.22,3.6-.24,3.78-4.68,3.31-8.2Z"/>
        <path class="cls-24" d="M355.87,222.09c-.02-.08-.06-.15-.12-.21-.03-.03-.07-.05-.1-.08-.08-.04-.16-.07-.24-.07-.09,0-.18,0-.26,0-.07,0-.13.01-.19.04-.06.02-.11.05-.16.1-.05.04-.08.1-.1.16-.03.06-.04.12-.04.19,0,.04.01.09.02.13.02.08.06.15.12.21.03.03.07.05.1.08.08.04.16.07.24.07.09,0,.18,0,.26,0,.07,0,.13-.01.19-.04.06-.02.11-.05.16-.1.05-.04.08-.1.1-.16.03-.06.04-.12.04-.19,0-.04-.01-.09-.02-.13Z"/>
        <path class="cls-19" d="M355.45,214.79c.38-.04.71.36.93.61.42.46,1.1-.22.68-.68-.38-.42-.84-.82-1.43-.88-.59-.06-1.12.27-1.5.7-.7.79-1.06,1.87-.97,2.92,0,.12.03.25.05.37-.09.21-.02.47.15.6.23.7.67,1.35,1.36,1.63.99.41,2.26-.3,2.04-1.45-.11-.57-.58-1.02-1.1-1.22-.49-.19-1.02-.13-1.53,0-.04-.68.13-1.35.5-1.92.18-.27.47-.64.82-.67ZM355.77,218.66c.1.19.07.38-.12.49-.23.13-.49.08-.7-.05-.27-.17-.47-.46-.6-.77.54-.13,1.15-.18,1.42.34Z"/>
        <path class="cls-24" d="M369.85,223.58c-.37.78-1.02,1.25-1.47,1.04-.44-.21-.5-1.01-.13-1.79.37-.78,1.02-1.25,1.47-1.04s.5,1.01.13,1.79Z"/>
        <path class="cls-19" d="M373.39,225.86c.31-.56-.55-1.07-.86-.5-.86,1.57-1.78,3.32-1.65,5.17.03.43.18.86.18,1.28,0,.39-.28.59-.63.7-.72.23-1.8.16-1.98-.73-.12-.63-1.09-.36-.96.27.2,1.05,1.25,1.6,2.25,1.58.93-.02,2.07-.4,2.28-1.43.11-.54-.09-1.06-.14-1.6-.05-.54.01-1.08.14-1.61.28-1.11.82-2.13,1.37-3.12Z"/>
        <path class="cls-24" d="M366.08,234.18c-.16,0-.33,0-.49-.01-.02,0-.08-.01-.08-.01-.04,0-.08-.02-.12-.03-.08-.02-.16-.04-.25-.07-.19-.06-.22-.08-.39-.17-.08-.04-.16-.09-.24-.15-.03-.02-.06-.04-.08-.06.06.05-.06-.05-.06-.05-.12-.11-.23-.22-.34-.35-.06-.06,0,0-.03-.03-.02-.03-.05-.07-.07-.1-.05-.07-.09-.14-.13-.21-.04-.07-.08-.14-.11-.22,0-.02,0-.02-.01-.03,0,0,0,0-.01-.03-.01-.04-.03-.08-.04-.11-.03-.08-.05-.15-.07-.23,0-.04-.02-.08-.03-.12,0-.02-.03-.16-.01-.06-.03-.26-.21-.51-.5-.5-.24.01-.54.22-.5.5.11.84.48,1.64,1.13,2.2.67.57,1.54.88,2.42.83.26-.01.51-.22.5-.5-.01-.26-.22-.52-.5-.5Z"/>
        <path class="cls-24" d="M376.98,226.79c-.38.81-1,1.32-1.39,1.14-.39-.18-.39-.99,0-1.8.38-.81,1-1.32,1.39-1.14.39.18.39.99,0,1.8Z"/>
        <path class="cls-24" d="M373.69,220.26c-.28-.39-.56-.79-.92-1.12-.38-.36-.82-.6-1.31-.78-1-.36-2.1-.4-3.14-.18-.32.07-.5.44-.42.74.09.33.42.49.74.42.81-.17,1.65-.11,2.43.16.72.24,1.16.78,1.59,1.38.19.26.52.39.82.22.26-.15.41-.56.22-.82Z"/>
        <path class="cls-24" d="M380.27,223.75c-.67-1.25-2.06-1.98-3.45-1.98-.32,0-.58.36-.54.66.05.35.32.54.66.53.01,0,.06,0,.08,0,0,0,.01,0,.01,0,.07,0,.14.01.21.02.14.02.27.05.41.09.03,0,.06.02.09.03.07.02.13.05.19.08.13.06.25.12.37.19,0,0,0,0,0,0,.02.01.04.02.06.04.06.04.11.08.17.12.11.09.21.19.31.28,0,0,0,0,0,0,0,0,0,0,0,0,.02.02.04.05.06.07.04.05.09.11.13.17.09.12.16.24.23.37.15.28.6.32.84.14.28-.22.3-.54.14-.84Z"/>
        <path class="cls-3" d="M348.39,323.03c-.54,2.18-2.02,7.78-3.6,13.38-1.98,7.04-4.12,14.06-4.72,14.23-1.08.3-22.21-3.4-22.98-5.71-.77-2.32,8.49-24.68,8.95-31.47.46-6.78-6.48-33.31-7.25-39.48-.77-6.17,1.13-22.21,1.18-23.91.06-1.59.51-3.99,2.39-5.61.13-.12.26-.22.4-.32,0,0,0,0,.03,0,1.56-.4,8.63-2.73,13.55-4.37,0,0,13.83,18.65,15.73,34.53,1.89,15.89-2.42,43.81-3.66,48.74Z"/>
      </g>
      <g>
        <path class="cls-3" d="M322.74,244.14s-5.92,1.31-8.51,11.13c-2.59,9.82-2.22,33.73-2.22,44.3s2.04,19.83,5.75,23.17c3.71,3.34,8.53,4.08,13.9,2.41,5.37-1.67,34.66-15.57,35.59-17.24.93-1.67-.37-14.64-2.97-17.61l-30.4,10.56s3.71-24.46.37-37.44c-3.34-12.97-9.66-18.93-11.5-19.29Z"/>
        <path class="cls-20" d="M364.27,290.3c-1.83.79-1.03,9.83.06,13.91,1.09,4.08,2.9,3.69,2.9,3.69.93-1.67-.37-14.64-2.97-17.61Z"/>
        <path class="cls-22" d="M335.97,271.73c-.19-2.68-.53-5.34-1.04-7.98-.12-.61-1.05-.35-.93.26,1.83,9.4,1.26,19.04.19,28.49-.31,2.72-.66,5.43-1.02,8.15-.08.61.89.61.97,0,1.25-9.57,2.51-19.24,1.84-28.91Z"/>
        <path class="cls-22" d="M362.11,290.44c-8.81,3.2-17.6,6.43-26.43,9.57-2.52.89-5.03,1.78-7.56,2.65-.58.2-.33,1.13.26.93,8.85-3.06,17.65-6.28,26.45-9.48,2.51-.91,5.03-1.83,7.54-2.74.58-.21.33-1.14-.26-.93Z"/>
        <path class="cls-22" d="M348.34,317.18c-3.85,1.96-7.67,4.06-11.62,5.83-3.89,1.74-8.04,2.62-12.31,2.43-.62-.03-.62.94,0,.97,4.28.19,8.46-.67,12.38-2.38,4.1-1.79,8.05-3.99,12.04-6.01.55-.28.07-1.12-.49-.83Z"/>
        <path class="cls-19" d="M370.69,281.41s1.57-1.76,3.08-3.19c1.52-1.43,5.08-5.8,5.53-5.89.45-.09.8,2.23.27,3.39-.54,1.16-2.77,4.37-2.77,4.37l-6.11,1.32Z"/>
        <path class="cls-15" d="M391.65,285.6s-.51,1.02-1.45,1.2c-.95.17-5.65-.6-6.25-.6s-5.14.77-5.22,1.28c-.09.51.26.85.86,1.02.6.17,4.88-.25,5.48,0,.6.26,3.17,1.02,3.08,1.28-.09.26-.26,1.11-1.28,1.28-1.02.17-2.22-.34-2.22-.34,0,0,.08,1.8-1.12,1.96-1.2.17-3.93.17-3.93.17,0,0-3.68,2.57-5.48,2.99-1.8.43-4.71.77-5.14.95-.16.06-1.06.66-2.12,1.38h0c-1.14.77-2.45,1.68-3.24,2.23-.55-3.94-.69-8.64.35-9.87.1-.11.2-.18.31-.25,0,0,2.74-3.59,4.03-5.65,1.28-2.05,2.39-3.24,2.39-3.24,0,0,7.62-2.74,9.07-2.74s11.3.26,11.47.86c.17.6.25,1.62-1.11,2.13-1.37.51-5.91-.16-5.91-.16,0,0-5.99,1.02-6.16,1.54-.16.51-.09.6.6.86.69.25,6.16-.77,7.45-.52,1.28.26,5.56,2.23,5.56,2.23Z"/>
        <path class="cls-19" d="M383.92,290.6c-2.06-.36-4.16-.37-6.22-.04-.31.05-.18.51.13.47,1.98-.31,4-.3,5.97.04.3.05.43-.41.13-.47Z"/>
        <path class="cls-19" d="M377.6,287.11s-.11-.07-.17-.07c-.06,0-.11,0-.17.02-.04,0-.07.02-.11.03-.05.02-.1.04-.15.07-.05.03-.09.06-.14.1-.02.02-.04.05-.05.08-.02.03-.02.06-.02.09,0,.06.03.13.07.17.05.04.11.07.17.07.02,0,.04,0,.06,0,.04-.01.07-.03.1-.06-.01,0-.02.02-.03.02.03-.03.07-.05.11-.06.04-.01.08-.02.11-.03.01,0,.02,0,.04,0,.06,0,.13-.03.17-.07.04-.04.07-.11.07-.17,0-.06-.02-.13-.07-.17Z"/>
        <path class="cls-19" d="M376.13,283.1s-.11-.07-.17-.07h-.47c-.06,0-.13.03-.17.07-.04.04-.07.11-.07.17,0,.06.02.13.07.17.05.04.11.07.17.07h.47c.06,0,.13-.03.17-.07.04-.04.07-.11.07-.17,0-.06-.02-.13-.07-.17Z"/>
      </g>
      <g>
        <path class="cls-12" d="M307.79,359.18c.69,2.68,1.61,5.45,3.64,7.33.72.66,1.59,1.21,2.56,1.3.97.09,2.03-.37,2.43-1.26.54-1.21-.26-2.56-.91-3.71-1.64-2.91-2.47-6.28-2.36-9.63.04-1.1.16-2.24-.19-3.28-.47-1.37-1.81-2.4-3.26-2.5-6.1-.4-2.72,8.66-1.92,11.75Z"/>
        <path class="cls-22" d="M314.63,364.28c-2.29-4.28-3.29-9.14-2.89-13.98.05-.62-.91-.62-.97,0-.41,5,.65,10.05,3.02,14.47.29.55,1.13.06.83-.49Z"/>
        <path class="cls-8" d="M290.82,335.64c1.8-2.56,4.94-3.8,7.97-4.6,4.83-1.27,9.82-1.78,14.79-2.23,20.02-1.81,40.31-2.77,60.15.48,4.17.68,8.9,1.99,10.68,5.83,1.38,2.97.38,6.68-1.87,9.06-2.24,2.39-5.51,3.6-8.75,4.02-3.25.42-6.54.13-9.81-.05-21.08-1.17-42.12,2.18-63.21,3.04-3.59.15-7.82-.08-9.76-3.47-1.98-3.45-2.56-8.71-.19-12.08Z"/>
        <path class="cls-9" d="M384.4,335.12c-1.78-3.84-6.5-5.14-10.68-5.83-9.99-1.64-20.1-2.2-30.23-2.13,4.92.24,9.83.68,14.71,1.37,4.19.6,8.94,1.8,10.8,5.6,1.44,2.94.52,6.67-1.68,9.1-2.19,2.43-5.43,3.71-8.67,4.2-1.63.25-3.28.31-4.93.3l.1.17h0c3.38,0,6.76.05,10.14.24,3.27.18,6.56.47,9.81.05,3.25-.42,6.51-1.63,8.75-4.02,2.24-2.39,3.25-6.09,1.87-9.06Z"/>
      </g>
    </g>
    <g>
      <rect class="cls-7" x="564.77" y="52.77" width="140.38" height="52.65" rx="5.79" ry="5.79"/>
      <g>
        <circle class="cls-22" cx="592.83" cy="79.09" r="17.66"/>
        <path class="cls-7" d="M604.76,72.36c-.31-.39-.92-.26-1.38-.06-2.14.94-3.93,2.52-5.68,4.07-1.85,1.64-3.71,3.29-5.56,4.93-.45.4-.96.82-1.56.79-.42-.02-.79-.26-1.15-.48-1.95-1.23-4.05-2.21-6.24-2.91-.65-.21-1.4-.37-1.97,0-2.02,1.29,3.37,3.82,4.05,4.32,1.94,1.43,3.71,3.07,5.27,4.91.51.6,1.45.58,1.96-.02l11.88-14.09c.35-.41.71-1.02.37-1.45Z"/>
        <path class="cls-22" d="M612.56,71.52c-.47-2.09-1.64-4.04-3.3-5.41-.32-.27-.78-.31-1.09,0-.27.27-.32.82,0,1.09.37.31.72.65,1.04,1.01.08.09.16.18.23.28.01.02.06.08.07.09.03.04.05.07.08.11.15.21.29.42.43.64.13.21.24.42.35.63.05.11.11.22.16.33.02.05.04.1.07.15.05.11,0,0,.03.08.18.46.33.94.44,1.42.09.41.56.65.95.54.42-.12.63-.54.54-.95Z"/>
        <path class="cls-22" d="M604.63,61.73c-5.27-3.5-12.04-4.53-18.07-2.56-5.75,1.88-10.5,6.18-12.85,11.76-1.37,3.26-1.91,6.84-1.55,10.36.1.98,1.65.99,1.55,0-.6-5.81,1.36-11.72,5.51-15.86,3.97-3.97,9.55-6.07,15.15-5.66,3.39.25,6.66,1.41,9.49,3.29.83.55,1.61-.79.78-1.33Z"/>
        <path class="cls-22" d="M611.13,85.82c-1.43,5.26-5.45,9.58-10.52,11.55-5.56,2.15-11.88,1.55-17.1-1.23-2.85-1.52-5.33-3.61-7.4-6.08-.64-.76-1.73.33-1.09,1.09,3.95,4.73,9.51,8.09,15.66,8.88,6.21.8,12.67-1.1,17.13-5.56,2.28-2.28,3.96-5.12,4.8-8.24.26-.96-1.23-1.37-1.49-.41Z"/>
      </g>
    </g>
    <g>
      <g>
        <path class="cls-8" d="M608.6,281.42c-.16,1.05-.67,1.85-1.15,1.78-.48-.07-.75-.98-.59-2.04.16-1.05.67-1.85,1.15-1.78.48.07.75.98.59,2.04Z"/>
        <path class="cls-8" d="M603.4,282.78c-.16,1.05-.67,1.85-1.15,1.78-.48-.07-.75-.98-.59-2.04.16-1.05.67-1.85,1.15-1.78.48.07.75.98.59,2.04Z"/>
        <path class="cls-8" d="M598.2,284.14c-.16,1.05-.67,1.85-1.15,1.78-.48-.07-.75-.98-.59-2.04.16-1.05.67-1.85,1.15-1.78s.75.98.59,2.04Z"/>
        <path class="cls-8" d="M593,285.51c-.16,1.05-.67,1.85-1.15,1.78-.48-.07-.75-.98-.59-2.04.16-1.05.67-1.85,1.15-1.78.48.07.75.98.59,2.04Z"/>
        <path class="cls-8" d="M535.79,300.49c-.16,1.05-.67,1.85-1.15,1.78-.48-.07-.75-.98-.59-2.04.16-1.05.67-1.85,1.15-1.78.48.07.75.98.59,2.04Z"/>
        <path class="cls-8" d="M530.59,301.85c-.16,1.05-.67,1.85-1.15,1.78-.48-.07-.75-.98-.59-2.04.16-1.05.67-1.85,1.15-1.78.48.07.75.98.59,2.04Z"/>
        <path class="cls-8" d="M525.39,303.22c-.16,1.05-.67,1.85-1.15,1.78-.48-.07-.75-.98-.59-2.04.16-1.05.67-1.85,1.15-1.78.48.07.75.98.59,2.04Z"/>
        <path class="cls-8" d="M520.19,304.58c-.16,1.05-.67,1.85-1.15,1.78-.48-.07-.75-.98-.59-2.04.16-1.05.67-1.85,1.15-1.78s.75.98.59,2.04Z"/>
        <path class="cls-24" d="M534.74,322.51c-1.01.23-.59,1.79.43,1.56"/>
        <path class="cls-24" d="M561.02,318.14c1.01-.23.59-1.79-.43-1.56"/>
        <path class="cls-14" d="M665.62,286.65c.8-.67-.35-1.81-1.14-1.14"/>
      </g>
      <g>
        <path class="cls-14" d="M494.94,312.72s-35.39-8.42-36.85-7.69c-1.46.73-7.69,3.78-7.69,3.78l26.12,8.05,18.43-4.15Z"/>
        <line class="cls-8" x1="490.45" y1="313.73" x2="494.94" y2="312.72"/>
      </g>
      <line class="cls-8" x1="571.32" y1="297.77" x2="577.13" y2="296"/>
      <g>
        <path class="cls-21" d="M581.82,296.73c.06-1.02-.44-2.05-1.27-2.63-.7-.49-2.02-.77-2.79-.38,0,.89.06,1.84.19,2.83.15,1.13.37,2.19.65,3.14.39.07.82,0,1.19-.16"/>
        <path class="cls-14" d="M574.98,307.52c-1.98.41-3.98.75-5.99,1-1.72.22-3.48.44-5.22.37-1.66-.06-3.36-.45-4.67-1.54-1.26-1.04-2.07-2.49-2.74-3.95-.27-.59-1.14-.08-.87.51.7,1.54,1.58,3.06,2.9,4.16,1.36,1.13,3.03,1.65,4.76,1.8,1.9.16,3.83-.08,5.72-.32,2.14-.27,4.27-.62,6.38-1.05.64-.13.37-1.11-.27-.98Z"/>
      </g>
      <g>
        <path class="cls-6" d="M635.93,322.27c-.09-5.1-4-7.46-5.19-7.55-.41-.03-2.29.3-4.68.88-1.41,2.8-1.85,6.54-1.43,8.78.51,2.69,2.06,5.2,4.24,6.84,1.96-.42,3.47-.79,3.87-.93,1.27-.45,3.28-2.91,3.18-8.01Z"/>
        <path class="cls-24" d="M634.86,321.74c.46,3.5-.75,6.74-2,6.9-1.25.16-2.63-2.54-3.09-6.04-.46-3.5.18-6.47,1.43-6.63,1.25-.16,3.21,2.27,3.67,5.77Z"/>
        <path class="cls-21" d="M629.77,322.6c.12.89.29,1.72.51,2.47.31.05.65,0,.94-.13.87-.39,1.54-1.25,1.6-2.2.05-.8-.34-1.62-1-2.07-.55-.39-1.59-.61-2.2-.3"/>
        <path class="cls-8" d="M630.46,329.73c.45.24.85-.44.4-.69-.94-.51-1.48-1.46-1.85-2.43-.39-1.04-.67-2.14-.83-3.25"/>
        <path class="cls-8" d="M628.94,316.45c.2-.47-.57-.68-.77-.21-.99,2.38-1.14,4.99-.73,7.51"/>
      </g>
    </g>
    <g>
      <rect class="cls-23" x="352.52" y="56.2" width="62.79" height="62.79" rx="5.79" ry="5.79"/>
      <g>
        <path class="cls-22" d="M391.7,94.37h-32.17c-.1-1.48.61-2.85,1.87-3.63,1.26-.78,2.95-.79,4.22-.04.37-2.78,2.73-5.18,5.5-5.6.68-.1,1.42-.11,1.97-.52.5-.37.74-.98,1.1-1.49,1.34-1.89,4.32-2,6.22-.68,1.9,1.32,2.84,3.67,3.17,5.96.1.67.23,1.47.85,1.75.32.15.7.1,1.05.07,1.37-.13,2.81,0,4.01.69,1.2.68,2.32,2.11,2.21,3.48Z"/>
        <path class="cls-22" d="M390.81,71.57c-5.2,0-9.55,3.7-10.54,8.61.44.18.86.39,1.24.66,2.11,1.47,3.52,4.05,3.98,7.27,0,.04.01.09.02.15.31-.02.59-.03.87-.03,1.55,0,2.92.33,4.07.99,1.21.69,2.45,1.99,2.95,3.54,4.69-1.16,8.17-5.38,8.17-10.43,0-5.94-4.82-10.76-10.76-10.76Z"/>
        <g>
          <path class="cls-22" d="M368.97,96.85c-.27.01-.47.21-.48.48-.05.88-.1,1.76-.15,2.63-.01.25.23.49.48.48.27-.01.47-.21.48-.48.05-.88.1-1.76.15-2.63.01-.25-.23-.49-.48-.48Z"/>
          <path class="cls-22" d="M368.88,103.52c-.27.01-.47.21-.48.48-.04.78-.08,1.57-.12,2.35-.01.25.23.49.48.48.27-.01.47-.21.48-.48.04-.78.08-1.56.12-2.35.01-.25-.23-.49-.48-.48Z"/>
          <path class="cls-22" d="M372.31,103.91c-.08,1.91-.16,3.82-.21,5.73-.02.62.95.62.97,0,.06-1.91.13-3.82.21-5.73.03-.62-.94-.62-.97,0Z"/>
          <path class="cls-22" d="M373.01,97.04c-.26.01-.48.21-.48.48v1.79c0,.25.22.49.48.48.26-.01.48-.21.48-.48v-1.79c0-.25-.22-.49-.48-.48Z"/>
          <path class="cls-22" d="M377.17,98.28c0-.62-.96-.62-.97,0-.03,2.29-.02,4.57.02,6.86.01.62.98.62.97,0-.05-2.29-.05-4.57-.02-6.86Z"/>
          <path class="cls-22" d="M380.45,104.28c-.27,0-.47.22-.48.48-.07,1.13-.14,2.25-.2,3.38-.02.26.23.48.48.48.27,0,.47-.22.48-.48.07-1.13.14-2.25.2-3.38.02-.26-.23-.48-.48-.48Z"/>
          <path class="cls-22" d="M380.05,97.62v4.04c0,.62.97.62.97,0v-4.04c0-.62-.97-.62-.97,0Z"/>
          <path class="cls-22" d="M384.8,98.13c-.04-.26-.37-.4-.59-.34-.28.07-.37.34-.34.59.18,1.3.16,2.62.13,3.93-.03,1.32-.06,2.64-.09,3.95-.01.62.95.62.97,0,.06-2.7.29-5.45-.08-8.14Z"/>
        </g>
        <path class="cls-22" d="M379.64,75.35c-.38-.36-.83-.64-1.33-.81-.55-.19-1.13-.19-1.7-.26-.91-.11-1.64-.67-2.01-1.5-.11-.24-.45-.29-.66-.17-.25.14-.28.42-.17.66.4.9,1.23,1.61,2.19,1.87.56.15,1.14.11,1.71.22.49.1.93.33,1.3.68.45.43,1.14-.26.68-.68Z"/>
        <path class="cls-22" d="M383.38,69.3c-.59-.53-1.41-1.26-1.09-2.15.09-.25-.1-.53-.34-.59-.27-.07-.51.09-.59.34-.35,1.01.23,2.01.93,2.7.59.58,1.55,1.17,1.66,2.07.03.26.2.48.48.48.24,0,.51-.22.48-.48-.12-1.02-.8-1.71-1.53-2.37Z"/>
        <path class="cls-22" d="M391.43,66.76c-.29-.54-.94-1.31-.48-1.92.16-.21.03-.54-.17-.66-.25-.14-.5-.04-.66.17-.55.74-.22,1.7.2,2.41.21.36.45.71.53,1.13.09.44.01.91-.05,1.34-.04.26.07.52.34.59.23.06.55-.08.59-.34.07-.47.15-.95.11-1.43-.04-.47-.18-.89-.4-1.3Z"/>
        <path class="cls-22" d="M400.18,66.23c-.07-.27-.34-.39-.59-.34-.91.18-1.72.83-2.09,1.68-.22.5-.27,1.04-.44,1.56-.1.32-.3.66-.59.76-.25.08-.41.33-.34.59.07.24.35.42.59.34.47-.16.83-.5,1.06-.94.24-.46.31-.97.44-1.46.21-.84.78-1.43,1.62-1.59.26-.05.4-.36.34-.59Z"/>
        <path class="cls-22" d="M404.53,70.62c-.83-.15-1.66.08-2.3.63-.31.27-.51.62-.7.98-.09.18-.18.36-.29.47-.07.07-.07.07-.15.11.04-.02-.02,0-.05.01,0,0-.09,0-.1,0-.26-.02-.48.24-.48.48,0,.28.22.46.48.48.48.04.9-.26,1.17-.62.13-.17.22-.36.32-.55.04-.09.09-.17.14-.26.03-.05.06-.09.08-.13,0-.01.02-.03.03-.04-.02.03-.02.03,0,0,.05-.06.11-.12.17-.18.03-.03.06-.06.09-.08.02-.02.02-.02.03-.03,0,0,.01,0,.03-.02.07-.05.14-.09.21-.13.04-.02.09-.05.13-.07.07-.03,0,0,.05-.02.09-.03.17-.06.26-.08.03,0,.06-.01.1-.02,0,0,.07,0,.09-.01.08,0,.15-.01.23-.01.05,0,.1,0,.15,0,.02,0,.02,0,.03,0,0,0,.01,0,.04,0,.26.05.52-.07.59-.34.06-.23-.08-.55-.34-.59Z"/>
        <path class="cls-22" d="M407.93,76.86c-.79-.28-1.65-.2-2.4.15-.38.18-.68.45-.98.73-.23.21-.52.47-.85.36-.25-.08-.53.1-.59.34-.07.26.09.51.34.59.43.14.9.03,1.27-.2.36-.22.62-.56.96-.79.59-.4,1.32-.48,2-.25.25.09.53-.1.59-.34.07-.27-.09-.51-.34-.59Z"/>
        <path class="cls-22" d="M408.24,85.55c-.47-.67-1.19-1.1-2.01-1.17-.38-.03-.76.05-1.14.11-.15.02-.32.04-.49.03-.14,0-.22-.05-.35-.14-.21-.16-.54-.03-.66.17-.14.25-.04.5.17.66.64.48,1.44.18,2.13.13.59-.04,1.18.21,1.52.69.15.21.42.31.66.17.21-.12.32-.45.17-.66Z"/>
        <path class="cls-22" d="M405.5,93.55c-.13-.42-.36-.81-.7-1.09-.38-.32-.82-.48-1.3-.59-.42-.09-.8-.17-1.15-.4-.3-.2-.53-.49-.7-.83-.11-.23-.45-.3-.66-.17-.24.14-.29.42-.17.66.38.8,1.13,1.37,1.98,1.58.4.1.83.14,1.19.35.28.17.49.45.58.76.18.59,1.11.34.93-.26Z"/>
        <path class="cls-22" d="M397.92,96.55c-.21-.37-.47-.7-.68-1.07-.18-.31-.37-.69-.31-1.07.04-.26-.07-.52-.34-.59-.23-.06-.55.08-.59.34-.14.85.23,1.57.69,2.26.21.31.43.62.57.96.06.14.11.3.12.45,0,.07.01.15,0,.22,0,.03-.01.06-.02.08-.39.26-.14,1,.4.86.48-.13.6-.69.58-1.13-.03-.47-.2-.9-.43-1.3Z"/>
      </g>
    </g>
  </g>
  <g id="TEXTS">
    <g>
      <text class="cls-31" transform="translate(583.97 135.38)"><tspan class="cls-39" x="0" y="0">P</tspan><tspan x="10.41" y="0">ASS</tspan></text>
      <text class="cls-33" transform="translate(451.19 142.12)"><tspan x="0" y="0">TICK</tspan><tspan class="cls-40" x="58.09" y="0">E</tspan><tspan x="73.97" y="0">T</tspan></text>
      <g>
        <text class="cls-29" transform="translate(632.29 76.69) rotate(.91)"><tspan class="cls-34" x="0" y="0">T</tspan><tspan x="10.7" y="0">icket</tspan></text>
        <text class="cls-30" transform="translate(632.29 96.4)"><tspan x="0" y="0">O</tspan><tspan class="cls-35" x="11.39" y="0">r</tspan><tspan class="cls-32" x="16.63" y="0">de</tspan><tspan class="cls-27" x="34.23" y="0">r</tspan><tspan x="39.47" y="0">ed</tspan></text>
      </g>
    </g>
  </g>
</svg>