<?xml version="1.0" encoding="UTF-8"?>
<svg id="Illustration" xmlns="http://www.w3.org/2000/svg" xmlns:xlink="http://www.w3.org/1999/xlink" viewBox="0 0 3710 3710">
  <defs>
    <style>
      .cls-1 {
        fill: #142254;
      }

      .cls-1, .cls-2, .cls-3, .cls-4, .cls-5, .cls-6, .cls-7, .cls-8, .cls-9, .cls-10, .cls-11, .cls-12, .cls-13, .cls-14, .cls-15, .cls-16, .cls-17, .cls-18, .cls-19, .cls-20, .cls-21, .cls-22, .cls-23, .cls-24, .cls-25, .cls-26, .cls-27, .cls-28, .cls-29, .cls-30, .cls-31, .cls-32 {
        stroke-width: 0px;
      }

      .cls-2 {
        fill: url(#linear-gradient-12);
      }

      .cls-3 {
        fill: #063e55;
      }

      .cls-4 {
        fill: url(#linear-gradient);
      }

      .cls-5 {
        fill: #000;
      }

      .cls-6 {
        fill: #b9d2db;
      }

      .cls-7 {
        fill: #ba0000;
      }

      .cls-8 {
        fill: url(#linear-gradient-6);
      }

      .cls-9 {
        fill: url(#Summer);
      }

      .cls-9, .cls-26 {
        opacity: .36;
      }

      .cls-10, .cls-31 {
        fill: #129197;
      }

      .cls-11 {
        fill: url(#linear-gradient-15);
      }

      .cls-12 {
        fill: url(#linear-gradient-11);
      }

      .cls-13 {
        fill: url(#linear-gradient-5);
      }

      .cls-14 {
        fill: none;
      }

      .cls-15 {
        fill: url(#linear-gradient-13);
      }

      .cls-16 {
        fill: #73bfbf;
      }

      .cls-17 {
        fill: #3a4f89;
      }

      .cls-18 {
        fill: url(#linear-gradient-14);
      }

      .cls-19 {
        fill: url(#linear-gradient-2);
      }

      .cls-20 {
        fill: url(#linear-gradient-7);
      }

      .cls-21 {
        fill: url(#linear-gradient-3);
      }

      .cls-33 {
        clip-path: url(#clippath);
      }

      .cls-22 {
        fill: url(#linear-gradient-9);
      }

      .cls-23 {
        fill: #111b47;
      }

      .cls-24 {
        fill: url(#linear-gradient-8);
      }

      .cls-25, .cls-27 {
        fill: #fff;
      }

      .cls-26 {
        fill: #f9f9f9;
      }

      .cls-27 {
        opacity: .43;
      }

      .cls-28 {
        fill: url(#linear-gradient-10);
      }

      .cls-29 {
        fill: #ce0000;
      }

      .cls-30 {
        fill: url(#linear-gradient-4);
      }

      .cls-31, .cls-32 {
        opacity: .75;
      }

      .cls-32 {
        fill: #7d97f4;
      }
    </style>
    <linearGradient id="linear-gradient" x1="574.88" y1="2311.77" x2="1749.56" y2="-12.78" gradientTransform="translate(-83.38 158.6) rotate(-9.99)" gradientUnits="userSpaceOnUse">
      <stop offset="0" stop-color="#09005d"/>
      <stop offset="1" stop-color="#1a0f91"/>
    </linearGradient>
    <linearGradient id="linear-gradient-2" x1="967.59" y1="1466.77" x2="636.87" y2="2068.5" gradientTransform="translate(194.72 -14.65)" xlink:href="#linear-gradient"/>
    <linearGradient id="linear-gradient-3" x1="910.04" y1="1529.05" x2="1085.19" y2="1187.96" gradientTransform="translate(134.25 -36.3)" xlink:href="#linear-gradient"/>
    <linearGradient id="linear-gradient-4" x1="1129.13" y1="1224.76" x2="1289.73" y2="912.03" gradientTransform="translate(80.95 -68.56)" xlink:href="#linear-gradient"/>
    <linearGradient id="linear-gradient-5" x1="-2171.87" y1="1791.38" x2="-857.85" y2="1791.38" gradientTransform="translate(678.95 183.77) rotate(170.62) scale(1 -1)" xlink:href="#linear-gradient"/>
    <clipPath id="clippath">
      <path class="cls-14" d="M2196.61,2548.1c-35.81,0-67.06-27.42-74.31-65.2l-268.28-1397.73c-4.14-21.59.07-43.25,11.87-60.99,11.44-17.2,28.55-28.46,48.18-31.69.6-.1,1.22-.2,1.85-.28l963.28-123.49c3.7-.51,7.06-.74,10.37-.74,36.84,0,68.26,28.32,74.71,67.34l227.68,1376.52c3.51,21.22-1.07,42.42-12.88,59.68-11.45,16.73-28.37,27.69-47.63,30.87l-922.71,144.7c-4.23.7-8.2,1.02-12.12,1.02Z"/>
    </clipPath>
    <linearGradient id="linear-gradient-6" x1="1999.63" y1="1804.52" x2="3505" y2="420.12" gradientUnits="userSpaceOnUse">
      <stop offset="0" stop-color="#e1473d"/>
      <stop offset="1" stop-color="#e9605a"/>
    </linearGradient>
    <radialGradient id="Summer" cx="2921.11" cy="854.16" fx="2921.11" fy="854.16" r="191.77" gradientTransform="translate(1459.55 -1815.36) rotate(45)" gradientUnits="userSpaceOnUse">
      <stop offset="0" stop-color="#fff"/>
      <stop offset=".09" stop-color="#ffecd8"/>
      <stop offset=".21" stop-color="#ffd4a7"/>
      <stop offset=".33" stop-color="#ffc07d"/>
      <stop offset=".46" stop-color="#ffb05a"/>
      <stop offset=".59" stop-color="#ffa340"/>
      <stop offset=".72" stop-color="#ff9a2d"/>
      <stop offset=".86" stop-color="#ff9421"/>
      <stop offset="1" stop-color="#ff931e"/>
    </radialGradient>
    <linearGradient id="linear-gradient-7" x1="1879.4" y1="2507.39" x2="1201.17" y2="2835.94" gradientTransform="translate(-1130.24 1266.89) rotate(-47.86)" gradientUnits="userSpaceOnUse">
      <stop offset="0" stop-color="#febbba"/>
      <stop offset="1" stop-color="#ff928e"/>
    </linearGradient>
    <linearGradient id="linear-gradient-8" x1="1590.07" y1="2575.19" x2="1012.14" y2="2256.67" gradientTransform="translate(-1130.24 1266.89) rotate(-47.86)" gradientUnits="userSpaceOnUse">
      <stop offset="0" stop-color="#fe7062"/>
      <stop offset="1" stop-color="#ff928e"/>
    </linearGradient>
    <linearGradient id="linear-gradient-9" x1="1439.21" y1="1827.12" x2="869.08" y2="2735.77" gradientTransform="matrix(1,0,0,1,0,0)" xlink:href="#linear-gradient-8"/>
    <linearGradient id="linear-gradient-10" x1="1486.85" y1="1819.56" x2="1536.29" y2="1678.57" gradientTransform="matrix(1,0,0,1,0,0)" xlink:href="#linear-gradient-7"/>
    <linearGradient id="linear-gradient-11" x1="-5117.21" y1="1525.72" x2="-5363.07" y2="1713.84" gradientTransform="translate(6781.98)" xlink:href="#linear-gradient-7"/>
    <linearGradient id="linear-gradient-12" x1="-5143.87" y1="1485.78" x2="-5390.64" y2="1674.6" gradientTransform="translate(6781.98)" xlink:href="#linear-gradient-7"/>
    <linearGradient id="linear-gradient-13" x1="1235.49" y1="2167.21" x2="1332.93" y2="1464.93" gradientTransform="matrix(1,0,0,1,0,0)" xlink:href="#linear-gradient-7"/>
    <linearGradient id="linear-gradient-14" x1="-3551.25" y1="1568.09" x2="-3330" y2="2071.48" gradientTransform="translate(-1724.13 539.25) rotate(174.68) scale(1 -1)" xlink:href="#linear-gradient-7"/>
    <linearGradient id="linear-gradient-15" x1="2316.9" y1="2005.15" x2="2373.62" y2="2005.15" gradientTransform="translate(-817.36 373.05) rotate(-17.48)" gradientUnits="userSpaceOnUse">
      <stop offset="0" stop-color="#f9b776"/>
      <stop offset="1" stop-color="#f47960"/>
    </linearGradient>
  </defs>
  <path class="cls-6" d="M2894.99,2857.45c-71.45,73.65-135.38,116.94-184.33,149.62-477.38,318.75-1023.08,226.88-1191.79,195.48-272.2-50.66-501.98-86.4-699.4-264.76-448.6-405.29-426.78-1250.75-83.99-1774.48,40.64-62.1,382.91-569.44,929.78-640.93,13.38-1.75,23.36-2.74,32.1-3.67,84.6-8.96,608.85-56.23,1036.33,301.91,61.19,51.27,159.67,143.74,250.98,284.77,333.9,515.68,334.96,1314.35-89.68,1752.06Z"/>
  <g>
    <path class="cls-10" d="M657.36,505.16c5.87-16.88,30.52-14.66,33.21,3,26.02,170.78,108.26,616.47,288.02,869.72,292.68,412.34,443.76,1042.04,188.74,1327.21,0,0-1149.4-360.99-509.97-2199.93Z"/>
    <path class="cls-27" d="M665.63,745.36c-.06,4.39.22,9.3.38,14.02l.73,14.27,1.78,28.54c1.29,19.03,2.79,38.04,4.33,57.04,3.2,38.01,6.88,75.97,10.91,113.9,7.97,75.86,17.4,151.56,28.29,227.05,22.02,150.93,48.92,301.18,83.37,449.73,17.51,74.19,35.8,148.22,56.99,221.45,2.5,9.2,5.21,18.33,8,27.44l8.25,27.37,8.25,27.37c2.82,9.1,5.86,18.13,8.78,27.2,5.96,18.1,11.64,36.29,17.82,54.31l18.89,53.95c1.58,4.49,3.09,9.01,4.74,13.48l5.04,13.37,10.08,26.74,10.08,26.74c3.47,8.87,7.18,17.65,10.76,26.47l10.82,26.45c3.69,8.78,7.04,17.71,11.04,26.36l23.25,52.21c31.9,69.21,67.08,136.9,106.13,202.41v.02c.49.8.23,1.83-.57,2.3-.79.47-1.8.22-2.28-.55-40.54-64.79-76.58-132.3-109.58-201.25l-23.79-52.16c-4.1-8.64-7.54-17.56-11.31-26.33l-11.1-26.43c-3.67-8.82-7.47-17.59-11.03-26.46l-10.36-26.73-10.36-26.73-5.18-13.37c-1.7-4.47-3.25-8.98-4.88-13.48-52.24-143.69-94.17-290.97-128.38-439.88l-12.54-55.92-11.69-56.09c-4.03-18.67-7.4-37.47-11.11-56.21l-5.44-28.13-5.08-28.19c-13.66-75.16-25.78-150.6-35.97-226.3-10.26-75.69-19.31-151.54-26.42-227.58-3.5-38.03-6.66-76.08-9.35-114.17-1.28-19.05-2.52-38.1-3.55-57.17l-1.38-28.61-.53-14.32c-.08-4.82-.33-9.45-.15-14.6.03-.92.81-1.64,1.73-1.61.91.03,1.62.78,1.61,1.68v.37Z"/>
  </g>
  <g>
    <path class="cls-16" d="M1000.95,458.67c6.76-8.1,19.91-1.73,17.71,8.58-21.26,99.73-68.81,362.98-22.38,540.31,75.6,288.73,27.68,667.96-172.62,772.22,0,0-559.37-439.08,177.29-1321.12Z"/>
    <path class="cls-27" d="M956.01,593.36c-.86,2.28-1.74,5.11-2.61,7.73l-2.51,8.04-4.85,16.16c-3.18,10.79-6.3,21.6-9.36,32.43-6.07,21.67-11.87,43.42-17.47,65.21-11.27,43.57-21.75,87.34-31.36,131.3-19.02,87.95-35.57,176.45-47.4,265.62-5.73,44.59-11.17,89.24-14.78,134.05-3.58,44.8-6.16,89.7-6.92,134.63-.73,44.92-.28,89.9,2.78,134.73,2.94,44.84,8.08,89.52,15.64,133.88v.02c.16.91-.46,1.78-1.37,1.94-.89.15-1.74-.43-1.93-1.31-9.21-44.2-15.2-89.03-19.27-134.01-3.76-45.02-4.9-90.21-4.86-135.37,1.01-90.33,8.42-180.5,20.66-269.93,6.03-44.73,13.53-89.24,21.65-133.62,8.16-44.37,17.26-88.57,27.58-132.49,10.25-43.92,21.18-87.69,33.26-131.14,6.08-21.72,12.36-43.37,18.91-64.95,3.31-10.78,6.63-21.55,10.11-32.28l5.33-16.06,2.76-8.01c.99-2.69,1.81-5.24,3.07-8.18.36-.85,1.34-1.24,2.19-.87.82.35,1.21,1.29.9,2.11l-.13.36Z"/>
  </g>
  <g>
    <g>
      <path class="cls-23" d="M1402.65,1899.48c-93.65-531.54,86.91-1030.32,421.29-1267.22-110.58-30.32-225.26-36.03-340.48-16.99-591.14,97.67-855.32,719.29-735.46,1399.56,119.86,680.27,643.46,1156.6,1169.5,1063.92,115.01-20.26,220.61-66.05,314.17-132.34-395.21-108.36-735.37-515.38-829.02-1046.93Z"/>
      <path class="cls-4" d="M1823.94,632.26c-110.58-30.32-225.26-36.03-340.48-16.99-532.2,87.94-799.38,600.55-759.9,1198.3,6.91,104.7,95.01,182.34,187.54,166.04l328.73-57.92c87.14-15.35,147.89-100.92,141.52-199.52-29.88-462.83,145.72-879.58,442.59-1089.91Z"/>
      <path class="cls-1" d="M1823.94,632.26c-110.58-30.32-225.26-36.03-340.48-16.99-532.2,87.94-799.38,600.55-759.9,1198.3,6.91,104.7,95.01,182.34,187.54,166.04l328.73-57.92c87.14-15.35,147.89-100.92,141.52-199.52-29.88-462.83,145.72-879.58,442.59-1089.91Z"/>
      <ellipse class="cls-19" cx="1046.59" cy="1662.54" rx="152.63" ry="116.46" transform="translate(-272.6 206.82) rotate(-9.99)"/>
      <path class="cls-23" d="M2322.82,1737.35c93.65,531.54-110.83,1108.27-445.21,1345.18,160.71-25.08,249.4-40.7,364.41-60.97,526.04-92.68,855.32-719.29,735.46-1399.56-119.86-680.27-643.46-1156.6-1169.5-1063.92-115.01,20.26-364.92,41.62-490.29,86.38,519.97,57.41,911.49,561.34,1005.14,1092.88Z"/>
      <path class="cls-3" d="M1299.26,709.24h0c1.5-.26,2.99-.52,4.49-.76,99.73-16.35,201.73-3.11,303.16,39.37,99.67,41.74,194.77,109.79,282.66,202.27,89.11,93.77,166.27,207.86,229.31,339.11,65.71,136.79,113.16,286.38,141.04,444.62,28.17,159.86,36.6,317.85,25.07,469.6-11.2,147.4-40.69,282.52-87.63,401.61-46.76,118.6-108.69,215.71-184.08,288.61-77.24,74.7-166.31,121.37-264.73,138.71-99.4,17.51-203.01,4.5-307.95-38.68-103.31-42.51-202.57-111.82-295.04-206.01-93.97-95.72-175.15-211.29-241.27-343.49-69.26-138.49-118.43-288.45-146.15-445.74-27.35-155.22-31.88-311.78-13.45-465.31,17.32-144.33,53.89-279.17,108.7-400.77,52.33-116.09,120.56-215.97,197.31-288.85,77.65-73.72,161.27-118.9,248.56-134.28h0ZM1288.74,649.54c-394.56,69.54-701.95,688.73-583.98,1358.32,118.48,672.46,609.73,1162.54,1054.31,1084.21,444.58-78.33,699.39-691.77,580.91-1364.22-118.48-672.46-600.69-1152.2-1046.18-1079.17-1.7.28-3.37.56-5.07.86h0Z"/>
      <ellipse class="cls-21" cx="1140.18" cy="1305.87" rx="152.63" ry="116.46" transform="translate(-209.29 217.65) rotate(-9.99)"/>
      <ellipse class="cls-30" cx="1298" cy="984.87" rx="152.63" ry="102.1" transform="translate(-151.2 240.16) rotate(-9.99)"/>
    </g>
    <g>
      <path class="cls-13" d="M2147.97,2652.74l984.44-160.63c82.19-13.54,115.08-83.66,101.09-168.26l-233.54-1411.91c-13.75-83.1-89.35-140.44-170.41-129.24l-1004.21,129.51c-85.57,11.83-143.3,95.06-126.51,182.38l275.71,1433.58c15.89,82.62,92.79,137.85,173.43,124.57Z"/>
      <path class="cls-5" d="M3149.19,2441.64c62.18-10.24,104.04-71.39,93.3-136.3l-227.68-1376.52c-10.65-64.37-67.48-108.11-129.4-99.57l-963.62,123.54c-.98.13-1.96.28-2.93.44-30.64,5.05-57.22,22.42-74.84,48.91-17.61,26.48-23.93,58.63-17.81,90.53l268.28,1397.73c12.28,63.97,70.12,106.13,131.68,95.99l923.01-144.74Z"/>
      <g class="cls-33">
        <g>
          <path class="cls-31" d="M3019.53,950.38c-6.97-35.41-40.84-58.86-76.44-52.92l-277.61,46.31c-36.7,6.12-61.3,41.08-54.67,77.69l70.28,388.27c5.84,32.29,36.76,53.72,69.04,47.88l356.54-64.54-87.15-442.69Z"/>
          <path class="cls-31" d="M3241.41,2421.86c36.05-7.21,59.48-42.23,52.38-78.31l-39.13-198.77c-149.34,27.75-474.29,93.74-633.79,126.3-22.94,4.68-38.11,26.59-34.45,49.71l24.74,156.32c5.92,37.44,41.81,62.43,78.98,54.99l551.28-110.25Z"/>
          <path class="cls-31" d="M2476.19,983.26l84.76,468.25c3.91,21.58-10.42,42.23-31.99,46.14l-261.25,47.29c-9.36,1.69-19.01-.03-27.21-4.85l-335.93-197.74c-10.38-6.11-17.42-16.6-19.15-28.52l-36.52-252.12c-3.2-22.08,12.42-42.46,34.57-45.11l548.94-65.68c20.85-2.49,40.04,11.68,43.78,32.35Z"/>
          <path class="cls-31" d="M1863.48,1476.61l357.84,181c5.91,2.99,12.67,3.87,19.15,2.5l244.45-51.71c24.04-5.09,43.16,20.09,31.81,41.89l-136.44,261.98c-2.98,5.72-3.97,12.27-2.82,18.61l42.45,234.5c2.86,15.81-7.63,30.94-23.44,33.8l-344.52,62.36c-15.42,2.79-30.28-7.14-33.6-22.46l-164.58-759.55,9.7-2.93Z"/>
          <path class="cls-31" d="M2070.29,2346.59c85.88-13.44,264.62-39.59,344.6-51.24,23.01-3.35,44.93,10.88,51.23,33.27l61.9,219.71c8.02,28.46-12.34,57.05-41.86,58.78l-366.76,21.5c-22.95,1.35-43.41-14.35-48.06-36.86l-39.22-190.06c-5.35-25.9,12.03-51.01,38.17-55.1Z"/>
          <path class="cls-31" d="M2613.14,2159.83l570.24-147.62c24.31-6.29,39.5-30.44,34.65-55.08l-82.84-420.82c-5.09-25.87-30.3-42.62-56.12-37.29-107.26,22.15-254.09,52.52-344.52,71.23-14.55,3.01-26.56,12.8-33.21,26.09-.03.07-.07.13-.1.2l-158.4,313.9c-10.79,21.38-14.58,45.61-10.84,69.26l22.41,141.63c4.38,27.65,31.63,45.52,58.73,38.5ZM2741.08,1881.75l81.04-185.22c5.16-11.8,15.87-20.26,28.55-22.56l181.45-32.85c21.02-3.81,41.14,10.15,44.95,31.17l27.04,149.37c3.66,20.22-9.13,39.78-29.13,44.52l-289.53,68.69c-31.04,7.37-57.15-23.91-44.36-53.14Z"/>
        </g>
        <path class="cls-29" d="M2492.1,1904.27c-11.46,0-22.43-5.13-29.8-14.28-8.98-11.13-11.03-26.21-5.34-39.33l126.39-291.67-343.57,63.11c-9.17,1.69-18.62-.02-26.61-4.8l-400.53-239.54c-10.35-6.19-13.73-19.6-7.53-29.95,6.19-10.36,19.61-13.72,29.95-7.53l398.81,238.5,351.42-64.55c13.96-2.58,28.12,2.75,36.95,13.85,8.83,11.11,10.81,26.1,5.17,39.12l-126.32,291.51,421.43-83.59-9.57-110.7c-1.04-12.02,7.86-22.61,19.88-23.64,11.99-1.03,22.6,7.86,23.64,19.88l9.99,115.46c1.7,19.52-11.52,37.12-30.75,40.93l-436.07,86.5c-2.51.5-5.02.74-7.51.74Z"/>
      </g>
    </g>
  </g>
  <g>
    <circle class="cls-29" cx="2922.73" cy="1549.69" r="64.2"/>
    <g>
      <path class="cls-8" d="M3246.23,840.9c0,122.09-183.89,433.58-279.69,587.23-7.43,11.92-23.45,19.16-53.1,19.16-14.05,0-8.52-7.27-15.96-19.19-95.8-153.66-279.67-465.12-279.67-587.2,0-159.2,140.67-288.26,314.21-288.26s314.21,129.06,314.21,288.26Z"/>
      <path class="cls-7" d="M3227.65,840.9c0,122.09-183.89,433.58-279.69,587.23-7.43,11.92-20.49,19.17-34.54,19.16-14.05,0-27.08-7.27-34.51-19.19-95.8-153.66-279.67-465.12-279.67-587.2,0-159.2,140.67-288.26,314.21-288.26s314.21,129.06,314.21,288.26Z"/>
      <circle class="cls-9" cx="2921.11" cy="854.16" r="191.77" transform="translate(251.59 2315.71) rotate(-45)"/>
      <circle class="cls-26" cx="2902.53" cy="835.31" r="139.43"/>
      <path class="cls-25" d="M2913.44,1099.92c-129.93,0-235.63-105.7-235.63-235.63,0-3.71,3.01-6.72,6.72-6.72s6.72,3.01,6.72,6.72c0,122.52,99.67,222.19,222.19,222.19s222.19-99.67,222.19-222.19-99.67-222.19-222.19-222.19c-70.84,0-135.8,32.61-178.22,89.48-2.22,2.97-6.42,3.59-9.41,1.37-2.97-2.22-3.59-6.43-1.37-9.41,44.98-60.29,113.86-94.88,188.99-94.88,129.93,0,235.63,105.71,235.63,235.63s-105.71,235.63-235.63,235.63Z"/>
    </g>
  </g>
  <g>
    <g>
      <path class="cls-32" d="M1592.79,3241.43c3.49,8.7,12.35,14.15,21.74,13.52,36.95-2.48,135.14-13.92,198.66-66.41,4.19-3.47,4.55-9.32,1.61-13.31-16.38,13.25-43.53,28.72-88.46,44.93-69.05,24.92-109.9,25.57-133.55,21.27Z"/>
      <path class="cls-5" d="M1600.65,3163.17s-23.97,36.25-8,77.97c.04.1.1.19.14.3,23.65,4.3,64.5,3.65,133.55-21.27,44.93-16.21,72.08-31.68,88.46-44.93-.93-1.26-2.18-2.34-3.75-3.09-34.71-16.45-132.06-54.58-210.39-8.96Z"/>
    </g>
    <path class="cls-17" d="M1325.84,2555.14c4.39,9.94,231.21,150.65,231.21,150.65-29.6,105.05-10.56,289.61,16.16,486.7,48.97,8.41,86.32-12.37,116.61-50.9l7.97-478.31c.16-9.38-2.56-18.57-7.81-26.34-65.15-96.37-171.35-210.55-282.24-326.78l-81.89,244.97Z"/>
    <g>
      <path class="cls-32" d="M610.46,2838.28c-7,5.62-9.92,16.28-7.31,26.17,10.27,38.93,41.88,141.3,102.55,197.69,4.01,3.72,9.31,2.83,12.22-1.19-15.39-14.61-35.1-40.23-59.36-84.68-37.28-68.31-46.77-111.8-48.09-137.99Z"/>
      <path class="cls-5" d="M681.97,2829.61s-37.55-17.7-71.28,8.45c-.08.07-.15.15-.23.22,1.32,26.19,10.81,69.68,48.09,137.99,24.26,44.45,43.97,70.07,59.36,84.68.92-1.27,1.62-2.83,1.94-4.69,7.1-40.66,19.88-152.94-37.88-226.66Z"/>
    </g>
    <path class="cls-17" d="M1437.06,2340.99c-61.44,65.56-88.07,140.02-111.22,214.15l-158.94,245.12c-6.42,9.7-16.45,16.44-27.86,18.73l-435.49,87.16c-37.45-26.18-57.24-58.36-51.67-99.13,159.07-59.24,325.87-125.32,411.21-119.29,26.33-154.07,47.24-336.03,93.77-386.07l278.63,16.69,1.56,22.64Z"/>
    <path class="cls-10" d="M1260.17,2254.37l-76.33-34.57c-26.73-12.11-43.55-39.12-42.61-68.45l12.31-387.08c1.81-56.84,50.72-100.66,107.42-96.23l160.67,12.56c26.79,2.09,45.79,27.05,40.68,53.43l-100.84,520.33h-101.3Z"/>
    <path class="cls-20" d="M1982.42,1627.12c-.58,18.17-4.74,76.16-48.81,129.09-38.53,46.27-85.84,62.56-104.22,67.86.81,11.63,4.28,37.7,23.28,62.23,9.76,12.6,20.54,20.82,28.67,25.94,45.17-24.35,72.22-52.59,88.98-75.32,60.37-81.84,69.62-203.71,69.62-203.72h0l-57.53-6.08Z"/>
    <path class="cls-24" d="M1633.78,1760.45l47.07,152.52c23.94,11,64.58,25.98,116.93,27.93,28.52,1.06,53.61-2,74.1-6.27,14.22-2.97,21.37-18.83,14.57-31.67-4.19-7.91-8.3-16.6-12.14-26.07-10.34-25.55-15.36-48.77-17.88-66.9-74.22-16.51-148.44-33.03-222.65-49.54Z"/>
    <path class="cls-22" d="M1358.4,1693.69c-69.11,3.85-177.58,66.77-239.5,152.69-11.58,16.07,66.65,103.5,89.17,94.74,41.1-15.98,95.16-77.83,106.31-73.91-14.76,166.91-64.26,279.51-110.39,354.08-29.08,47-61.44,86.34-47.4,113.23,23.18,44.4,155.68,21.81,273.38-7.49l227.04-355.77c24.42-38.26,40.47-82.15,46.91-128.29l8.97-64.18s-203.91-93.48-354.49-85.1Z"/>
    <path class="cls-28" d="M1511.76,1599.19l-59.32,127.06c-3.62,7.75-2.54,17.12,2.77,23.6,14.36,17.51,48.29,45.94,107.29,25.56,6.51-2.25,11.19-8.51,12.18-15.89l15.45-115.39-78.37-44.93Z"/>
    <g>
      <path class="cls-12" d="M1651.84,1433.64s40.86,102.72,43.6,156.63c2.74,53.91,13.36,88.9-43.6,99.75-56.96,10.86-104.95-20.2-130.95-73.9,0,0-40.73-82.75-31.6-116.64,9.14-33.89,162.54-65.84,162.54-65.84Z"/>
      <path class="cls-5" d="M1476.94,1452.3c-36.36,39.14-37.36,64.02-34.07,77.73,3.14,13.09,14.28,27.47,36.55,56.24,4.11,5.31,11.73,19.73,24.79,37.15,2.83,3.78,4.73,7.54,5.87,11.22,4.89.11,8.5-.51,10.79-1.15,1.82-.51,3.04-2.33,2.93-4.38l-1.58-27.98c-19.01-17.47-14.76-55.45,12.66-63.81-3.07-16.44-2.67-32.85,9.08-38.12,26.07-11.7,129.34-34.75,151.62-74.85,6.61-11.9,9.35-24.86,9.17-37.51-79.73-.74-168.41,8.16-227.81,65.45Z"/>
      <path class="cls-2" d="M1542.13,1587.37s-15.59-65.62-42.47-47.22c-26.88,18.4,13.95,73.52,35.56,75.97l6.91-28.76Z"/>
    </g>
    <path class="cls-15" d="M1377.57,2224.28c-18.24-18.25-57.98-25.91-76.53-28.59-20.7-18.81-47.77-48.19-69.4-90.01-41.31-79.85-24.89-164.33-30.46-164.33-15.41,0-64.55-57.49-76.88-73.01,0,0-23.05,69.59-20.16,124.51,7.98,151.39,165.3,229.97,173.17,233.76,9.8,44.03,53.09,82.11,68.57,83.55,7.13.66,55.94-61.62,31.7-85.88Z"/>
    <path class="cls-10" d="M1235.31,2075.41c39.78-12.41,168.64-401.92,101.55-385.78,24.81-13.39,63.35-8.15,104.03,0-6.78,145.51-88.27,285.86-182.23,422.49l-23.36-36.71Z"/>
    <g>
      <path class="cls-18" d="M2015.29,1644.82c2.26,5.38-17.16,15.71-31.17-5.86-1.43-10.83-12.38-56.8-6.71-66.26,30.2-50.4,91.78-115.79,91.78-115.79,12.38,10.13,4.06,21.99,4.06,21.99l-29.38,36.94c7.95,11.67,17.22,21.28,22.5,35.79,4,10.99,3.32,23.2-1.42,33.99-4.75,10.82-11.3,24.93-17.69,36.09-12.1,21.12-31.97,23.12-31.97,23.12Z"/>
      <path class="cls-11" d="M2028.25,1619.97l-3.35-.28c.17-2.07,4.35-50.94,10.03-62.46,2.4-4.88,3.09-8.74,2.03-11.49-.73-1.89-2.33-3.39-4.89-4.59l-26.2,26.77-6.86,25.47-3.24-.87,7.09-26.32,28.41-29.02,1.04.41c4.07,1.62,6.62,3.9,7.79,6.94,1.42,3.7.72,8.34-2.16,14.17-5.4,10.96-9.66,60.76-9.7,61.26Z"/>
    </g>
  </g>
</svg>