<?xml version="1.0" encoding="UTF-8"?>
<svg id="Capa_1" data-name="Capa 1" xmlns="http://www.w3.org/2000/svg" xmlns:xlink="http://www.w3.org/1999/xlink" viewBox="0 0 4783.82 3546.46">
  <defs>
    <style>
      .cls-1 {
        fill: url(#linear-gradient);
      }

      .cls-1, .cls-2, .cls-3, .cls-4 {
        stroke-width: 0px;
      }

      .cls-2 {
        fill: #ed2024;
      }

      .cls-3 {
        fill: #8ec6c6;
      }

      .cls-4 {
        fill: #ac1f23;
      }
    </style>
    <linearGradient id="linear-gradient" x1="2900.45" y1="1269.5" x2="2900.45" y2="503.09" gradientTransform="translate(39.57 -105.19) rotate(1.76)" gradientUnits="userSpaceOnUse">
      <stop offset="0" stop-color="#ef4956"/>
      <stop offset=".19" stop-color="#ea4653"/>
      <stop offset=".41" stop-color="#db3d4e"/>
      <stop offset=".66" stop-color="#c32f44"/>
      <stop offset=".91" stop-color="#a21c36"/>
      <stop offset="1" stop-color="#951531"/>
    </linearGradient>
  </defs>
  <path class="cls-3" d="M3779.14,1734.26c93.23,100.4,227.12,136.5,353.45,103.97,119.76-30.84,261.99-21.88,407.16,89.58,280.99,215.73,293.6,599.75,167.52,837.33-65.43,123.29-86.43,269.9-53.18,408.26,29.06,120.93,4.94,256.47-204.81,318.72-423.36,125.64-2747.54,1.62-3044.45-54.49-296.91-56.11-1404.63-365.51-701.94-778.77,0,0-1218.08-1465.32-447.23-2255.56,697.79-715.34,1425.41-313.18,1758.6-53.54,125.42,97.73,275.6,148.11,428.58,143.47,389.82-11.83,1111,80.57,1081.88,931.77-3.9,113.97,61.09,216.04,158.86,249.73,34.89,12.02,68.82,30.73,95.56,59.53Z"/>
  <g>
    <path class="cls-2" d="M3169.2,138.35c-6.5-.38-13.02-.67-19.57-.87s-13.07-.31-19.58-.34c-507.33-1.84-853.55,553.73-662.43,1056.47l564.96,1082.11c21.95,42.03,128.92,45.33,153.41,4.72l630.47-1045.31c221.68-490.02-140.78-1067.42-647.26-1096.79ZM3044.66,1257.43c-197.38-6.08-352.11-182.49-345.6-394.03,6.51-211.54,171.8-378.1,369.18-372.02,197.38,6.08,352.11,182.49,345.6,394.03-6.51,211.54-171.8,378.1-369.18,372.02Z"/>
    <path class="cls-4" d="M3220.28,139.93c-6.5-.38-64.1-2.24-70.64-2.44-6.54-.2-13.07-.31-19.58-.34-17.18-.06-34.16.54-50.96,1.73,476.19,63.43,759.6,616.93,545.43,1090.36l-590.57,979.17c-12.04,19.97-12.82,45.38-2.03,66.05l.67,1.27c21.95,42.03,128.92,45.33,153.41,4.72l630.47-1045.3c221.68-490.02-89.71-1065.85-596.19-1095.22Z"/>
    <path class="cls-1" d="M3044.66,1257.43c22.99.71,45.53-.95,67.44-4.73-164.2-38.8-284.33-198.26-278.57-385.16,5.75-186.9,135.47-338.67,301.74-367.29-21.64-5.11-44.04-8.16-67.02-8.87-197.38-6.08-362.67,160.48-369.18,372.02-6.51,211.54,148.22,387.95,345.6,394.03Z"/>
  </g>
  <image width="755" height="476" transform="translate(534.94 1038.12) scale(4.87)" xlink:href="../../../../../../Downloads/HeroTrain.png"/>
</svg>