<?xml version="1.0" encoding="UTF-8"?>
<svg version="1.1" viewBox="0 0 1936 1303" width="1280" height="1280" xmlns="http://www.w3.org/2000/svg">
<path transform="translate(1296,49)" d="m0 0 28 1 22 4 20 6 13 5 16 8 11 7 11 8 14 12 7 7 9 11 8 11 12 21 9 23 5 18 3 19v40l-3 18-7 23-6 16-5 11-6 13-8 17-12 22-8 15-7 12-5 9-10 17-6 9-7 11-11 17-18 27-15 20-10 14-21 28-4 6h-2l-2 5-10 13-2 2-4-1-13-20-14-22-9-15-11-16-9-14-8-12-6-10-25-40-7-11-8-13-12-20-7-12-6-11-8-15-13-28-7-17-6-18-5-20-2-21v-18l2-19 3-14 5-17 9-22 8-14 8-12 9-11 4-5h2l2-4 4-4h2l1-3 17-13 19-12 25-11 20-6 15-3zm-10 72-18 4-16 6-14 8-5 5-9 7-9 9-1 4h-2l-8 12-7 14-5 13-3 13-1 11v22l2 12 4 16 8 16 6 9 9 11 7 7 16 12 14 7 9 4 11 3 14 2h21l20-3 15-5 17-9 13-10 5-4v-2l3-1v-2h2l11-14 9-16 6-15 3-13v-38l-4-16-7-18-10-17h-2l-3-6h-2l-2-4-8-8h-2v-2l-12-8-13-7-13-5-20-4z" fill="#06415B"/>
<path transform="translate(1242,693)" d="m0 0h8l3 5 4 16 4 15 6 21 4 15 9 36 3 9 4 22 2 9v11l-6 5-3 1-282 1-8-1-2-3 1-16 6-35 3-32 3-7 5-3 33-7 36-9 41-11 26-8 37-12 42-14 17-6z" fill="#45A4B1"/>
<path transform="translate(1030,56)" d="m0 0h32l8 1-4 2-8 2-19 1-10 3-20 1-10 1v2l-3 1-18 2-21 2-18 4-20 2-5 2-10 2-18 2-14 4-16 3-12 3-18 5-11 2-9 4-12 3-16 6-9 4-26 13-10 7-13 9-10 10-5 8-2 8v8l3 7 7 9 8 7v2l5 2 10 6 9 5 10 6 11 4 11 6v4l-26 1h-16l-13-8-7-5-5-3-14-10-4-4-4-2-9-11-6-8-2-7v-11l3-7 4-5 5-8 10-10 10-7 11-6 19-10 20-7 9-4 12-3 11-4 14-4 26-6 2-1 19-3 11-3 14-2 13-3 23-3 23-4 32-4 3-2 31-1h-40l-22 2-9 2-20 1-12 2-15 1-7 2-11 1-6 2-14 1-9 2-12 2-14 2-30 6-14 4-21 5-25 7-27 9-27 12-19 12-9 8-8 12-3 10 1 9 4 9 6 9 12 12 12 8 19 12 10 6 22 13 10 6 11 7 7 4 14 9 30 20 24 18 13 11 10 9 3 2v2l4 2 8 8 3 2v2l3 1v2l3 1 7 8 8 9 5 6v2h2l9 13 8 11 11 18 7 12 11 23 8 21 6 18 6 21 4 21 2 11 3 24 1 18v55l-1 24-4 38-3 22-5 30-15 75-5 20-3 4h-58l-2-1 1-10 7-20 5-17 7-23 6-22 4-17 4-15 4-20 5-26 5-34 3-33v-82l-3-25-5-27-4-15-6-18-8-21-12-24-9-15-8-12-13-17-3-3v-2h-2l-7-8-20-20-8-7-8-6v-2l-4-2-24-18-10-7-31-20-15-9-27-16-8-5-17-11-12-8-19-14-11-10-10-13-4-9 1-9 5-10 9-10 10-9 18-10 8-4 15-6 16-6 17-5 13-4 9-2 21-5 15-4 26-5 2-1 14-2 2-1 11-1 6-2 16-2 3-1 14-1 9-2 15-1v-1l-17-2v-1h22l3 1h14l1-1 31-2 2-1 14-1 9-3h13l39-2 19-2z" fill="#0A455E"/>
<path transform="translate(1287,682)" d="m0 0h8l12 5 16 6 7 4 13 4 11 4 32 12 21 9 29 11 12 5 30 11 16 7 18 7 8 5 10 5 6 4 5 4 9 15 7 12 5 12 6 11 6 14-1 7-9 2h-213l-6-3-3-9-10-39-2-6-2-10-6-19-3-11-3-7-5-15-11-25-8-17-5-13z" fill="#49A5B2"/>
<path transform="translate(731,74)" d="m0 0h20v1l-16 2-2 1-18 2-1 1-17 2-11 2-25 4-19 4-12 2-13 3-22 5-26 8-19 6-2 2-9 3-16 7-9 5-11 7-10 8-8 10-4 8v18l6 12 9 11 13 11 2 1v2l4 2 17 11 16 11 27 18 19 14 17 14 15 14 9 9 9 11 8 10 6 9 9 19 5 14 3 16v37l-6 31-7 21-4 14-12 29-12 25-11 21-10 17-12 19-10 16-7 9-12 16-8 11-11 14-10 13h-2l-2 4-9 11-13 15-6 7h-2l-2 4-12 13-15 16-11 11-1 2h-2l-1 3h-2v2l-5 4-5 6h-2v2h-2l-1 3-3 3h-2l-1 3-8 7-10 10-8 7-11 11h-2v2l-8 7-14 13-6 5-3 1h-60l-2-1 1-4 20-16 13-10 10-8 13-11 14-12 10-8 12-11 11-9 7-7 11-9 6-6h2v-2l8-7 5-5h2l2-4 13-13h2l1-3h2l1-3h2l2-4 37-37 9-11 12-13 9-11 20-25 1-5-13-5-21-7-18-7-12-3-32-9-17-5-28-8-22-7-13-4-2-4 4-1 59 3 42 4 26 2 16 2 19 2 24 2 7 1h16l6-8 12-21 7-12 9-16 10-24 7-21 3-13 2-18v-28l-2-16-5-18-4-9-11-20-9-12-7-8v-2l-3-1v-2h-2l-4-4v-2h-2v-2l-4-2-13-11-15-11-13-9-21-14-11-7-15-9-26-17-14-11-8-7-1-3h-2l-7-9-5-10-1-12 2-8 6-10 8-8 13-9 14-8 16-7 9-4 16-6 18-6 18-4 18-5 21-4 20-4 16-3 17-2 25-4 13-1 16-2z" fill="#0B465F"/>
<path transform="translate(30,1026)" d="m0 0h94l16 3 18 6 16 8 11 8 12 11 8 9 8 12 4 8 5 11 4 15 2 11v30l-3 16-6 17-9 16-10 13-7 7-16 12-16 8-3 2-21 6-103 1-6-2-1-44v-35l1-148zm43 40-1 2v134l1 13 1 1h43l12-1 12-4 10-5 10-8 7-7 8-13 4-10 2-7 1-11v-15l-2-13-5-15-6-10-11-12-11-8-12-6-9-3-11-2z" fill="#06425B"/>
<path transform="translate(975,1026)" d="m0 0h82l20 2 20 6 11 6 14 12 7 10 5 8 6 21v22l-3 13-8 15-8 10-14 11-14 7-4 1 1 7 10 14 7 14 4 5 5 10 8 10 10 14 1 5h2l1 5-2 1h-31l-10-1-6-3-6-7-5-7-4-7-13-20-8-13-7-11-3-6-1-1-16-1h-11v70l-2 6-3 1h-38l-1-1-1-27v-189l1-10zm45 39-6 2v68l1 2 4 1h25l24-1 10-3 11-6 6-10 2-7v-16l-3-11-4-6-8-6-8-4-8-2-20-1z" fill="#4EA8B4"/>
<path transform="translate(783,76)" d="m0 0h14v2l-16 2-2 1-15 2-12 2-13 3-10 2-11 1-19 4-11 2-5 2-9 2-22 5-6 2-10 3-21 7-13 5-15 7-18 10-9 7-9 8-6 9-3 7v12l4 10 7 11 2 4h2l4 5 8 7 4 3v2l4 2 15 12 9 7v2l4 2 16 14 3 2v2l4 2 28 28v2h2l7 8 8 10v2h2l7 10v2h2l13 23 8 18 8 24 3 16 2 20v32l-3 25-6 29-7 24-3 9-10 28-8 19-16 32-11 21-13 23-7 10-8 13-10 15-14 20-10 14-6 9h-2l-2 5-7 9-10 14-10 12-10 13-13 16-6 8h-2l-2 4-8 10-5 6-6 5-5 1h-56l-3-1 1-5 31-31 2-3h2l2-4 20-20 1-2h2l2-4 9-10 12-13 7-8 9-10 14-17 13-16 1-2h2l2-4 18-24 14-19 13-19 9-14 13-21 14-25 10-21 7-15 8-20 10-31 5-20 3-16 3-27v-17l-1-14-2-15-4-15-6-16-8-16-12-17-10-13-16-17-4-4v-2l-4-2-9-9-9-7v-2l-4-2-13-11-14-11-15-12-9-7-8-6-5-5-12-11-8-9-6-12-1-3v-8l4-9 5-8h2l1-3 11-9 14-9 15-8 12-5 15-6 24-8 13-4 20-5 17-4 16-3 9-2 13-2 7-2 9-2 16-2 16-3 5-1 15-1z" fill="#0D4861"/>
<path transform="translate(1021,412)" d="m0 0h38l12 12 7 10 5 5 7 8 9 11 11 13 8 11 6 9 7 11 8 12 7 9 5 9 6 7 5 9 9 16 6 10 10 19 3 7-2 2-9-1-20-8-10-3-9-2-7-3-16-4-4-2-12-3-9-3-14-3-19-5-9-3-18-4-24-6-10-3-4-4-5-15-5-19-8-23-13-29-5-10-15-25 1-5 1-1 54-3z" fill="#49A6B2"/>
<path transform="translate(335,1026)" d="m0 0h33l3 3 8 20 6 16 11 28 5 12 11 25 4 11 5 11 28 68 7 18 4 9 1 7-4 2h-36l-7-2-11-26-5-13-1-2h-94l-4 9-7 17-5 13-2 3h-45v-6l5-12 6-16 5-10 4-11 4-8 5-13 4-8 4-10 13-30 5-12 4-8 4-11 5-11 11-27 12-29 3-6zm14 72-10 24-8 20-6 16-5 13 1 1h59v-6l-4-10-5-14-5-12-8-20-4-11z" fill="#08435C"/>
<path transform="translate(1262,1027)" d="m0 0 20 1 5 2 3 4 4 9 7 17 4 11 6 17 6 13 8 20 5 13 12 30 5 11 5 13 15 33 4 10 7 17v6l-1 1h-42l-3-3-8-19-4-12-4-8-4-2h-85l-6 1-3 10-8 20-3 8-4 4-7 1h-32l-1-1v-7l4-12 12-29 8-19 7-19 4-10 5-11 11-27 15-36 8-18 5-14 8-18 4-5zm5 68-5 12-4 10-4 8-4 12-12 31v5l5 2 17-1 12 1 11-1h12l3-2v-7l-5-16-6-15-4-12-4-9-4-14-3-4z" fill="#4EA8B4"/>
<path transform="translate(1752,1024)" d="m0 0h19l15 2 16 6 11 7 13 11 5 7v5l-13 12-10 8-7 1-14-13-8-4-11-3-11-1-12 2-9 6-4 5-2 5v7l3 9 5 6 11 6 31 9 8 2 12 5 9 5 9 6 15 15 8 17 2 6v24l-4 15-7 14-12 12-11 7-17 9-20 4-21 1-21-3-11-3-16-8-6-4-12-12-7-11 1-6 10-9 7-5 6-3 6-4 5-1 4 5 5 9 5 5 10 7 14 4h15l14-4 8-4 5-5 3-4 2-7v-15l-1-6-3-1-5-6-12-6-11-4-17-5-20-7-16-9-13-11-8-11-4-11-1-9v-11l2-12 8-17 11-12 7-6 11-6 12-5z" fill="#4EA8B4"/>
<path transform="translate(684,309)" d="m0 0 5 2 7 8 5 4 7 8 10 11 10 14 8 12 6 11 8 15 9 23 8 31 3 23 1 16v26l-1 18-2 10-2 14-5 25-9 35-9 27-6 15-7 20-6 15-5 11-8 18-7 16-32 64-9 17-10 19-6 11-7 10-2 1h-62l-2-1 1-5 6-10 10-15 11-16 8-12 13-20 10-16 17-28 24-42 14-26 11-23 8-16 5-11 4-10 10-26 9-30 4-18 2-6 5-32 1-17v-19l-1-19-3-17-5-21-7-20-8-18-5-9-12-19-6-8-7-8v-2h-2l-7-9z" fill="#09455E"/>
<path transform="translate(721,283)" d="m0 0h5l11 8 14 10 5 3v2l4 2 5 4v2l4 2 10 9 12 13v2h2l6 7v2h2l11 16 9 14 6 10 9 17 9 21 8 22 6 20 5 26 3 29v61l-4 34-7 41-5 22-12 48-8 25-6 19-12 36-14 38-4 8-3 3h-53l-1-3 4-10 9-20 7-14 10-23 7-15 8-20 13-34 8-22 7-20 5-17 7-24 3-13 4-19 4-25 2-11 2-26v-45l-3-28-5-25-7-25-8-21-8-16-6-11-10-16-14-19-11-12-7-8-12-11-2-1v-2l-4-2-20-16z" fill="#08445D"/>
<path transform="translate(733,1026)" d="m0 0h26l20 1 4 4 7 12 8 16 13 25 8 13 8 16 4 7v2l4-2 9-15 7-14 10-17 7-14 10-17 8-16 2-1h44l1 1v5l-7 11-6 11-13 24-7 11-6 11-12 21-9 16-12 22-5 10-1 85-2 1h-39l-2-1-1-84-5-10-7-12-7-14-7-11-6-11-10-18-7-11-6-11-13-23-7-12-4-6z" fill="#0F4962"/>
<path transform="translate(1139,407)" d="m0 0h10l6 2 6 9 6 12 6 10 10 17 7 11 16 26 5 9 11 17 5 9 10 15 14 22 8 12 7 12 15 22 5 8 2 4 5 4 5-1 7-6 12-16 8-10 8-11 9-12 4-6 8-11 7-10 5-1 32 32v2l3 1 3 5-1 5-9 6-18 7-5 3-9 4-19 9-13 6-13 4-5 2-18 6h-9l-17-5-17-6-9-3-5-5-5-7-7-14-7-10-5-9-9-15-8-11-7-12-7-10-11-15-8-11-10-13-7-7-7-8-11-13-8-10-21-21-6-5-7-8-3-3v-4l2-1z" fill="#51A9B5"/>
<path transform="translate(599,1026)" d="m0 0h39l3 2 1 186 90 1 14 1 1 2v33l-2 4-138 1-9-1-1-1v-226z" fill="#04405A"/>
<path transform="translate(1e3 587)" d="m0 0 11 1 27 7 16 4 14 4 27 7 9 3 10 4 13 3 7 3 9 3 25 7 19 5 2 2 12 3 13 5 1 4-16 6-11 2-7 3-18 4-14 3-17 5-18 4-36 10-16 5-12 4-14 3-21 5h-13l-1-3-2-71-1-23-1-6v-14z" fill="#49A6B2"/>
<path transform="translate(1529,1027)" d="m0 0h22l7 1 3 5 1 5 1 26v31l1 119 2 2h88l3 3v30l-2 5-5 1h-127l-3-1-1-3v-214l2-7 3-2z" fill="#4DA7B4"/>
<path transform="translate(498,1026)" d="m0 0h37l5 2 1 26v172l-1 29h-42l-2-7v-220z" fill="#04415B"/>
<path transform="translate(1422,1026)" d="m0 0 33 1 5 2 1 7v215l-2 3-8 1h-28l-4-2-2-6v-217l2-3z" fill="#43A3B0"/>
<path transform="translate(819,292)" d="m0 0h68l15 8 16 8 5 3 8 4v2l5 2 6 3 4 3 6 3 5 4 11 6 5 4 10 6 8 6 14 10 9 7 5 5 9 7 4 4 1 3-7 2-58 2h-42l-5-3-10-13-11-13-10-11-7-6-10-10-10-9-16-13-13-11-4-3v-2l-5-2-4-2z" fill="#4AA6B2"/>
<path transform="translate(1030,56)" d="m0 0h32l8 1-4 2-8 2-19 1-10 3-20 1-10 1v2l-3 1-18 2-21 2-18 4-20 2-5 2-10 2-18 2-14 4-16 3-12 3-18 5-11 2-9 4-12 3-16 6-9 4-26 13-10 7-13 9-10 10-5 8-2 8v8l3 7 7 9 8 7v2l5 2 10 6 9 5 10 6 11 4 11 6v4l-26 1h-16l-13-8-7-5-5-3-14-10-4-4-4-2-9-11-6-8-2-7v-11l3-7 4-5 5-8 10-10 10-7 11-6 19-10 20-7 9-4 12-3 11-4 14-4 26-6 2-1 19-3 11-3 14-2 13-3 23-3 23-4 32-4 3-2 31-1h-40l-22 2-9 2-20 1-12 2-15 1-7 2-11 1-6 2-14 1-9 2-12 2-14 2-30 6-14 4-12 2 3-3 12-3-7 1-2 1h-9v-1l12-3 21-4 2-1 14-2 2-1 11-1 6-2 16-2 3-1 14-1 9-2 15-1v-1l-17-2v-1h22l3 1h14l1-1 31-2 2-1 14-1 9-3h13l39-2 19-2z" fill="#52AAB6"/>
<path transform="translate(907,292)" d="m0 0h9l5 1 17 1 15 3 12 5 10 3 6 3 8 2 20 9 10 3 29 13 15 7 39 18 14 7 14 9 6 3 5 6-5 3-65 2-17-1-17-13-3-2v-2l-4-2-5-4-11-8-6-4v-2l-5-2-6-3-9-6-13-8-6-4-10-5-4-3-8-4-2-2-7-3-13-7-8-5-9-4z" fill="#51AAB6"/>
<path transform="translate(1431,625)" d="m0 0h5l11 12 9 13 7 10 10 13 6 9 13 17 3 6 7 10 3 9-5 1-11-5-5-3-11-4-9-4-33-15-9-3-6-3-13-4-42-14-13-4-1-4 12-5 17-6 23-10 16-8z" fill="#50A9B5"/>
<path transform="translate(1387,504)" d="m0 0h8l5 2 16 4 24 7 26 7 39 13 8 2 18 6 6 3v3h-118l-14-12-13-11-4-2v-2l-4-2-4-5 2-6z" fill="#0A465F"/>
<path transform="translate(1030,56)" d="m0 0h32l8 1-4 2-8 2-19 1-10 3-20 1-10 1v2l-3 1-18 2-21 2-18 4-20 2-5 2-10 2-18 2-14 4-16 3-12 3-18 5-11 2-9 4-12 3-16 6-3 2-3-1 2-4-1-4-15 4-5 1 3-3 18-5 11-4 14-4 26-6 2-1 19-3 11-3 14-2 13-3 23-3 23-4 32-4 3-2 31-1h-40l-22 2-9 2-20 1-12 2-15 1-7 2-11 1-6 2-14 1-9 2-12 2-14 2-30 6-14 4-12 2 3-3 12-3-7 1-2 1h-9v-1l12-3 21-4 2-1 14-2 2-1 11-1 6-2 16-2 3-1 14-1 9-2 15-1v-1l-17-2v-1h22l3 1h14l1-1 31-2 2-1 14-1 9-3h13l39-2 19-2z" fill="#F0F7F8"/>
<path transform="translate(780,250)" d="m0 0 16 1 16 6 10 5 10 4 10 3 10 5 3 2-1 2-5 1-48 1-11-6-12-7-7-4-14-7-1-3-2-1 4-1z" fill="#5BAEBA"/>
<path transform="translate(1880,1189)" d="m0 0h8l6 4 6 7 2 7v7l-2 6-5 5-6 3h-12l-8-3-3-3v-2h-2l-1-5v-11l4-8 5-5z" fill="#56ACB7"/>
<path transform="translate(930,73)" d="m0 0 16 1v1l-7 1h-9v2l-2 1-9 1-5 2-10 2-18 2-14 4-16 3-12 3-18 5-11 2-9 4-12 3-16 6-3 2-3-1 2-4-1-4-15 4-5 1 3-3 18-5 11-4 14-4 26-6 2-1 19-3 11-3 14-2 13-3 23-3z" fill="#43A3B0"/>
<path transform="translate(599,1026)" d="m0 0h39l3 2v155h-1l-1-153-4-1h-37l1 224h144l1-9v-25l-100-1-2-1v-2h90l14 1 1 2v33l-2 4-138 1-9-1-1-1v-226z" fill="#83C2CB"/>
<path transform="translate(783,76)" d="m0 0h14v2l-16 2-2 1-15 2-12 2-13 3-10 2-11 1-19 4-11 2-5 2-9 2-22 5-6 2-10 3-15 5h-4v-2l-8 2-8 3-9 3-13 5-16 8h-4v2l-4-1 15-8 12-5 15-6 24-8 13-4 20-5 17-4 16-3 9-2 13-2 7-2 9-2 16-2 16-3 5-1 15-1z" fill="#B6DBE0"/>
<path transform="translate(1030,56)" d="m0 0h32l8 1-4 2-8 2-19 1-10 3-20 1-10 1v2l-3 1-18 2-21 2-18 4-11 1 2-1v-2l9-1-8-1v-1l24-3 7-1 3-2 31-1-22-1v-1l-12-1 1-2 39-2 19-2z" fill="#FEFEFE"/>
<path transform="translate(498,1026)" d="m0 0h37l5 2 1 26v172l-1 29h-42l-2-7v-220zm1 1-2 2v214l2 11h38l1-1 1-34v-187l-2-4z" fill="#C2E1E5"/>
<path transform="translate(731,74)" d="m0 0h20v1l-16 2-2 1-18 2-1 1-17 2-11 2-25 4-19 4-12 2-13 3-22 5-26 8-5 2-3-1 10-5 8-2 7-2 5-2 8-1 2-2h9v-2l3-1h10l-1-1-13 2-16 3-15 4-8 1-1 1h-7l2-2 22-5 6-2 21-4 20-4 16-3 17-2 25-4 13-1 16-2z" fill="#99C9D0"/>
<path transform="translate(30,1026)" d="m0 0h94l4 2h-97l-1 6 1 220 105-1 7-1-2 2-4 1-103 1-6-2-1-44v-35l1-148z" fill="#8CC6CE"/>
<path transform="translate(71,1065)" d="m0 0h52l11 4 2 2-6-1-14-3-43-1v136l1 13h52l-4 3h-49l-3-3v-149z" fill="#ADD6DC"/>
<path transform="translate(1422,1026)" d="m0 0 33 1 5 2 1 7v215l-2 3h-8v-1h7l1-4v-211l-2-8-4-1h-32l-2 3v211l1 9 3 1-3 1-3-7v-217l2-3z" fill="#FEFEFE"/>
<path transform="translate(817,251)" d="m0 0 12 1 11 4 9 2 11 4 8 2 15 5 9 4 9 3 4 3h-27l-7-4-9-3-13-5-8-4-11-4-9-5-4-1z" fill="#54ABB7"/>
<path transform="translate(599,1026)" d="m0 0h39l3 2v155h-1l-1-153-4-1h-37l1 224 2 2-4-1v-226z" fill="#FEFEFE"/>
<path transform="translate(1283,816)" d="m0 0h1l5 25v11l-6 5-3 1-282 1-8-1-2-3 1-16 2-12h1l-1 16-1 10 3 3h281l8-1 5-4v-8l-4-19z" fill="#FEFEFE"/>
<path transform="translate(833,76)" d="m0 0h21v3l-14 1-9 2-12 2-14 2-30 6-14 4-12 2 3-3 12-3-7 1-2 1h-9v-1l12-3 21-4 2-1 14-2 2-1 11-1 6-2 16-2z" fill="#4891A0"/>
<path transform="translate(941,717)" d="m0 0h1v8l-6 35-15 75-5 20-3 4h-58l-2-1 1-10 4-11h1v6l-3 9v3l3 1 49 1 5-1 1-4 6-26 2-12 2-9 4-20 4-21 5-28 3-12z" fill="#CCE5E9"/>
<path transform="translate(657,99)" d="m0 0 11 1 2 2-18 4-6 2-10 3-15 5h-4v-2l-8 2-8 3-9 3-13 5-16 8h-4v2l-4-1 15-8 12-5 15-6 24-8 13-4 20-5z" fill="#6EA9B5"/>
<path transform="translate(856,463)" d="m0 0 2 3 5 25 2 13 2 20v61l-4 34-6 34h-1v-12l3-17 1-2 2-21 1-4 1-18v-50l-1-18-3-24-2-7-2-9z" fill="#6EB8C2"/>
<path transform="translate(1477,529)" d="m0 0 7 1 21 7 8 2 18 6 6 3v3h-118l-8-7 3-1v2l6 3 110 1v-3l-11-2-10-3-9-3-10-3-9-3-4-2z" fill="#43A3B0"/>
<path transform="translate(930,73)" d="m0 0 16 1v1l-7 1h-9v2l-2 1-9 1-5 2-10 2-18 2-14 4h-7v-1l7-2v-1l-6-1v-1l18-4 23-3z" fill="#FEFEFE"/>
<path transform="translate(945,560)" d="m0 0h1l2 13 1 18v55l-1 24-4 38-1 7h-1v-17l1-5 2-24 1-6v-80l-1-7z" fill="#98CCD3"/>
<path transform="translate(438,747)" d="m0 0h2l-2 4h-2l-1 3-4 3h-2l-2 4-14 12-3 1-1 3h-2v2l-4 2-8 8h-2v2l-9 7-8 7-3 1v2l-4 2-5 5h-2v2l-6 4-5 5-4 1-2 4-6 4h-2v2l-4 2-4 4h-2l-1 3-6 2 5-5 15-12 13-10 28-24 10-8 12-11 11-9 7-7 11-9z" fill="#B1D8DD"/>
<path transform="translate(731,74)" d="m0 0h20v1l-16 2-2 1-18 2-1 1-17 2-11 2-10 2h-7v-1l-9-1v-1l10-2 17-2 4-1 13-1 16-2z" fill="#EBF5F6"/>
<path transform="translate(739,404)" d="m0 0 3 2 3 17 3 11 2 30v13l-2 27-4 23-6 24-2 1 1-8 4-16 5-32 1-17v-19l-1-19-3-17-4-16z" fill="#83C2CA"/>
<path transform="translate(707,382)" d="m0 0 2 2 5 18 2 11 2 20v32l-3 25-4 19h-1v-8l4-23 1-20v-18l-1-22-3-18-3-11-1-1z" fill="#9ACDD4"/>
<path transform="translate(480,550)" d="m0 0h9l18 2 14 1 16 2 19 2 24 2 23 2v2l-6 1-5-1-23-2-71-7-13-1v-2h-5z" fill="#97CCD3"/>
<path transform="translate(555,598)" d="m0 0h7l8 4v8h-2v2h-2l-2 5-3 4h-2l-1 4h-2v2l-2 1-3 5-7 9h-2l-2 4-5 6-4 4-3 4h-2l-2 5h-2l-1 3h-2l-2 4-5 5-9 10-3 1-2 4-6 5-2-1 27-27 9-11 12-13 9-11 20-25 1-5-13-5z" fill="#9ACDD4"/>
<path transform="translate(801,97)" d="m0 0h6l-3 2-13 4-10 3-1 1h13l10-2 10-4h6l-4 2-9 4-12 3-16 6-3 2-3-1 2-4-1-4-15 4-5 1 3-3 18-5 11-4 14-4z" fill="#FEFEFE"/>
<path transform="translate(303,1209)" d="m0 0h86l8 1v2l-94 1-3 3 1-4z" fill="#92C9D0"/>
<path transform="translate(394,544)" d="m0 0 59 3 21 2v1h-27l-35-2h-12l11 4 6 2 8 3v1l-8-1-19-6-7-3-1-3z" fill="#9BCED4"/>
<path transform="translate(473,819)" d="m0 0h2l-2 4-9 9-1 2h-2v2l-4 4h-2v2l-5 4-4 5h-2v2h-2v3h62l-1 2-5 1h-56l-3-1 1-5 31-31z" fill="#9DCFD5"/>
<path transform="translate(589,831)" d="m0 0 1 3-10 15-3 7h56l6-1 4-4v3l-5 5h-62l-2-1 1-5 6-10z" fill="#9ECFD6"/>
<path transform="translate(950,61)" d="m0 0 26 2-2 2-18 1-22 2-9 2h-14l-6-1 2-2 18-1 2-1 14-1z" fill="#E9F4F5"/>
<path transform="translate(1476,177)" d="m0 0 2 2 4 18 2 13v40l-3 18-4 13h-1v-6l3-13 2-17 1-21-2-23-3-15-1-2z" fill="#74BBC4"/>
<path transform="translate(904,621)" d="m0 0h1v21l-1 5-1 15-2 9-2 16-1 7-2 5-2 16-4 17-2 1 1-9 7-36 5-34z" fill="#B0D8DD"/>
<path transform="translate(461,569)" d="m0 0h7l18 5 22 6 15 4 12 5 19 7 1 2-7-1-24-9-13-4-26-7-24-7z" fill="#9ACDD4"/>
<path transform="translate(833,76)" d="m0 0h21v3l-14 1-9 2-18 3h-8v-1h-7l-7 1 6-3 11-1 6-2 16-2z" fill="#88B6C0"/>
<path transform="translate(838,543)" d="m0 0h1v25l-6 36-4 20-4 18-3 3 1-8 3-13 4-19 4-25 2-11z" fill="#A7D4DA"/>
<path transform="translate(670,376)" d="m0 0 2 2 3 16v37l-6 31-4 12h-1v-6l4-14 2-13 1-2 1-12v-31l-2-14z" fill="#ACD6DB"/>
<path transform="translate(684,309)" d="m0 0 5 2 7 8 5 4 7 8 10 11-1 2-5-3v-3l-1 4 3 1 6 11 1 6-2-1-5-10-8-12-6-8-7-8v-2h-2l-7-9z" fill="#8DC5CD"/>
<path transform="translate(721,283)" d="m0 0h5l11 8 14 10 5 3v2l-4-1-3-2-1 2 4 2 3 5-4-2-6-5v-2l-4-2-20-16z" fill="#91C9D0"/>
<path transform="translate(746,838)" d="m0 0 1 4-4 8-1 6h47l5-3 3-7 2-1-1 5-3 6-3 3h-53l-1-3 4-10z" fill="#A0D0D7"/>
<path transform="translate(1296,49)" d="m0 0 28 1 22 4 13 4v1h-6l-9-2-24-5h-35l-9 2-12 2h-8l3-2 15-3z" fill="#B2D9DE"/>
<path transform="translate(1382,312)" d="m0 0 2 1-2 3h-2l-1 3-6 5-10 8-5 1v2l-5 3-10 4-14 5-19 2h-23l-11-2v-1l12 1h21l20-3 15-5 17-9 13-10 7-6z" fill="#CFE7EA"/>
<path transform="translate(319,1168)" d="m0 0h2v3l59 1-1 3h-52l-7-2z" fill="#86C3CB"/>
<path transform="translate(1e3 587)" d="m0 0 11 1 4 2h-15l-1 1v9l2 24 1 18v61h-1l-2-71-1-23-1-6v-14z" fill="#FEFEFE"/>
<path transform="translate(783,76)" d="m0 0h14v2l-16 2-2 1-15 2-12 2-7 2h-4v-2h-5v-1l8-2 13-2 5-1 15-1z" fill="#D3E9EC"/>
<path transform="translate(318,848)" d="m0 0 2 1-6 7h57l5-1v-2l3 1-4 4-3 1h-60l-2-1 1-4z" fill="#A2D1D7"/>
<path transform="translate(698,406)" d="m0 0h1l1 5v31l-2 12-1 15-4 19-4 14-3 9-2 2 1-7 4-14 3-12 3-16 3-27z" fill="#A0D0D7"/>
<path transform="translate(1028,384)" d="m0 0h2l3 6-7 2-58 2h-42l-5-3v-3l3 3 4 1h26l71-2 3-1z" fill="#FEFEFE"/>
<path transform="translate(866,567)" d="m0 0h1v18l-4 34-6 34h-1v-12l3-17 1-2 2-21 1-4 1-17 1-1z" fill="#A8D4DA"/>
<path transform="translate(1655,1249)" d="m0 0 1 4-6 2h-115l-4-2h97l24-1z" fill="#FEFEFE"/>
<path transform="translate(1711,1190)" d="m0 0 4 2 5 8 4 7 10 7 9 4 8 2h15l14-4 8-4 1-2h2l-2 4-13 6-9 2h-18l-13-4-13-9-4-5-5-10-4-1-5 3-3 2-3-1 9-6z" fill="#FEFEFE"/>
<path transform="translate(821,645)" d="m0 0h1v6l-4 13-2 9-6 17-7 20-3 8h-2l-1 2 1-5 7-21 5-12 6-21z" fill="#99CDD4"/>
<path transform="translate(817,251)" d="m0 0 12 1 11 4 9 2 11 4v1l-8-1-13-4-7-2v2l10 3 14 6 10 4 1 2-5-1-13-5-8-4-11-4-9-5-4-1z" fill="#FEFEFE"/>
<path transform="translate(1411,543)" d="m0 0h3v2l6 3v2l111-1 5-2 1 4h-118l-8-7z" fill="#EEF6F7"/>
<path transform="translate(732,96)" d="m0 0h6l-4 1v2l-2 1h-9v2l-12 2-4 2-9 1-3 2-13 4-14 5-8 1 2-2 16-6 17-5 13-4 9-2z" fill="#BFDFE4"/>
<path transform="translate(733,1026)" d="m0 0h26l20 1 2 1-1 2-46-1 5 8-1 3-6-9z" fill="#A9D4DA"/>
<path transform="translate(579,268)" d="m0 0 4 2 16 12 13 11 13 12 10 10 7 8-1 2-5-5-14-15-4-3v-2h-2v-2l-4-1v-2l-3-1-4-4-2-1v-2l-5-2-6-5v-2l-4-1-8-6z" fill="#9BCED4"/>
<path transform="translate(888,1026)" d="m0 0h44l1 1v5l-7 11-1-4h2l1-4 3-6h-41l-4 1v3l-3 1 2-5z" fill="#A2D1D8"/>
<path transform="translate(691,79)" d="m0 0h2v2h13v1l-27 4-3 1h-7v-1l-9-1v-1l10-2 17-2z" fill="#BDDEE2"/>
<path transform="translate(941,717)" d="m0 0h1v8l-6 35-4 20-1 6h-1v-12l5-25 3-19 2-6z" fill="#A5D3D9"/>
<path transform="translate(1234,62)" d="m0 0 3 1-5 3-20 9-8 5-14 10-10 8-3 1 1-3 17-13 19-12z" fill="#9BCED4"/>
<path transform="translate(658,384)" d="m0 0 2 3 2 8v36l-2 12-2 2 1-18v-28z" fill="#A2D1D7"/>
<path transform="translate(893,472)" d="m0 0 2 1 2 5 6 30 2 15v16h-1l-3-25-5-27-3-12z" fill="#ADD6DC"/>
<path transform="translate(1123,191)" d="m0 0h1v12l-2 9v36l1 4v11l-2-3-2-21v-18l2-19z" fill="#A8D4DA"/>
<path transform="translate(477,140)" d="m0 0 2 1-5 5-5 2-2 4-6 8h-2l-1 4-1 2v12l3 10 1 5-4-5-2-5-1-12 2-8 6-10 8-8z" fill="#90C8D0"/>
<path transform="translate(841,713)" d="m0 0 1 4-4 15-9 29-3 9h-1v-6l7-22 5-15 3-12z" fill="#A7D4DA"/>
<path transform="translate(907,292)" d="m0 0h9l5 1 17 1 10 2v1l-30-1 2 4 2 2-4-1-4-3-6-2z" fill="#F5F9FA"/>
<path transform="translate(567,713)" d="m0 0 2 1-5 8h-2l-2 4-5 7h-2v2h-2l-2 5-12 13-3 3-2 4h-2v2l-3-1 13-14 11-14 8-9z" fill="#9DCFD5"/>
<path transform="translate(681,681)" d="m0 0 1 4-7 12-2 5h-2l-1 5-5 9h-2l-1 5h-2l-1 5h-2l-1 5-3 5h-2l2-5 9-16 12-21z" fill="#A2D1D7"/>
<path transform="translate(819,292)" d="m0 0h68l7 4-3 1-7-3h-59l-4 2z" fill="#FEFEFE"/>
<path transform="translate(657,99)" d="m0 0 11 1 2 2-18 4-6 2-4-1 3-1-5-1 2-2 12-3z" fill="#86B6C0"/>
<path transform="translate(633,329)" d="m0 0 3 1 6 9v3h2l7 14 6 16 1 11-2-3-4-15-4-9-11-20-4-5z" fill="#A7D4DA"/>
<path transform="translate(605,114)" d="m0 0 3 1-1 2-15 5-13 5-16 8h-4v2l-4-1 15-8 12-5 15-6z" fill="#A5D2D9"/>
<path transform="translate(773,87)" d="m0 0h6l-4 2 4 2-18 5-12 2 3-3 12-3-7 1-2 1h-9v-1l12-3z" fill="#A4D2D8"/>
<path transform="translate(880,269)" d="m0 0 4 1 11 4 6 2 4 3h-27l-7-4 3-1 5 2h14l-9-3z" fill="#FEFEFE"/>
<path transform="translate(783,298)" d="m0 0 9 6 12 9 13 11 10 9 3 2-1 2-5-3v-2l-3-1-4-4-2-1v-2l-4-2-4-3v-2l-5-2-1-3h-3v-2l-5-2-3-2v-2l-5-2z" fill="#AAD5DB"/>
<path transform="translate(1477,529)" d="m0 0 7 1 21 7 8 2 18 6 2 2-11-2-13-4-9-3-10-3-9-3-4-2z" fill="#A4D2D8"/>
<path transform="translate(857,85)" d="m0 0h8v1l-18 5-16 2-7 3-7 1h-10v-1l16-3 4-2 19-3z" fill="#FEFEFE"/>
<path transform="translate(1387,504)" d="m0 0h8l5 2 16 4 3 2h-7l-18-5-6-1-3 6h-2l1 7 4 3v2l-4-2-4-5 2-6z" fill="#93CAD1"/>
<path transform="translate(682,154)" d="m0 0 1 2-4 9-3 1-2 5v16l6 10 2 4h2l3 4-1 2-10-11-4-8-1-4v-11l3-7 4-5z" fill="#FEFEFE"/>
<path transform="translate(539,1227)" d="m0 0h1v28h-42l1-4v3l38-1 1-25z" fill="#52AAB6"/>
<path transform="translate(769,788)" d="m0 0 1 4-14 31h-2l-1 6-4 8-2 1 1-5 10-21 10-23z" fill="#A3D2D8"/>
<path transform="translate(331,1033)" d="m0 0h1l-1 7-5 12-6 15-4 8-4 12h-2l-1 2 1-5 14-34z" fill="#A2D1D7"/>
<path transform="translate(663,565)" d="m0 0 1 4-8 16h-2l-1 6-7 12-4 8-3 1 2-5 11-20 10-21z" fill="#B1D8DD"/>
<path transform="translate(684,334)" d="m0 0 4 5 10 18 7 16 2 5-1 4-3-6-4-11-9-17-4-7v-3h-2z" fill="#99CDD4"/>
<path transform="translate(624,186)" d="m0 0 4 5 6 8 11 11 18 12-4 1-4-3v-2l-5-1-1-3h-3v-2l-4-2-8-7-3-3v-2h-2l-5-8z" fill="#96CBD2"/>
<path transform="translate(622,279)" d="m0 0h3v2l3 1v2l3 1v2l3 1v2l3 1v2l4 2 5 6 5 5 1 3 4 2 3 4-1 3-7-8-11-12-5-5v-2l-4-2-9-9z" fill="#9FCFD6"/>
<path transform="translate(737,98)" d="m0 0m-2 1h8l-3 2-25 7-15 5h-3l1-3 8-3 9-2 12-4 7-1z" fill="#A3D2D8"/>
<path transform="translate(177,1110)" d="m0 0 4 5 2 5 2 14v17l-2 9h-1v-25l-2-13-3-9z" fill="#88C4CC"/>
<path transform="translate(838,269)" d="m0 0 5 1 12 5-1 3-5 1h-39l4-2h27l7-1-3-3-7-3z" fill="#FEFEFE"/>
<path transform="translate(904,621)" d="m0 0h1v21l-1 5-1 15-3 14h-1l1-17 2-18z" fill="#AAD5DB"/>
<path transform="translate(603,155)" d="m0 0v3l-3 7v14l9 13 4 5-1 2-11-13-4-8-1-9 5-12z" fill="#C0E0E4"/>
<path transform="translate(725,85)" d="m0 0h16v2l-12 3h-16l3-3z" fill="#8FC8CF"/>
<path transform="translate(599,1026)" d="m0 0h39l2 1-1 3-4-1h-36z" fill="#9ACDD4"/>
<path transform="translate(755,312)" d="m0 0 4 2 5 5 4 5 5 5 7 8v2h2l9 12-1 4-10-14-11-13-12-13z" fill="#98CCD3"/>
<path transform="translate(814,79)" d="m0 0h11v1l6 1v1l-18 3h-8v-1h-7l-7 1 6-3 11-1z" fill="#BEDFE3"/>
<path transform="translate(522,663)" d="m0 0h2v2h-2l-1 3h-2l-2 4-5 5-9 10-3 1-2 4-6 5-2-1 27-27z" fill="#8BC6CE"/>
<path transform="translate(919,460)" d="m0 0 3 4 9 26 3 10-1 4-3-7-4-14-4-10-3-8z" fill="#A4D2D8"/>
<path transform="translate(670,376)" d="m0 0 2 2 3 16v21l-1 12h-1l-1-31-2-14z" fill="#82C1CA"/>
<path transform="translate(769,234)" d="m0 0 5 1 4 3-1 3-26 1h-16l-1-2 39-1z" fill="#FEFEFE"/>
<path transform="translate(516,119)" d="m0 0 4 1-28 14-9 6-4-1 9-6 15-8 11-5z" fill="#99CDD4"/>
<path transform="translate(457,1243)" d="m0 0 3 4 1 7-4 2h-36l-6-1v-1h44l-2-5z" fill="#90C8D0"/>
<path transform="translate(1188,216)" d="m0 0h1v41l-2-1-1-4v-29z" fill="#9DCED5"/>
<path transform="translate(739,404)" d="m0 0 3 2 3 17 3 11v26h-1l-1-19-3-17-4-16z" fill="#B7DBE0"/>
<path transform="translate(797,325)" d="m0 0 4 1 2 4 4 2 6 5 3 3v2l3 1 5 5 9 10v2h-2l-7-8-20-20-7-6z" fill="#91C9D0"/>
<path transform="translate(710,88)" d="m0 0h5l3 3-19 4-3 1h-8l-1-3 9-2 13-2z" fill="#FEFEFE"/>
<path transform="translate(858,837)" d="m0 0h1v6l-3 9v3l3 1 36 1v1h-42l1-10z" fill="#43A3B0"/>
<path transform="translate(1285,119)" d="m0 0h32l5 2v1h-42l2-2z" fill="#B8DCE0"/>
<path transform="translate(1483,234)" d="m0 0h1v16l-3 18-4 13h-1v-6l3-13 2-16 1-1z" fill="#AED7DC"/>
<path transform="translate(760,91)" d="m0 0h10v1l-11 2-8 3-3 2-11 1 1-5 2-1 15-1z" fill="#79BDC6"/>
<path transform="translate(853,90)" d="m0 0h12v1l-21 5-18 5h-7l3-2 11-3 19-5z" fill="#FEFEFE"/>
<path transform="translate(73,1065)" d="m0 0h50l11 4 2 2-6-1-14-3-43-1z" fill="#FEFEFE"/>
<path transform="translate(878,771)" d="m0 0h1l-1 9-6 22-4 10-2 2 2-9 9-32z" fill="#A1D1D7"/>
<path transform="translate(811,389)" d="m0 0h2l4 8 4 11 4 9 3 9v7l-2-3-6-18-5-13-4-8z" fill="#A6D3D9"/>
<path transform="translate(721,360)" d="m0 0h2l5 9 4 10 5 12 2 5v7l-2-3-6-17-8-18z" fill="#A8D4DA"/>
<path transform="translate(396,546)" d="m0 0h14v1l-10 1 11 4 6 2 8 3v1l-8-1-19-6-2-1v-2l-2-1z" fill="#B4DADF"/>
<path transform="translate(481,161)" d="m0 0h2l-2 6v18l4 8-1 2-3-3-3-7-1-5v-9l3-9z" fill="#9ECFD6"/>
<path transform="translate(602,94)" d="m0 0 3 1-15 5-12 3-8 1-1 1h-7l2-2 22-5 6-2z" fill="#A7D4DA"/>
<path transform="translate(561,559)" d="m0 0h19l23 2v2l-6 1-5-1-23-2-8-1z" fill="#8AC6CE"/>
<path transform="translate(663,474)" d="m0 0 1 4-4 12-6 17-4 10h-1v-6l3-7h2l1-8 4-11 3-10z" fill="#A0D0D7"/>
<path transform="translate(1214,310)" d="m0 0 7 6 13 11 6 4 9 5-2 1-9-4-10-7v-2l-4-2-7-7-3-2z" fill="#96CBD2"/>
<path transform="translate(707,382)" d="m0 0 2 2 5 18 2 11v10h-1l-4-23-3-11-1-1z" fill="#A2D1D8"/>
<path transform="translate(946,671)" d="m0 0h1l-1 16-2 21-1 7h-1v-17l1-5 1-16h2z" fill="#B2D9DE"/>
<path transform="translate(829,610)" d="m0 0h2l-1 9-3 12-2 11-3 3 1-8 3-13z" fill="#87C4CC"/>
<path transform="translate(678,527)" d="m0 0h1v7l-8 19-4 10-3 2 1-5 12-29z" fill="#A2D1D7"/>
<path transform="translate(733,120)" d="m0 0 4 1-16 8-17 9-7 5-2-1 8-6 11-6z" fill="#FEFEFE"/>
<path transform="translate(732,96)" d="m0 0h6l-4 1v2l-2 1h-9v2l-12 2-4 2h-5l3-3 12-3z" fill="#98CCD3"/>
<path transform="translate(873,82)" d="m0 0h5l1 2h15v1l-12 2-10 3h-7v-1l7-2v-1l-6-1v-1z" fill="#FEFEFE"/>
<path transform="translate(930,73)" d="m0 0 16 1v1l-7 1h-9v2h-14l1-3z" fill="#93CAD1"/>
<path transform="translate(1018,1175)" d="m0 0 24 1 4 3-1 4-3-4-16-1h-11l-1 9h-1v-8l2-3z" fill="#FEFEFE"/>
<path transform="translate(743,636)" d="m0 0 1 4-7 17-6 17h-1l1-7 4-13 5-12z" fill="#A6D3D9"/>
<path transform="translate(842,422)" d="m0 0 2 2 9 25 3 9-1 4-3-7-4-13-4-9-2-7z" fill="#A4D2D8"/>
<path transform="translate(891,80)" d="m0 0h19v1l-15 3-16 1-1-2z" fill="#43A3B0"/>
<path transform="translate(1320,51)" d="m0 0h11l15 3 13 4v1h-6l-9-2-24-5z" fill="#84C2CB"/>
<path transform="translate(783,76)" d="m0 0h14v2l-16 2-2 1-15-1v-1l13-1z" fill="#E6F2F4"/>
<path transform="translate(1135,303)" d="m0 0 4 5 8 17 4 10 1 5-3-3-14-31z" fill="#A4D2D8"/>
<path transform="translate(548,140)" d="m0 0 2 1-5 5-5 3h-2l-2 4-9 9-3 1 3-6h2l1-3 11-9z" fill="#AAD5DB"/>
<path transform="translate(734,97)" d="m0 0h11v1l-10 2-1 1-10 2-11 4h-7l1-2 4-2 12-1v-2l11-1z" fill="#033F59"/>
<path transform="translate(354,1099)" d="m0 0 3 3 5 14 4 8 3 8v6l-2-3-7-17-4-12-2-4z" fill="#9DCFD5"/>
<path transform="translate(438,747)" d="m0 0h2l-2 4h-2l-1 3-4 3h-2l-2 4-14 12-2 1 2-4 8-8 11-9z" fill="#95CBD2"/>
<path transform="translate(743,517)" d="m0 0h2l-1 10-6 24-2 1 1-8 4-16z" fill="#89C5CD"/>
<path transform="translate(682,352)" d="m0 0 3 1 4 11 4 9 3 11v7l-2-3-3-12-6-16-3-6z" fill="#9DCFD5"/>
<path transform="translate(342,1112)" d="m0 0 1 3-8 19-6 16-1-3 6-18 4-8 3-8z" fill="#A4D2D8"/>
<path transform="translate(629,771)" d="m0 0 1 2-6 10-9 14-5 8-3 1 2-5 7-10 9-14z" fill="#A1D1D7"/>
<path transform="translate(409,773)" d="m0 0 2 1-2 3h-2v2l-4 2-8 8h-2v2l-9 7-5 2 5-5 11-10 11-9z" fill="#B1D8DD"/>
<path transform="translate(461,569)" d="m0 0h7l18 5 12 3v1h-9l-28-8z" fill="#95CBD2"/>
<path transform="translate(425,558)" d="m0 0h6l24 7 3 1v2l3 1-6-1-28-8z" fill="#A6D3D9"/>
<path transform="translate(721,283)" d="m0 0h5l11 8-2 2 1 3-4-2-11-9z" fill="#A7D3D9"/>
<path transform="translate(579,268)" d="m0 0 4 2 16 12 11 9h-3l-4-2v-2l-5-2-6-5v-2l-4-1-8-6z" fill="#AED7DC"/>
<path transform="translate(258,1206)" d="m0 0 1 2-2 8h-2l-1 6-4 9-3 7-1 5-3 1 3-10 4-9 4-10z" fill="#A4D2D8"/>
<path transform="translate(176,1176)" d="m0 0 1 4-6 10h-2l-2 4-4 5-4 3h-2v2l-5 3-3-1 11-8 7-7 8-13z" fill="#A7D4DA"/>
<path transform="translate(304,1099)" d="m0 0 1 2-4 12h-2l-1 7-5 10-1 4-3 1 3-9 5-11 4-9z" fill="#A6D3D9"/>
<path transform="translate(887,734)" d="m0 0h1v8l-4 14-2 10-2 5h-1l1-9z" fill="#98CCD3"/>
<path transform="translate(703,638)" d="m0 0 1 4-8 17-3 6h-2l-1 5h-2l2-6 9-19z" fill="#9DCFD5"/>
<path transform="translate(856,463)" d="m0 0 2 3 5 25 1 4v7h-1v-6h-2l-1-9-2-7-2-9z" fill="#A9D4DA"/>
<path transform="translate(638,612)" d="m0 0 1 4-5 8-3 5h-2l-2 6-6 9h-2l2-5 11-17z" fill="#9CCED5"/>
<path transform="translate(528,556)" d="m0 0h22l6 1 16 1v1h-24l-20-2z" fill="#9FCFD6"/>
<path transform="translate(756,306)" d="m0 0 4 2 5 4v2l4 2 10 9 5 5-1 2-5-4v-2l-4-2-3-3v-2l-5-2v-2l-4-2-5-5z" fill="#ADD7DC"/>
<path transform="translate(718,603)" d="m0 0h1l-1 7-6 14-5 11-3 3 1-5 7-15 4-10z" fill="#9DCFD5"/>
<path transform="translate(727,356)" d="m0 0 4 5 5 7 6 11 4 7v2h-2l-10-18-5-8v-2h-2z" fill="#9BCED4"/>
<path transform="translate(523,163)" d="m0 0 1 3-2 5v14l2 4-1 4-4-8-1-3v-8l4-9z" fill="#76BCC5"/>
<path transform="translate(394,544)" d="m0 0 19 1 16 1v1h-33v2l-5-1-1-3z" fill="#FEFEFE"/>
<path transform="translate(498,793)" d="m0 0 2 1-4 6-5 4-4 5-5 5-4 2-1 3h-2l2-4 20-20z" fill="#9ECFD6"/>
<path transform="translate(1464,146)" d="m0 0 3 4 9 23-1 4-6-14-5-12z" fill="#A2D1D7"/>
<path transform="translate(1398,76)" d="m0 0 5 2 10 7 10 8 3 4-4-2-10-7v-2l-4-2-10-6z" fill="#95CBD2"/>
<path transform="translate(650,122)" d="m0 0 3 1-5 3-7 3-11 6h-3v2l-4-1 16-9 8-4z" fill="#A0D0D7"/>
<path transform="translate(654,341)" d="m0 0 4 4 9 19 2 5-1 3v-2h-2l-2-6-7-15v-3h-2z" fill="#A5D2D8"/>
<path transform="translate(1189,258)" d="m0 0 2 3 4 16 5 10-1 2-3-3-4-9-3-10z" fill="#A2D1D7"/>
<path transform="translate(712,252)" d="m0 0 6 3 11 7 7 4 8 5-3 1-20-12v-2l-5-1-4-3z" fill="#95CBD2"/>
<path transform="translate(589,102)" d="m0 0h6l-2 2-11 3-18 6-3-1 10-5 8-2 7-2z" fill="#AED7DC"/>
<path transform="translate(824,385)" d="m0 0 3 4 9 17 3 6-1 3-3-5v-3h-2l-4-9v-3h-2l-3-5z" fill="#9DCED5"/>
<path transform="translate(669,239)" d="m0 0h5l10 7 4 2v2l5 1 3 2v2l-5-2-15-9-7-4z" fill="#97CCD3"/>
<path transform="translate(670,82)" d="m0 0h9v1l7 1v1l-10 2h-7v-1l-9-1v-1z" fill="#FEFEFE"/>
<path transform="translate(860,622)" d="m0 0h1v9l-4 22h-1v-12l3-17z" fill="#A0D0D7"/>
<path transform="translate(729,573)" d="m0 0h1v6l-7 19-4 5 1-5 7-20z" fill="#ADD7DC"/>
<path transform="translate(684,309)" d="m0 0 5 2 7 8 5 4-1 2-2 1-5-5v-2h-2l-7-9z" fill="#F7FAFB"/>
<path transform="translate(781,85)" d="m0 0h4v2h10v1l-8 2h-15l3-2h4v-2z" fill="#7DAFBA"/>
<path transform="translate(526,762)" d="m0 0v3l-7 9-4 5h-2l-2 4-7 5 2-4 11-11z" fill="#B3D9DE"/>
<path transform="translate(1287,682)" d="m0 0h8l12 5v1l-7-1-5-2-5-1 3 9-1 4-5-13z" fill="#FEFEFE"/>
<path transform="translate(766,542)" d="m0 0h1v9l-5 26h-1v-12l2-10 2-6z" fill="#C4E1E5"/>
<path transform="translate(1342,514)" d="m0 0h2l-2 4-11 15-5 5 1-4 2-3h2l2-5z" fill="#8DC7CF"/>
<path transform="translate(755,409)" d="m0 0 2 3 5 16 2 7-1 4v-3h-2l-2-8-4-13z" fill="#ACD6DB"/>
<path transform="translate(1133,378)" d="m0 0 4 2 4 5-5 3h-25v-1l20-1 6-2z" fill="#FEFEFE"/>
<path transform="translate(493,578)" d="m0 0h9l12 4 7 2v2l-15-3-13-4z" fill="#A7D3D9"/>
<path transform="translate(457,161)" d="m0 0 1 3-1 2v12l3 10 1 5-4-5-2-5-1-12 2-8z" fill="#AAD5DB"/>
<path transform="translate(1360,59)" d="m0 0 6 1 13 5 8 4-4 1-14-6-9-4z" fill="#A7D3D9"/>
<path transform="translate(555,598)" d="m0 0h7l8 4v8h-2v2h-2l-1 4-3-1 6-8v-3l-13-5z" fill="#A9D4DA"/>
<path transform="translate(518,239)" d="m0 0 6 1 6 4 3 1v2l4 2 5 2 1 3-5-2-20-12z" fill="#9ECFD6"/>
<path transform="translate(545,159)" d="m0 0 2 1-5 11v12l2 5-1 3-2-2-1-5v-17z" fill="#96CBD2"/>
<path transform="translate(640,105)" d="m0 0h7l-2 2h-3l-1 3-9 1-4-2 7-3z" fill="#4E8E9D"/>
<path transform="translate(1866,1220)" d="m0 0 5 3 3 2 13 1 5-2 3-3 2 1-5 5-3 1h-12l-8-3-3-3z" fill="#FEFEFE"/>
<path transform="translate(936,510)" d="m0 0 2 4 4 17v6l-2-1-4-17z" fill="#A7D4DA"/>
<path transform="translate(1126,276)" d="m0 0 3 3 5 16 1 2v6l-2-2-7-21z" fill="#A0D0D7"/>
<path transform="translate(1494,705)" d="m0 0 5 5 6 12-1 3-7-1-4-3 9 2-3-9-5-7z" fill="#FEFEFE"/>
<path transform="translate(605,114)" d="m0 0 3 1-1 2-24 8 1-3 16-6z" fill="#9ECFD6"/>
<path transform="translate(1266,1094)" d="m0 0h8l4 9v5l-2-3-3-8-1-1h-5l-5 13-1-4 4-10z" fill="#FEFEFE"/>
<path transform="translate(691,757)" d="m0 0h2l-2 5-8 18-2 1 1-5 5-12z" fill="#9CCED5"/>
<path transform="translate(806,693)" d="m0 0 1 2-2 9-5 14h-2l-1 2 1-5 7-21z" fill="#AFD7DD"/>
<path transform="translate(783,298)" d="m0 0 9 6 12 9 2 4-5-3v-2h-3v-2l-5-2-3-2v-2l-5-2z" fill="#95CBD2"/>
<path transform="translate(781,759)" d="m0 0h1l-1 7-5 12-2 5h-2l-1 2 1-4z" fill="#AAD5DA"/>
<path transform="translate(1183,396)" d="m0 0 3 1 1 5 3 1 6 11 2 6-3-3-7-11-5-8z" fill="#9ECFD6"/>
<path transform="translate(646,224)" d="m0 0 5 1v2l5 1 5 4 7 4 1 3-5-2-15-10z" fill="#9ECFD6"/>
<path transform="translate(524,193)" d="m0 0 3 1 4 7 2 1v2l3 1v2l3 1v2h2l2 4-4-2-10-10-5-7z" fill="#ADD7DC"/>
<path transform="translate(1476,177)" d="m0 0 2 2 4 18v7l-2-3-3-15-1-2z" fill="#ADD7DC"/>
<path transform="translate(656,85)" d="m0 0h15l-2 2-16 2-6-1 3-2z" fill="#43A3B0"/>
<path transform="translate(586,689)" d="m0 0 1 2-6 9-3 4h-2l-1 4h-2l-2 5h-2l2-4 9-12z" fill="#A8D4DA"/>
<path transform="translate(945,560)" d="m0 0h1l2 13v15h-1l-2-12z" fill="#B3D9DF"/>
<path transform="translate(616,91)" d="m0 0h7l-1 3-13 2-9 1 3-2z" fill="#81C1CA"/>
<path transform="translate(288,1135)" d="m0 0h1v6l-4 8-5 12h-2l3-9z" fill="#A2D1D7"/>
<path transform="translate(547,108)" d="m0 0h3l-1 3-14 4-10 2 4-3z" fill="#AAD5DB"/>
<path transform="translate(1242,693)" d="m0 0h8l3 5 1 8-2-3-3-9-8 2-7 3-4-1z" fill="#FEFEFE"/>
<path transform="translate(837,365)" d="m0 0 3 1v2h2l10 14 2 3-1 3-10-14z" fill="#98CCD3"/>
<path transform="translate(734,292)" d="m0 0h5l5 4v3l-4 1-5-5z" fill="#70ADB8"/>
<path transform="translate(666,225)" d="m0 0 5 2 9 6 9 5-2 1-10-5-5-3v-2l-5-1z" fill="#A0D0D7"/>
<path transform="translate(492,205)" d="m0 0 8 6 9 8 2 1v2l2 1-5-1-5-5-4-3v-2l-4-1-3-4z" fill="#A4D2D8"/>
<path transform="translate(612,116)" d="m0 0h5l-4 3-11 4-4 2-3-1 3-3 6-2z" fill="#9CCED5"/>
<path transform="translate(634,105)" d="m0 0h6v1l-9 3 1 3-5 1v-3l-6 1v-2z" fill="#A4D2D8"/>
<path transform="translate(769,788)" d="m0 0 1 4-9 20h-1v-5l7-15z" fill="#96CBD2"/>
<path transform="translate(568,777)" d="m0 0v3l-13 16-1-3 7-9h2l1-4z" fill="#9ECFD6"/>
<path transform="translate(847,689)" d="m0 0h1l-1 10-4 14h-1v-7l4-16z" fill="#AAD5DB"/>
<path transform="translate(1345,338)" d="m0 0 2 1-1 2-17 6h-6l2-2 13-4z" fill="#9ACDD4"/>
<path transform="translate(470,716)" d="m0 0 2 1-10 11-5 5h-2l2-4z" fill="#A9D4DA"/>
<path transform="translate(813,672)" d="m0 0h1v7l-7 19-1-3 5-17z" fill="#93CAD1"/>
<path transform="translate(551,249)" d="m0 0 9 5 12 8-4 1-10-7-7-5z" fill="#9CCED5"/>
<path transform="translate(469,202)" d="m0 0 4 2 7 6v2l4 1 2 4-4-2-9-7-4-4z" fill="#9CCED5"/>
<path transform="translate(437,796)" d="m0 0 3 1-16 16-2-1 4-5h2l2-4 4-2 1-3h2z" fill="#A2D1D7"/>
<path transform="translate(540,642)" d="m0 0 1 3-6 7-4 4-3 4h-2l-1 3-2-1 11-13z" fill="#ABD5DB"/>
<path transform="translate(1337,618)" d="m0 0 3 1-10 5-13 4-5 1 3-3 14-4z" fill="#FEFEFE"/>
<path transform="translate(516,119)" d="m0 0 4 1-18 9h-5l4-3 13-6z" fill="#A2D1D7"/>
<path transform="translate(553,113)" d="m0 0h7l-3 2-8 3-10 4-3-1 5-3 6-2z" fill="#9ECFD6"/>
<path transform="translate(1167,107)" d="m0 0h2l-2 4-7 9h-2v3h-2v2l-3 1 2-4 8-10z" fill="#A2D1D7"/>
<path transform="translate(160,1037)" d="m0 0 5 1 15 9 1 2-6-2-11-6z" fill="#A9D4DA"/>
<path transform="translate(641,751)" d="m0 0 1 4-5 7-5 9h-2l2-5z" fill="#97CCD3"/>
<path transform="translate(715,707)" d="m0 0 1 3-7 16-2 1 1-6 6-13z" fill="#A0D0D7"/>
<path transform="translate(714,485)" d="m0 0h1l-1 9-3 15h-1v-8l2-13z" fill="#B2D9DE"/>
<path transform="translate(584,282)" d="m0 0 4 1 10 8v2l4 1 1 3-4-2-10-8z" fill="#97CCD3"/>
<path transform="translate(573,225)" d="m0 0 4 2 15 12h-3l-5-3-7-5v-2h-2z" fill="#ADD7DC"/>
<path transform="translate(598,178)" d="m0 0 4 4 8 11 3 4-1 2-11-13-3-5z" fill="#A9D4DA"/>
<path transform="translate(621,137)" d="m0 0 2 1-5 5h-2l-1 3h-2v2l-3 3h-2v2l-4 2 2-4 10-10z" fill="#ADD7DC"/>
<path transform="translate(434,1186)" d="m0 0 2 3 7 16-1 3-3-5-4-10-1-1z" fill="#A2D1D7"/>
<path transform="translate(1779,1065)" d="m0 0 6 1 10 8v2l4 2 2 4-8-6-9-8-5-2z" fill="#FEFEFE"/>
<path transform="translate(865,814)" d="m0 0h1v7l-4 12-3 4 1-7z" fill="#A7D3D9"/>
<path transform="translate(1353,659)" d="m0 0 4 1-3 2h-3l1 4 7 1 2 2-6-1-8-3v-3z" fill="#FEFEFE"/>
<path transform="translate(1306,619)" d="m0 0 1 3-8 8h-7l-6-5 1-2 6 5 5-1 7-6z" fill="#FEFEFE"/>
<path transform="translate(480,550)" d="m0 0h9l18 2v1h-22v-2h-5z" fill="#C2E1E5"/>
<path transform="translate(624,526)" d="m0 0 1 4-1 2h-2l-1 5-6 10h-2l2-5z" fill="#9ECFD6"/>
<path transform="translate(647,517)" d="m0 0h2l-3 9-5 11h-1l1-7 4-8z" fill="#9ECFD6"/>
<path transform="translate(709,510)" d="m0 0h1l-1 9-4 13h-1v-6l4-14z" fill="#A7D3D9"/>
<path transform="translate(1133,162)" d="m0 0 1 2-5 17-3 4 1-8 5-14z" fill="#B0D8DD"/>
<path transform="translate(756,124)" d="m0 0 4 1-9 4-8 4-4 3-2-1 8-6 8-4z" fill="#FEFEFE"/>
<path transform="translate(177,1110)" d="m0 0 4 5 2 5v15h-1l-2-13-3-9z" fill="#C5E2E6"/>
<path transform="translate(114,1065)" d="m0 0h9l11 4 2 2-6-1-16-4z" fill="#A9D5DA"/>
<path transform="translate(378,800)" d="m0 0 3 1-6 5h-2v2l-4 2-5 5v-3l11-10z" fill="#9BCED5"/>
<path transform="translate(542,744)" d="m0 0h2l-2 4-6 7-2 1-2 4h-2v2l-3-1 13-14z" fill="#9BCED5"/>
<path transform="translate(1472,291)" d="m0 0 1 4-8 19h-1v-5l4-7 3-10z" fill="#AED7DC"/>
<path transform="translate(1274,51)" d="m0 0h5l-3 3-12 2h-8l3-2z" fill="#AED7DC"/>
<path transform="translate(929,782)" d="m0 0h1v8l-2 10-3 4 1-9z" fill="#7CBFC8"/>
<path transform="translate(831,749)" d="m0 0 1 3-6 18h-1v-6l4-12z" fill="#ACD6DC"/>
<path transform="translate(1198,642)" d="m0 0 7 1 13 5 1 4h-3l-1-4-9-2-8-3z" fill="#FEFEFE"/>
<path transform="translate(622,164)" d="m0 0 1 3-1 8 2 11-3-2-1-4v-14h2z" fill="#A2D1D8"/>
<path transform="translate(1192,85)" d="m0 0 3 1-14 11-4 2 1-3z" fill="#8FC8D0"/>
<path transform="translate(710,88)" d="m0 0h5l3 3-8 2-8-1 3-2z" fill="#E1F0F2"/>
<path transform="translate(159,1085)" d="m0 0 4 1v2l3 1v2h2l6 10-1 3-5-8-9-10z" fill="#AAD5DB"/>
<path transform="translate(1824,1065)" d="m0 0 2 1-8 8-10 8-2-1 10-9z" fill="#FEFEFE"/>
<path transform="translate(663,565)" d="m0 0 1 4-8 16-1-4z" fill="#A0D0D7"/>
<path transform="translate(1259,516)" d="m0 0 3 1 9 15 1 4-5-5-6-11z" fill="#A5D2D9"/>
<path transform="translate(746,388)" d="m0 0 3 4 6 14-1 3v-2h-2l-3-8v-4h-2z" fill="#AFD7DD"/>
<path transform="translate(851,357)" d="m0 0 7 6 8 9v2h-2v-2l-3-1-1-4-4-2-5-6z" fill="#96CBD2"/>
<path transform="translate(517,226)" d="m0 0 14 8 5 5-6-2-5-3v-2l-4-1-4-3z" fill="#9BCED4"/>
<path transform="translate(645,102)" d="m0 0h5l2 4-6 2-4-1 3-1-5-1 2-2z" fill="#A5D2D9"/>
<path transform="translate(851,668)" d="m0 0h2l-1 9-3 12-1-3 2-15z" fill="#B2D9DE"/>
<path transform="translate(735,552)" d="m0 0h1v7l-3 11-3 3 1-7z" fill="#A3D1D8"/>
<path transform="translate(635,506)" d="m0 0 1 4-6 11h-2l-1 5h-2l2-6 5-8z" fill="#9DCFD5"/>
<path transform="translate(1357,495)" d="m0 0v3l-7 9-4 4 2-6 6-8z" fill="#ADD6DC"/>
<path transform="translate(1382,312)" d="m0 0 2 1-2 3h-2l-1 3-6 5-5 4-3-1 10-8 6-5z" fill="#C1E0E4"/>
<path transform="translate(492,222)" d="m0 0h4v2l5 1 7 5 1 3-5-2-12-8z" fill="#9DCFD5"/>
<path transform="translate(684,94)" d="m0 0h11v1h-7l-1 3h-12l4-2z" fill="#62A9B5"/>
<path transform="translate(760,91)" d="m0 0h10v1l-11 2-7 2h-5v-2l10-2z" fill="#033F59"/>
<path transform="translate(426,1167)" d="m0 0 3 4 5 12-1 3v-2h-2l-4-11-1-1z" fill="#B0D8DD"/>
<path transform="translate(589,831)" d="m0 0 1 3-10 15-1 2-2-1 4-7z" fill="#A0D0D7"/>
<path transform="translate(858,837)" d="m0 0h1v6l-3 9-1 6h-2l1-10z" fill="#B0D8DD"/>
<path transform="translate(739,404)" d="m0 0 3 2 3 17v5l-2-4-4-16z" fill="#CAE4E8"/>
<path transform="translate(707,382)" d="m0 0 2 2 4 13v5l-3-4-2-9-1-1z" fill="#A5D3D9"/>
<path transform="translate(730,276)" d="m0 0h4v2l6 2 7 5v2l-5-2-12-8z" fill="#9BCDD4"/>
<path transform="translate(707,262)" d="m0 0 5 1 12 7 1 3-5-2-8-5z" fill="#A0D0D7"/>
<path transform="translate(168,1241)" d="m0 0 4 1-14 7h-4v-2l13-5z" fill="#98CCD3"/>
<path transform="translate(403,1112)" d="m0 0 3 4 5 12-1 2-2-1-4-11-1-1z" fill="#B3D9DE"/>
<path transform="translate(222,1106)" d="m0 0 2 2 3 14v6h-1l-4-15z" fill="#BDDEE3"/>
<path transform="translate(746,838)" d="m0 0 1 4-4 8-2 5-2 1 1-5z" fill="#A3D1D8"/>
<path transform="translate(453,733)" d="m0 0h2l-2 4-10 9-3 1v-2l8-7z" fill="#98CCD3"/>
<path transform="translate(689,492)" d="m0 0h1v8l-4 11-2 2 1-7z" fill="#A3D1D8"/>
<path transform="translate(1394,440)" d="m0 0v3l-9 14-1-4 3-5h2l1-4z" fill="#9DCFD5"/>
<path transform="translate(721,360)" d="m0 0h2l5 9 3 9h-2l-8-16z" fill="#98CCD3"/>
<path transform="translate(651,359)" d="m0 0 2 1 4 12 1 11-2-3-5-19z" fill="#A3D1D8"/>
<path transform="translate(1150,129)" d="m0 0 1 2-5 10-3 5h-2l1-4z" fill="#A3D1D8"/>
<path transform="translate(679,112)" d="m0 0 3 1-14 5-8 1 2-2 11-4z" fill="#98CCD3"/>
<path transform="translate(706,107)" d="m0 0h6v2l-12 4h-3l1-3z" fill="#8DC7CF"/>
<path transform="translate(147,1207)" d="m0 0 2 1-1 2-11 4-1 1h-7l3-2 14-5z" fill="#B1D8DD"/>
<path transform="translate(395,1093)" d="m0 0 2 1 5 13 1 5-3-2-4-10z" fill="#A6D3D9"/>
<path transform="translate(811,389)" d="m0 0h2l4 8 3 10h-2l-7-16z" fill="#9BCDD4"/>
<path transform="translate(1429,381)" d="m0 0 1 2-8 14-1-4 5-9z" fill="#9BCDD4"/>
<path transform="translate(820,346)" d="m0 0 4 2 9 10v2h-2l-7-8-4-4z" fill="#8AC5CD"/>
<path transform="translate(850,74)" d="m0 0h5l1 1h11v1l-9 2h-4v-2h-7z" fill="#FEFEFE"/>
<path transform="translate(1251,56)" d="m0 0h5l-4 3-9 3h-6l2-2z" fill="#B1D8DD"/>
<path transform="translate(224,1169)" d="m0 0h1l-1 7-4 12h-1v-6l3-9z" fill="#A9D4DA"/>
<path transform="translate(787,1124)" d="m0 0h2l7 12-1 4-8-14z" fill="#9DCFD5"/>
<path transform="translate(296,1118)" d="m0 0 1 4-4 8-1 4-3 1 3-9z" fill="#AED7DC"/>
<path transform="translate(349,1095)" d="m0 0h2v2h3l-1 2-4-1-3 9-2 3 1-8z" fill="#A3D1D8"/>
<path transform="translate(821,780)" d="m0 0 1 4-5 14h-1v-6l4-11z" fill="#A3D1D8"/>
<path transform="translate(835,732)" d="m0 0h1v7l-3 10h-2l-1 2 2-9z" fill="#8CC6CE"/>
<path transform="translate(522,663)" d="m0 0h2v2h-2l-1 3h-2l-2 4-5 5h-3l8-8z" fill="#98CCD3"/>
<path transform="translate(825,626)" d="m0 0h1v12l-3 7h-1l1-8z" fill="#A9D4DA"/>
<path transform="translate(832,594)" d="m0 0h2l-1 10-2 6h-1l1-13z" fill="#9DCFD5"/>
<path transform="translate(740,532)" d="m0 0 1 3-2 14-3 3 1-8z" fill="#AED7DC"/>
<path transform="translate(893,472)" d="m0 0 2 1 2 5 2 13-3-4-3-12z" fill="#98CCD3"/>
<path transform="translate(621,314)" d="m0 0 4 2 6 8 2 1-1 4-9-11z" fill="#A3D1D8"/>
<path transform="translate(1204,173)" d="m0 0h2l-2 4-6 13h-1v-5z" fill="#9DCFD5"/>
<path transform="translate(491,147)" d="m0 0 3 1-9 11-2 2 1-5 5-7h2z" fill="#98CCD3"/>
<path transform="translate(773,1099)" d="m0 0 4 4 5 8-1 4-8-14z" fill="#A0D0D7"/>
<path transform="translate(798,845)" d="m0 0 1 3-4 8-2 2-4-1 5-4 3-7z" fill="#8EC7CF"/>
<path transform="translate(1278,546)" d="m0 0 3 1 1 5h2l5 9-1 2-10-15z" fill="#ACD6DB"/>
<path transform="translate(1256,340)" d="m0 0 5 1 13 4v1h-7l-10-4z" fill="#ACD6DB"/>
<path transform="translate(633,329)" d="m0 0 3 1 6 9v3h2l-1 2-3-3-7-10z" fill="#8EC7CF"/>
<path transform="translate(622,279)" d="m0 0h3v2l3 1v2l3 1v2l3 1v2l2 1-4-1-10-10z" fill="#94CAD2"/>
<path transform="translate(575,240)" d="m0 0 4 1 9 7 1 3-4-2-9-7z" fill="#8EC7CF"/>
<path transform="translate(601,98)" d="m0 0h7l-3 3-15 2 1-2 8-1z" fill="#89C5CD"/>
<path transform="translate(744,82)" d="m0 0h2v2h6v1l-7 2h-4v-2h-5v-1z" fill="#FEFEFE"/>
<path transform="translate(781,1030)" d="m0 0 3 3 6 10-1 3v-2h-2l-6-11z" fill="#A9D4DA"/>
<path transform="translate(887,734)" d="m0 0h1v8l-2 8h-2l-1 3 1-6z" fill="#AFD7DD"/>
<path transform="translate(898,676)" d="m0 0h2l-1 11-1 7h-1v-14z" fill="#85C3CB"/>
<path transform="translate(850,446)" d="m0 0h2l4 12-1 4-3-7-2-5z" fill="#9DCFD5"/>
<path transform="translate(1417,401)" d="m0 0h2l-2 5-6 10-1-4 2-4h2l2-6z" fill="#97CCD3"/>
<path transform="translate(1234,328)" d="m0 0 14 7 1 2-9-3-6-4z" fill="#A9D4DA"/>
<path transform="translate(643,286)" d="m0 0 7 6 6 6v2l-3-1-5-6-2-1v-2h-2z" fill="#AFD7DD"/>
<path transform="translate(1234,62)" d="m0 0 3 1-5 3-9 4-2-1 6-4z" fill="#91C9D0"/>
<path transform="translate(448,1220)" d="m0 0 2 3 5 12-1 3-3-5-3-8z" fill="#A6D3D9"/>
<path transform="translate(136,1029)" d="m0 0 6 1 10 3v1h-6l-10-3z" fill="#A6D3D9"/>
<path transform="translate(565,656)" d="m0 0v3l-9 11-1-3 3-4h2v-3h2v-2z" fill="#A0D0D7"/>
<path transform="translate(863,606)" d="m0 0h1l-1 13-1 7h-1v-15h2z" fill="#CCE5E9"/>
<path transform="translate(862,496)" d="m0 0h1l2 8v11l-2-4-1-5z" fill="#87C4CC"/>
<path transform="translate(863,402)" d="m0 0h2l6 10v5l-3-4-5-9z" fill="#A6D3D9"/>
<path transform="translate(771,320)" d="m0 0 4 1 9 9-1 2-5-4v-2l-4-2z" fill="#A6D3D9"/>
<path transform="translate(745,300)" d="m0 0 3 1v4l4 2 3 5-4-2-6-5z" fill="#91C0C8"/>
<path transform="translate(561,266)" d="m0 0 5 1 1 3 4 1 4 4h-3l-11-8z" fill="#A6D3D9"/>
<path transform="translate(589,251)" d="m0 0h3v2l4 2 5 5 1 2-4-2-9-8z" fill="#A0D0D7"/>
<path transform="translate(648,213)" d="m0 0 4 2 11 7-4 1-4-3v-2l-5-1z" fill="#ACD6DC"/>
<path transform="translate(1348,130)" d="m0 0h5l5 3v2l5 1 1 3-16-8z" fill="#ACD6DC"/>
<path transform="translate(650,122)" d="m0 0 3 1-5 3-7 3-4-1 5-3z" fill="#A6D3D9"/>
<path transform="translate(576,100)" d="m0 0 3 1-1 2-8 1-1 1h-7l2-2z" fill="#ACD6DC"/>
<path transform="translate(1342,54)" d="m0 0 6 1 9 2 2 2h-6l-9-2v-2z" fill="#B3D9DE"/>
<path transform="translate(271,1175)" d="m0 0h1l-1 7-5 10-1-3z" fill="#A3D2D8"/>
<path transform="translate(411,1130)" d="m0 0 6 12v3l-3-1-3-7z" fill="#A3D2D8"/>
<path transform="translate(388,1075)" d="m0 0 2 3 4 9v3h-2l-4-9z" fill="#9DCED5"/>
<path transform="translate(189,1055)" d="m0 0 7 6 6 6-1 2-5-4-7-8z" fill="#AAD5DB"/>
<path transform="translate(916,846)" d="m0 0h1l-1 9-2 3h-6l3-2h2l1-4z" fill="#89C5CD"/>
<path transform="translate(804,829)" d="m0 0 1 3-5 13h-1l1-7 3-8z" fill="#A3D2D8"/>
<path transform="translate(796,720)" d="m0 0h1l-1 9-2 5h-2l-1 2 1-5z" fill="#B7DBE0"/>
<path transform="translate(669,551)" d="m0 0h2l-3 10-4 4 1-5z" fill="#A3D2D8"/>
<path transform="translate(700,544)" d="m0 0 1 4-5 13h-1v-7l2-5h2z" fill="#BDDEE3"/>
<path transform="translate(612,547)" d="m0 0 1 4-3 5h-2l-2 5-3-1 6-8z" fill="#9DCED5"/>
<path transform="translate(396,546)" d="m0 0h14v1l-10 1 4 2-3 1-7-3z" fill="#43A3B0"/>
<path transform="translate(668,458)" d="m0 0 1 4-4 12h-1v-6l3-9z" fill="#B0D8DD"/>
<path transform="translate(883,443)" d="m0 0h2l4 11v6l-2-4-4-11z" fill="#A3D2D8"/>
<path transform="translate(673,337)" d="m0 0h3l6 11-1 4-6-11z" fill="#9DCED5"/>
<path transform="translate(1375,147)" d="m0 0 4 1v2l3 1v2l3 1 2 5h-2l-7-8z" fill="#9DCED5"/>
<path transform="translate(759,93)" d="m0 0h8l-4 2-11 3-3-1 3-2z" fill="#B0D8DD"/>
<path transform="translate(162,1196)" d="m0 0 1 3-4 3h-2v2l-5 3-3-1 11-8z" fill="#ADD7DC"/>
<path transform="translate(797,1142)" d="m0 0 3 1 5 9-1 4-7-12z" fill="#A7D3D9"/>
<path transform="translate(332,837)" d="m0 0 2 1-5 5h-2l-1 3-6 2 5-5z" fill="#BBDDE2"/>
<path transform="translate(593,616)" d="m0 0h2l-2 5-6 8-1-4 4-3 2-5z" fill="#ADD7DC"/>
<path transform="translate(1383,510)" d="m0 0 1 2-1 5 5 5v2l-4-2-4-5 2-6z" fill="#ADD7DC"/>
<path transform="translate(1371,475)" d="m0 0v3l-7 10-1-3 6-9z" fill="#A0D0D7"/>
<path transform="translate(815,371)" d="m0 0 4 4 5 8-1 2-4-4-4-7z" fill="#A0D0D7"/>
<path transform="translate(1164,363)" d="m0 0h2l6 10-1 4-7-12z" fill="#A7D3D9"/>
<path transform="translate(579,268)" d="m0 0 4 2 8 6v2l-4-2-7-5z" fill="#93CAD1"/>
<path transform="translate(676,119)" d="m0 0h5l-2 2-12 5h-2v-2l5-2z" fill="#A0D0D7"/>
<path transform="translate(409,1239)" d="m0 0 3 2 3 8v5l-3-4-3-8z" fill="#AAD5DB"/>
<path transform="translate(344,828)" d="m0 0 3 1-8 6h-2v2l-3 1 2-4z" fill="#8FC8CF"/>
<path transform="translate(473,819)" d="m0 0h2l-2 4-9 9-2-1 9-9z" fill="#A3D2D8"/>
<path transform="translate(686,582)" d="m0 0 1 3-5 11h-1v-5l4-8z" fill="#9DCED5"/>
<path transform="translate(655,453)" d="m0 0h1v8l-4 9-1-3z" fill="#B8DCE1"/>
<path transform="translate(713,346)" d="m0 0 3 1 4 7 1 6-2-1-5-10z" fill="#A3D2D8"/>
<path transform="translate(518,174)" d="m0 0h1l2 10 3 5-1 4-4-8-1-3z" fill="#CDE6E9"/>
<path transform="translate(403,1225)" d="m0 0 3 2 3 7v5l-3-4-3-7z" fill="#A7D4DA"/>
<path transform="translate(932,1030)" d="m0 0v3l-5 9-2 1v-4h2l1-4 2-4z" fill="#A7D4DA"/>
<path transform="translate(920,831)" d="m0 0 1 4-3 11h-2l2-11z" fill="#A7D4DA"/>
<path transform="translate(697,744)" d="m0 0h2l-3 9-3 4 1-7z" fill="#99CDD4"/>
<path transform="translate(681,681)" d="m0 0 1 4-6 11-1-4z" fill="#99CDD4"/>
<path transform="translate(612,653)" d="m0 0 1 2-6 10-3 1 2-4z" fill="#AED7DD"/>
<path transform="translate(646,600)" d="m0 0v3l-4 8-3 1 2-5 3-6z" fill="#99CDD4"/>
<path transform="translate(1293,569)" d="m0 0h2l1 2 4 1v-2l3-1-2 4-2 2-4-1z" fill="#AED7DD"/>
<path transform="translate(1462,524)" d="m0 0 6 1 9 3-3 1-12-3z" fill="#B6DBE0"/>
<path transform="translate(727,356)" d="m0 0 4 5 4 6-1 3-5-8v-2h-2z" fill="#92C9D1"/>
<path transform="translate(684,247)" d="m0 0 4 1v2l5 1 3 2v2l-5-2-7-4z" fill="#99CDD4"/>
<path transform="translate(540,171)" d="m0 0h1l1 12 2 5-1 3-2-2-1-5z" fill="#E1F0F2"/>
<path transform="translate(536,151)" d="m0 0m-2 1 2 1-2 1zm-1 2m-2 1 2 1-8 7v-3l2-3z" fill="#6398A6"/>
<path transform="translate(477,140)" d="m0 0 2 1-5 5-5 3-2-1z" fill="#AED7DD"/>
<path transform="translate(1456,133)" d="m0 0 4 4 4 7-1 2-3-3-4-7z" fill="#A7D4DA"/>
<path transform="translate(1360,59)" d="m0 0 6 1 6 2v2l2 1-5-1-9-4z" fill="#92C9D1"/>
<path transform="translate(798,74)" d="m0 0h16v1l-15 1z" fill="#FEFEFE"/>
<path transform="translate(714,277)" d="m0 0 4 1v2l3 1v2l-5-2v-2h-2z" fill="#FEFEFE"/>
<path transform="translate(764,71)" d="m0 0h9v1h-9z" fill="#FEFEFE"/>
<path transform="translate(682,306)" d="m0 0 2 2h-2z" fill="#FEFEFE"/>
<path transform="translate(825,71)" d="m0 0 3 1z" fill="#FEFEFE"/>
<path transform="translate(668,295)" d="m0 0 2 1z" fill="#FEFEFE"/>
<path transform="translate(679,304)" d="m0 0" fill="#FEFEFE"/>
<path transform="translate(665,292)" d="m0 0" fill="#FEFEFE"/>
<path transform="translate(711,275)" d="m0 0" fill="#FEFEFE"/>
<path transform="translate(814,249)" d="m0 0" fill="#FEFEFE"/>
</svg>
