<?xml version="1.0" encoding="UTF-8"?>
<svg xmlns="http://www.w3.org/2000/svg" xmlns:xlink="http://www.w3.org/1999/xlink" viewBox="0 0 500 460.82">
  <defs>
    <style>
      .cls-1 {
        fill: #9fc6ff;
      }

      .cls-1, .cls-2, .cls-3, .cls-4, .cls-5, .cls-6, .cls-7, .cls-8, .cls-9, .cls-10, .cls-11, .cls-12, .cls-13, .cls-14, .cls-15, .cls-16, .cls-17, .cls-18, .cls-19, .cls-20, .cls-21, .cls-22, .cls-23, .cls-24, .cls-25, .cls-26, .cls-27, .cls-28, .cls-29, .cls-30, .cls-31, .cls-32, .cls-33, .cls-34, .cls-35, .cls-36, .cls-37, .cls-38, .cls-39, .cls-40, .cls-41, .cls-42, .cls-43, .cls-44, .cls-45, .cls-46, .cls-47, .cls-48, .cls-49, .cls-50, .cls-51, .cls-52, .cls-53, .cls-54, .cls-55, .cls-56, .cls-57, .cls-58 {
        stroke-width: 0px;
      }

      .cls-2 {
        fill: #009198;
      }

      .cls-3 {
        fill: url(#linear-gradient-12);
      }

      .cls-4 {
        fill: #496f7c;
      }

      .cls-5 {
        fill: url(#linear-gradient-17);
      }

      .cls-6 {
        fill: url(#linear-gradient-19);
      }

      .cls-7 {
        fill: url(#linear-gradient-33);
      }

      .cls-8 {
        fill: url(#linear-gradient);
      }

      .cls-9 {
        fill: #b9d2db;
      }

      .cls-10, .cls-59 {
        opacity: .6;
      }

      .cls-10, .cls-52 {
        fill: #fff;
      }

      .cls-11 {
        fill: url(#linear-gradient-21);
      }

      .cls-12 {
        fill: url(#linear-gradient-6);
      }

      .cls-13 {
        fill: #157496;
      }

      .cls-60 {
        isolation: isolate;
      }

      .cls-14 {
        fill: #129197;
      }

      .cls-15 {
        fill: url(#linear-gradient-15);
      }

      .cls-16 {
        fill: url(#linear-gradient-11);
      }

      .cls-17 {
        fill: #a5b7c6;
      }

      .cls-18 {
        fill: #f0f6ff;
      }

      .cls-19 {
        fill: url(#linear-gradient-5);
      }

      .cls-20 {
        fill: url(#linear-gradient-31);
      }

      .cls-61 {
        opacity: .8;
      }

      .cls-21 {
        fill: #14365b;
      }

      .cls-22 {
        fill: url(#linear-gradient-13);
      }

      .cls-23 {
        fill: url(#linear-gradient-23);
      }

      .cls-24, .cls-29 {
        mix-blend-mode: multiply;
      }

      .cls-24, .cls-36 {
        fill: #dce9ff;
      }

      .cls-25 {
        fill: url(#linear-gradient-25);
      }

      .cls-26 {
        fill: #0a1b35;
      }

      .cls-27 {
        fill: url(#linear-gradient-16);
      }

      .cls-28 {
        fill: url(#linear-gradient-22);
      }

      .cls-29 {
        fill: #61818c;
        opacity: .7;
      }

      .cls-30 {
        fill: #77b3fc;
      }

      .cls-31 {
        fill: url(#linear-gradient-32);
      }

      .cls-32 {
        fill: url(#linear-gradient-20);
      }

      .cls-33 {
        fill: url(#linear-gradient-14);
      }

      .cls-34 {
        fill: url(#linear-gradient-2);
      }

      .cls-35 {
        fill: #0053cc;
      }

      .cls-37 {
        fill: url(#linear-gradient-7);
      }

      .cls-38 {
        fill: url(#linear-gradient-3);
      }

      .cls-39 {
        fill: #0f264c;
      }

      .cls-40 {
        fill: url(#linear-gradient-9);
      }

      .cls-41 {
        fill: url(#linear-gradient-27);
      }

      .cls-42 {
        fill: #ea7063;
      }

      .cls-43 {
        fill: #ff8b7b;
      }

      .cls-44 {
        fill: #111b47;
      }

      .cls-45 {
        fill: #ff5652;
      }

      .cls-46 {
        fill: url(#linear-gradient-8);
      }

      .cls-47 {
        fill: url(#linear-gradient-24);
      }

      .cls-48 {
        fill: url(#linear-gradient-26);
      }

      .cls-49 {
        fill: #05415b;
      }

      .cls-50 {
        fill: url(#linear-gradient-18);
      }

      .cls-51 {
        fill: url(#linear-gradient-30);
      }

      .cls-53 {
        fill: #318fff;
      }

      .cls-54 {
        fill: url(#linear-gradient-29);
      }

      .cls-55 {
        fill: #728787;
      }

      .cls-56 {
        fill: url(#linear-gradient-28);
      }

      .cls-57 {
        fill: url(#linear-gradient-10);
      }

      .cls-58 {
        fill: url(#linear-gradient-4);
      }
    </style>
    <linearGradient id="linear-gradient" x1="-1243.48" y1="2292.2" x2="-1411.63" y2="2513.06" gradientTransform="translate(2450.65 -1484.35) rotate(24.94)" gradientUnits="userSpaceOnUse">
      <stop offset="0" stop-color="#09005d"/>
      <stop offset="1" stop-color="#1a0f91"/>
    </linearGradient>
    <linearGradient id="linear-gradient-2" x1="169.76" y1="159.99" x2="189.05" y2="159.99" gradientUnits="userSpaceOnUse">
      <stop offset="0" stop-color="#dae3fe"/>
      <stop offset="1" stop-color="#e9effd"/>
    </linearGradient>
    <linearGradient id="linear-gradient-3" x1="181.85" y1="135.11" x2="185.71" y2="135.11" xlink:href="#linear-gradient-2"/>
    <linearGradient id="linear-gradient-4" x1="-816.78" y1="1515.9" x2="-878.21" y2="1610.93" gradientTransform="translate(2518.81 -1619.59) rotate(23.09)" gradientUnits="userSpaceOnUse">
      <stop offset="0" stop-color="#fe7062"/>
      <stop offset="1" stop-color="#ff928e"/>
    </linearGradient>
    <linearGradient id="linear-gradient-5" x1="-805.1" y1="1523.43" x2="-866.54" y2="1618.46" xlink:href="#linear-gradient-4"/>
    <linearGradient id="linear-gradient-6" x1="-794.69" y1="1530.16" x2="-856.13" y2="1625.2" xlink:href="#linear-gradient-4"/>
    <linearGradient id="linear-gradient-7" x1="-1368.18" y1="2430.31" x2="-1429.15" y2="2534.36" xlink:href="#linear-gradient-4"/>
    <linearGradient id="linear-gradient-8" x1="-611.89" y1="947.97" x2="-660.28" y2="1011.64" gradientTransform="translate(1434.96 -214.25) rotate(45.05)" xlink:href="#linear-gradient"/>
    <linearGradient id="linear-gradient-9" x1="297.3" y1="22.29" x2="308.58" y2="22.29" xlink:href="#linear-gradient-2"/>
    <linearGradient id="linear-gradient-10" x1="-1287.27" y1="2256.21" x2="-1336.07" y2="2320.4" xlink:href="#linear-gradient"/>
    <linearGradient id="linear-gradient-11" x1="290.04" y1="28.65" x2="294" y2="28.65" xlink:href="#linear-gradient-2"/>
    <linearGradient id="linear-gradient-12" x1="278.96" y1="26.63" x2="290.38" y2="26.63" xlink:href="#linear-gradient-2"/>
    <linearGradient id="linear-gradient-13" x1="284.75" y1="191.98" x2="300.4" y2="191.98" xlink:href="#linear-gradient-2"/>
    <linearGradient id="linear-gradient-14" x1="453.71" y1="201.82" x2="469.36" y2="201.82" xlink:href="#linear-gradient-2"/>
    <linearGradient id="linear-gradient-15" x1="354.03" y1="280.14" x2="369.67" y2="280.14" xlink:href="#linear-gradient-2"/>
    <linearGradient id="linear-gradient-16" x1="384.44" y1="113.65" x2="400.08" y2="113.65" xlink:href="#linear-gradient-2"/>
    <linearGradient id="linear-gradient-17" x1="414.6" y1="277.48" x2="419.34" y2="277.48" xlink:href="#linear-gradient-2"/>
    <linearGradient id="linear-gradient-18" x1="346.63" y1="119.57" x2="351.37" y2="119.57" xlink:href="#linear-gradient-2"/>
    <linearGradient id="linear-gradient-19" x1="449.65" y1="248.36" x2="456.41" y2="248.36" xlink:href="#linear-gradient-2"/>
    <linearGradient id="linear-gradient-20" x1="309.56" y1="148.69" x2="316.33" y2="148.69" xlink:href="#linear-gradient-2"/>
    <linearGradient id="linear-gradient-21" x1="455.9" y1="159.33" x2="463.09" y2="159.33" xlink:href="#linear-gradient-2"/>
    <linearGradient id="linear-gradient-22" x1="302.89" y1="237.72" x2="310.07" y2="237.72" xlink:href="#linear-gradient-2"/>
    <linearGradient id="linear-gradient-23" x1="425.38" y1="125.3" x2="430.66" y2="125.3" xlink:href="#linear-gradient-2"/>
    <linearGradient id="linear-gradient-24" x1="335.31" y1="271.75" x2="340.59" y2="271.75" xlink:href="#linear-gradient-2"/>
    <linearGradient id="linear-gradient-25" x1="308.63" y1="136.87" x2="375.56" y2="136.87" gradientUnits="userSpaceOnUse">
      <stop offset="0" stop-color="#e1473d"/>
      <stop offset="1" stop-color="#e9605a"/>
    </linearGradient>
    <linearGradient id="linear-gradient-26" x1="301.21" y1="-13.86" x2="314.65" y2="71.28" gradientUnits="userSpaceOnUse">
      <stop offset="0" stop-color="#ff928e"/>
      <stop offset="1" stop-color="#feb3b1"/>
    </linearGradient>
    <linearGradient id="linear-gradient-27" x1="376.81" y1="191.55" x2="499.58" y2="191.55" xlink:href="#linear-gradient-25"/>
    <linearGradient id="linear-gradient-28" x1="471.82" y1="119.61" x2="469.57" y2="176.96" xlink:href="#linear-gradient-26"/>
    <linearGradient id="linear-gradient-29" x1="369.64" y1="194.76" x2="386.34" y2="194.76" xlink:href="#linear-gradient-25"/>
    <linearGradient id="linear-gradient-30" x1="328.06" y1="391.5" x2="448.62" y2="391.5" xlink:href="#linear-gradient-2"/>
    <linearGradient id="linear-gradient-31" x1="358.16" y1="317.97" x2="376.73" y2="317.97" xlink:href="#linear-gradient-2"/>
    <linearGradient id="linear-gradient-32" x1="327.2" y1="361.11" x2="449.01" y2="361.11" xlink:href="#linear-gradient-2"/>
    <linearGradient id="linear-gradient-33" x1="393.89" y1="339.69" x2="387.05" y2="393.9" gradientUnits="userSpaceOnUse">
      <stop offset="0" stop-color="#4042e2"/>
      <stop offset="1" stop-color="#4f52ff"/>
    </linearGradient>
  </defs>
  <g class="cls-60">
    <g id="Objects">
      <path class="cls-9" d="M434.39,396.76c-12.25,12.36-23.2,19.62-31.59,25.11-81.82,53.49-175.35,38.07-204.26,32.8-46.65-8.5-86.04-14.5-119.87-44.43C1.78,342.23,5.52,200.35,64.27,112.47c6.97-10.42,65.63-95.56,159.36-107.55,2.29-.29,4-.46,5.5-.62,14.5-1.5,104.35-9.44,177.62,50.66,10.49,8.6,27.37,24.12,43.02,47.79,57.23,86.54,57.41,220.56-15.37,294.01Z"/>
      <g>
        <rect class="cls-2" x="326.9" width="93.62" height="88.81" rx="5.79" ry="5.79"/>
        <g>
          <path class="cls-52" d="M373.71,14.99c-17.1,0-31.01,13.2-31.01,29.41s13.91,29.41,31.01,29.41,31.01-13.2,31.01-29.41-13.91-29.41-31.01-29.41Z"/>
          <path class="cls-2" d="M373.04,51.73c-.4,0-.78-.1-1.12-.3-.64-.37-1.04-1.04-1.04-1.75v-21.24c0-1.13.97-2.05,2.16-2.05s2.16.92,2.16,2.05v17.88l9.09-4.45c.31-.15.65-.23.99-.23.81,0,1.55.42,1.92,1.11.26.49.31,1.04.14,1.56-.18.52-.55.95-1.07,1.2l-12.24,5.99c-.31.15-.65.23-.99.23Z"/>
        </g>
      </g>
      <g>
        <path class="cls-8" d="M248.46,16.04l96.19,44.73c5.31,2.47,7.75,8.66,5.55,14.09l-57.75,142.77c-1.72,4.25-6.61,6.23-10.8,4.37l-111.18-49.26c-3.93-1.74-5.67-6.37-3.86-10.28L231.89,22.09c2.91-6.25,10.32-8.96,16.57-6.05Z"/>
        <path class="cls-34" d="M187.82,178.82c-.18,0-.36-.04-.53-.12l-12.26-5.9c-4.56-2.19-6.54-7.71-4.4-12.3l8.66-18.63c.29-.62,1.02-.89,1.64-.6.62.29.88,1.02.6,1.64l-8.66,18.63c-1.57,3.37-.12,7.43,3.24,9.04l12.26,5.9c.61.29.87,1.03.58,1.64-.21.44-.65.7-1.11.7Z"/>
        <path class="cls-38" d="M183.08,137.85c-.17,0-.35-.04-.52-.11-.62-.29-.88-1.02-.6-1.64l1.4-3.02c.29-.62,1.02-.88,1.64-.6.62.29.88,1.02.6,1.64l-1.4,3.02c-.21.45-.65.71-1.12.71Z"/>
        <g>
          <path class="cls-49" d="M249.28,15.04c12.31,7.89,54.92,34.4,93.6,48.9,1.76.66,2.64,2.64,1.94,4.39l-57.69,143.55c-.79,1.97-3.02,2.93-4.99,2.15-16.14-6.37-82.5-32.86-104.45-46.01-1.34-.8-1.85-2.48-1.2-3.89L244.03,16.59c.92-2,3.39-2.73,5.25-1.54Z"/>
          <path class="cls-14" d="M249,19.33c11.84,7.59,52.85,33.11,90.07,47.06,1.7.64,2.54,2.54,1.87,4.22l-55.52,138.14c-.76,1.89-2.91,2.82-4.81,2.07-15.53-6.13-79.39-31.62-100.52-44.27-1.29-.77-1.78-2.38-1.16-3.75L243.94,20.82c.88-1.93,3.27-2.63,5.05-1.49Z"/>
          <g class="cls-59">
            <path class="cls-52" d="M327.98,75.59c1.07.5,2.14.46,2.37-.08s-.45-1.41-1.51-1.92l-32.78-15.96c-1.06-.52-2-.26-2.08.57-.08.83.73,1.92,1.8,2.42l32.2,14.97Z"/>
          </g>
          <g class="cls-59">
            <path class="cls-52" d="M293.55,63.02c-1.06-.52-2-.26-2.08.57-.08.83.73,1.92,1.8,2.42l32.2,14.97c1.07.5,2.14.46,2.37-.08s-.45-1.41-1.51-1.92l-32.78-15.96Z"/>
          </g>
          <g class="cls-59">
            <path class="cls-52" d="M291.01,68.49c-1.06-.52-2-.26-2.08.57s.73,1.92,1.8,2.42l32.2,14.97c1.07.5,2.14.46,2.37-.08.23-.54-.45-1.41-1.51-1.92l-32.78-15.96Z"/>
          </g>
          <g class="cls-59">
            <path class="cls-52" d="M321.05,99.3c1.07.5,2.12.46,2.33-.09.21-.55-.49-1.41-1.55-1.92l-79.35-37.66c-1.07-.51-1.75-.12-1.51.86.24.98,1.31,2.19,2.38,2.68l77.7,36.13Z"/>
          </g>
          <g class="cls-59">
            <path class="cls-52" d="M239.98,65.02c-1.07-.51-1.75-.12-1.51.86.24.98,1.31,2.19,2.38,2.68l77.7,36.13c1.07.5,2.12.46,2.33-.09s-.49-1.41-1.55-1.92l-79.35-37.66Z"/>
          </g>
          <path class="cls-52" d="M247.66,83.41c-.31-.3-.68-.54-1.1-.72-.01-.01-.03-.01-.04-.03-.34-.14-.73-.29-1.15-.45-2.08-.79-5.01-1.75-7.66-2.61-1.45-.49-2.77-.92-3.72-1.25-.69-.24-1.44-.2-2.06.11-.56.28-.95.75-1.13,1.33l-2.96,9.63c-.46,1.49.38,3.14,1.95,3.83l10.94,4.78s.01.01.03.01c1.53.65,3.29.07,3.91-1.32,1.93-4.22,3.69-8.2,4.02-10.56.15-1.02-.26-2.04-1.03-2.76ZM247.73,86.03c-.31,2.23-2.04,6.75-3.94,10.91-.41.91-1.6,1.46-2.65,1.46h-.03l-10.93-5.41c-1.13-.5-1.74-1.94-1.43-2.96l2.97-9.79c.09-.33.31-.65.64-.82.38-.19.84-.27,1.29-.1.96.33,2.28.75,3.75,1.24,2.33.76,5.09,1.65,7.16,2.4.6.23,1.13.43,1.59.62.38.15.72.38.98.68.45.5.68,1.15.6,1.78Z"/>
          <path class="cls-10" d="M234.45,80.7c2.37.83,7.61,2.45,10,3.44,1.01.42,1.64,1.4,1.5,2.38-.26,1.89-1.77,5.25-3.18,8.34-.42.92-1.6,1.31-2.64.85l-8.74-3.82c-1.07-.47-1.66-1.59-1.35-2.59l2.37-7.69c.24-.8,1.17-1.2,2.05-.89Z"/>
          <g class="cls-59">
            <path class="cls-52" d="M255.54,93.07c-1.07-.49-2.09.07-2.26,1.24l-.27,1.86c-.17,1.17.58,2.5,1.66,2.96l53.16,22.65c1.09.46,2.33-.06,2.77-1.15l.06-.15c.44-1.1-.08-2.39-1.16-2.88l-53.96-24.53Z"/>
          </g>
          <path class="cls-58" d="M234.3,82.34h0c1.02-.13,1.95.6,2.06,1.62l.51,4.81c.05.48.63.7.98.37l10.47-9.67c.52-.48,1.32.1,1.04.75-1.61,3.64-5.55,10.18-13.88,13.51,0,0-2.69-2.63-2.85-9.43-.02-.98.7-1.83,1.67-1.95Z"/>
          <path class="cls-52" d="M237.63,106.95c-.31-.3-.68-.54-1.1-.72-.01-.01-.03-.01-.04-.03-.34-.14-.73-.29-1.15-.45-2.09-.79-5.01-1.75-7.66-2.62-1.45-.48-2.77-.91-3.72-1.24-.69-.24-1.44-.2-2.06.11-.56.29-.95.75-1.13,1.32l-2.96,9.64c-.46,1.48.38,3.14,1.95,3.83l10.94,4.78s.01.01.03.01c1.53.65,3.29.07,3.91-1.32,1.93-4.22,3.69-8.2,4.02-10.58.15-1.02-.26-2.04-1.03-2.74ZM237.7,109.57c-.31,2.23-2.04,6.14-3.94,10.29-.41.91-1.6,1.28-2.65.83,0,0-.01,0-.01-.01l-10.94-4.78c-1.13-.49-1.74-1.63-1.43-2.65l2.97-9.63c.1-.33.31-.58.64-.75.38-.19.86-.22,1.29-.07.97.34,2.28.77,3.75,1.26,2.33.76,5.09,1.67,7.15,2.42.6.23,1.14.43,1.59.62.38.15.71.38.96.67.45.5.69,1.17.61,1.79Z"/>
          <path class="cls-10" d="M224.42,104.24c2.37.83,7.61,2.45,10,3.44,1.01.42,1.64,1.4,1.5,2.38-.26,1.89-1.77,5.25-3.18,8.34-.42.93-1.6,1.31-2.64.85l-8.74-3.82c-1.08-.47-1.66-1.59-1.35-2.59l2.37-7.69c.24-.8,1.17-1.2,2.05-.89Z"/>
          <g class="cls-59">
            <path class="cls-52" d="M245.51,116.61c-1.07-.49-2.09.07-2.26,1.24l-.27,1.86c-.17,1.17.58,2.5,1.66,2.96l53.16,22.65c1.09.46,2.33-.06,2.77-1.15l.06-.15c.44-1.1-.08-2.39-1.16-2.88l-53.96-24.53Z"/>
          </g>
          <path class="cls-19" d="M224.27,105.88h0c1.02-.13,1.95.6,2.06,1.62l.51,4.81c.05.48.63.7.98.37l10.47-9.67c.52-.48,1.33.1,1.04.75-1.61,3.64-5.55,10.18-13.88,13.51,0,0-2.69-2.63-2.85-9.43-.02-.98.7-1.83,1.67-1.95Z"/>
          <path class="cls-52" d="M226.97,129.13c-.33-.31-.71-.57-1.14-.76-.35-.14-.73-.3-1.17-.45-2.12-.8-5.13-1.79-7.64-2.62-1.45-.48-2.77-.91-3.73-1.25-.68-.23-1.44-.19-2.05.12-.56.27-.95.75-1.13,1.32l-2.96,9.63c-.46,1.49.38,3.14,1.96,3.83l10.94,4.79s.01,0,.03.01c1.53.65,3.29.07,3.91-1.32,1.93-4.22,3.69-8.21,4.02-10.58.15-1-.27-2.01-1.03-2.73ZM227.04,131.72c-.31,2.24-2.04,6.15-3.94,10.3-.42.91-1.63,1.24-2.67.81l-10.93-4.78c-1.13-.5-1.74-1.64-1.43-2.66l2.96-9.63c.09-.31.33-.58.64-.73.38-.2.86-.22,1.3-.07.95.34,2.28.77,3.73,1.25,2.33.77,5.1,1.68,7.16,2.43.6.22,1.14.42,1.59.61.38.15.72.39.99.69.45.5.68,1.14.6,1.76Z"/>
          <path class="cls-10" d="M213.76,126.4c2.37.83,7.61,2.45,10,3.44,1.01.42,1.64,1.4,1.5,2.38-.26,1.89-1.77,5.25-3.18,8.34-.42.92-1.6,1.31-2.64.85l-8.74-3.82c-1.07-.47-1.66-1.59-1.35-2.59l2.37-7.69c.24-.8,1.17-1.2,2.05-.89Z"/>
          <g class="cls-59">
            <path class="cls-52" d="M234.85,138.78c-1.07-.49-2.09.07-2.26,1.24l-.27,1.86c-.17,1.17.58,2.5,1.66,2.96l53.16,22.65c1.09.46,2.33-.06,2.77-1.15l.06-.15c.44-1.1-.08-2.39-1.16-2.88l-53.96-24.53Z"/>
          </g>
          <path class="cls-12" d="M213.61,128.05h0c1.02-.13,1.95.6,2.06,1.62l.51,4.81c.05.48.63.7.98.37l10.47-9.67c.52-.48,1.32.1,1.04.75-1.61,3.64-5.55,10.18-13.88,13.51,0,0-2.69-2.63-2.85-9.43-.02-.98.7-1.83,1.67-1.95Z"/>
          <path class="cls-52" d="M215.8,151.91c-.33-.31-.71-.57-1.15-.76-.35-.14-.75-.3-1.17-.45-2.08-.79-5-1.75-7.63-2.62-1.47-.47-2.78-.91-3.73-1.25-.69-.24-1.44-.19-2.06.12-.54.27-.95.75-1.13,1.32l-2.96,9.63c-.46,1.49.38,3.14,1.96,3.83l10.94,4.79s.01,0,.03.01c1.53.65,3.29.05,3.92-1.33,1.93-4.21,3.68-8.2,4.01-10.56.15-1.02-.26-2.01-1.02-2.73ZM215.85,154.5c-.31,2.24-2.04,6.15-3.94,10.3-.41.9-1.59,1.28-2.65.83,0-.01-.01-.01-.01-.01l-10.94-4.79c-1.13-.49-1.74-1.63-1.43-2.65l2.97-9.63c.1-.31.33-.58.64-.73.38-.2.86-.22,1.29-.07.96.33,2.28.77,3.75,1.25,2.33.77,5.09,1.68,7.15,2.43.6.22,1.13.42,1.59.61.38.16.72.41.98.69.45.5.68,1.14.6,1.77Z"/>
          <path class="cls-10" d="M202.57,149.18c2.37.83,7.61,2.45,10,3.44,1.01.42,1.64,1.4,1.5,2.38-.26,1.89-1.77,5.25-3.18,8.34-.42.92-1.6,1.31-2.64.85l-8.74-3.82c-1.07-.47-1.66-1.59-1.35-2.59l2.37-7.69c.24-.8,1.17-1.2,2.05-.89Z"/>
          <g class="cls-59">
            <path class="cls-52" d="M223.67,161.56c-1.07-.49-2.09.07-2.26,1.24l-.27,1.86c-.17,1.17.58,2.5,1.66,2.96l53.16,22.65c1.09.46,2.33-.06,2.77-1.15l.06-.15c.44-1.1-.08-2.39-1.16-2.88l-53.96-24.53Z"/>
          </g>
          <path class="cls-37" d="M202.43,150.83h0c1.02-.13,1.95.6,2.06,1.62l.51,4.81c.05.48.63.7.98.37l10.47-9.67c.52-.48,1.32.1,1.04.75-1.61,3.64-5.55,10.18-13.88,13.51,0,0-2.69-2.63-2.85-9.43-.02-.98.7-1.83,1.67-1.95Z"/>
        </g>
        <path class="cls-46" d="M311.36,22.16c-2.35-4.03-5.39-5.39-7.81-5.76-2.21-.33-4.34.96-5.09,3.05l-3.27,9.16-.46,1.28,10.45,6.04s.83-.45,1.93-1.28c2.86-2.13,7.59-6.79,4.25-12.5ZM301.36,24.02c.69-1.51,2.48-2.16,3.98-1.47,1.51.71,2.16,2.48,1.47,3.99-.71,1.51-2.48,2.16-3.99,1.45-1.51-.69-2.16-2.48-1.45-3.98Z"/>
        <path class="cls-40" d="M308.33,19.85c-1.26-.94-2.67-1.52-4.19-1.75-2.24-.34-4.43.98-5.19,3.11l-.45,1.26c-.08.23-.03.47.14.62.05.07.14.11.22.14.31.12.65-.04.76-.35l.46-1.26c.57-1.6,2.2-2.59,3.88-2.34,1.33.2,2.57.71,3.66,1.52.26.2.64.15.83-.12.2-.26.14-.64-.12-.83ZM298.69,23.71c-.31-.11-.65.05-.76.37l-.6,1.66c-.08.23-.03.46.14.62.07.07.14.11.22.14.31.12.65-.04.76-.35l.6-1.67c.12-.3-.04-.65-.35-.76Z"/>
        <path class="cls-57" d="M276.82,29.45l2.34-5.03c.81-1.74,2.89-2.46,4.6-1.59l34.15,17.33c1.52.77,2.2,2.56,1.57,4.15l-1.96,4.97-40.71-19.82Z"/>
        <path class="cls-16" d="M292.77,30.23c-.17,0-.35-.04-.52-.11l-1.49-.69c-.62-.29-.88-1.02-.6-1.64.29-.62,1.02-.89,1.64-.6l1.49.69c.62.29.88,1.02.6,1.64-.21.45-.65.71-1.12.71Z"/>
        <path class="cls-3" d="M279.13,28.9c-.17-.17-.23-.44-.12-.67l.95-2.04c.39-.84,1.08-1.47,1.95-1.79.87-.32,1.8-.28,2.64.11l5.49,2.55c.3.14.43.49.29.79-.14.3-.49.43-.79.29l-5.49-2.55c-1.13-.53-2.48-.03-3,1.1l-.95,2.04c-.14.3-.49.43-.79.29-.06-.03-.12-.07-.17-.12Z"/>
        <path class="cls-49" d="M266.8,22.55l60.69,28.22c2.18,1.01,3.32,3.45,2.69,5.78l-.09.32c-.69,2.54-3.5,3.86-5.89,2.74l-62.26-28.95c-1.43-.67-2.01-2.39-1.28-3.79l1.43-2.72c.89-1.7,2.97-2.41,4.71-1.59Z"/>
      </g>
      <g>
        <path class="cls-44" d="M496.06,197.7c0,64.81-52.54,117.35-117.35,117.35s-120.26-54.84-120.26-119.65,55.44-115.06,120.26-115.06,117.35,52.54,117.35,117.35Z"/>
        <g>
          <path class="cls-52" d="M267.67,168.62s-.04,0-.07,0c-.14-.04-.22-.18-.18-.31,1.26-4.72,2.86-9.4,4.77-13.91.06-.13.21-.19.34-.14.13.06.19.21.14.34-1.9,4.49-3.5,9.15-4.75,13.84-.03.12-.13.19-.25.19Z"/>
          <path class="cls-52" d="M285.6,131.94c-.05,0-.11-.02-.15-.05-.11-.09-.14-.25-.05-.36,21.64-28.69,56.5-45.82,93.24-45.82,15.69,0,30.86,3.18,45.1,9.45.13.06.19.21.13.34-.06.13-.21.19-.34.13-14.17-6.24-29.28-9.41-44.9-9.41-36.59,0-71.29,17.05-92.83,45.62-.05.07-.13.1-.21.1Z"/>
        </g>
        <path class="cls-49" d="M480.1,197.7c0,56.1-45.48,101.58-101.58,101.58s-104.09-47.47-104.09-103.57,47.99-99.59,104.09-99.59,101.58,45.48,101.58,101.58Z"/>
        <path class="cls-49" d="M480.1,197.7c0-56.1-45.48-101.58-101.58-101.58-30.38,0-58.38,12.76-77.67,33.36l78.25,65.11,16.09,103.32c48.17-7.95,84.91-49.79,84.91-100.21Z"/>
        <path class="cls-4" d="M466.27,190.64c0,50.63-41.9,91.68-93.58,91.68s-95.89-42.84-95.89-93.47,44.21-89.88,95.89-89.88,93.58,41.04,93.58,91.68Z"/>
        <path class="cls-22" d="M300.38,192.44c-.25,4.31-3.95,7.6-8.26,7.35-4.31-.25-7.6-3.95-7.35-8.26.25-4.31,3.95-7.6,8.26-7.35,4.31.25,7.6,3.95,7.35,8.26Z"/>
        <path class="cls-33" d="M469.34,202.27c-.25,4.31-3.95,7.6-8.26,7.35-4.31-.25-7.6-3.95-7.35-8.26.25-4.31,3.95-7.6,8.26-7.35,4.31.25,7.6,3.95,7.35,8.26Z"/>
        <path class="cls-15" d="M363.26,272.45c4.25.78,7.06,4.85,6.29,9.1-.78,4.25-4.85,7.06-9.1,6.29-4.25-.78-7.06-4.85-6.29-9.1.78-4.25,4.85-7.06,9.1-6.29Z"/>
        <path class="cls-27" d="M393.67,105.96c4.25.78,7.06,4.85,6.29,9.1-.78,4.25-4.85,7.06-9.1,6.29-4.25-.78-7.06-4.85-6.29-9.1.78-4.25,4.85-7.06,9.1-6.29Z"/>
        <path class="cls-5" d="M418.86,276.92c.79,2.01.6,3.88-.44,4.19-1.04.31-2.53-1.06-3.32-3.07-.79-2.01-.6-3.88.44-4.19,1.04-.31,2.53,1.06,3.32,3.07Z"/>
        <path class="cls-50" d="M350.88,119c.79,2.01.6,3.88-.44,4.19-1.04.31-2.53-1.06-3.32-3.07-.79-2.01-.6-3.88.44-4.19,1.04-.31,2.53,1.06,3.32,3.07Z"/>
        <path class="cls-6" d="M454.35,246.9c1.72,1.3,2.53,3.01,1.8,3.81-.73.81-2.71.4-4.43-.9-1.72-1.3-2.53-3.01-1.8-3.81.73-.81,2.71-.4,4.43.9Z"/>
        <path class="cls-32" d="M314.26,147.23c1.72,1.3,2.53,3.01,1.8,3.81-.73.81-2.71.4-4.43-.9-1.72-1.3-2.53-3.01-1.8-3.81.73-.81,2.71-.4,4.43.9Z"/>
        <path class="cls-11" d="M458.8,157.49c1.95-.93,3.83-.85,4.21.16.38,1.02-.89,2.59-2.84,3.52-1.95.93-3.83.85-4.21-.16-.38-1.02.89-2.59,2.84-3.52Z"/>
        <path class="cls-28" d="M305.79,235.88c1.95-.93,3.83-.85,4.21.16.38,1.02-.89,2.59-2.84,3.52-1.95.93-3.83.85-4.21-.16-.38-1.02.89-2.59,2.84-3.52Z"/>
        <path class="cls-23" d="M426.47,124.09c1.18-1.8,2.83-2.72,3.69-2.05.85.67.58,2.68-.6,4.48-1.18,1.8-2.83,2.72-3.69,2.05-.85-.67-.58-2.68.6-4.48Z"/>
        <path class="cls-47" d="M336.41,270.53c1.18-1.8,2.83-2.72,3.69-2.05.85.67.58,2.68-.6,4.48-1.18,1.8-2.83,2.72-3.69,2.05-.85-.67-.58-2.68.6-4.48Z"/>
        <path class="cls-25" d="M375.35,191.68l-33.23-61.84c-.64-1.2.22-2.65,1.58-2.65h8.09c1.57,0,2.39-1.88,1.31-3.03l-41.36-44.19c-1.27-1.35-3.5-.14-3.06,1.66l14.27,58.1c.34,1.39,2.09,1.84,3.07.79l6.54-7.05c.81-.87,2.23-.73,2.85.28l36.82,59.72c.51.83,1.6,1.1,2.44.61h0c.84-.49,1.13-1.55.68-2.4Z"/>
        <path class="cls-48" d="M324.06,132c-.13,0-.24-.09-.25-.22-.11-.73-8.5-34.27-11.07-44.54-.11-.45.09-.91.5-1.12.42-.22.9-.13,1.21.22l8.52,9.69c.09.11.08.27-.02.36-.11.09-.27.08-.36-.02l-8.52-9.69c-.19-.21-.43-.19-.59-.11-.16.09-.31.27-.24.54,3.31,13.21,11,44,11.08,44.59.02.14-.08.27-.22.29-.01,0-.02,0-.03,0Z"/>
        <path class="cls-41" d="M378.63,198.14l61.4-2c1.36-.02,2.25,1.42,1.62,2.63l-3.72,7.18c-.72,1.4.57,2.99,2.08,2.56l58.26-16.4c1.78-.5,1.74-3.04-.06-3.48l-58.15-14.06c-1.39-.34-2.6,1.01-2.11,2.36l3.25,9.05c.4,1.12-.37,2.31-1.56,2.4l-61.17,6.16c-.97.07-1.71.91-1.66,1.89h0c.05.97.86,1.72,1.82,1.71Z"/>
        <path class="cls-56" d="M478.8,194.7c-.12,0-.22-.08-.25-.2-.03-.14.05-.28.19-.31l12.52-3.11c.27-.07.37-.29.37-.47,0-.18-.1-.4-.37-.47-13.25-3.14-44.13-10.47-44.69-10.67-.13-.05-.2-.19-.16-.33.05-.13.19-.2.33-.16.69.23,34.34,8.22,44.64,10.66.46.11.76.5.77.96,0,.47-.3.86-.76.97l-12.52,3.11s-.04,0-.06,0Z"/>
        <path class="cls-54" d="M386.34,194.76c0,4.61-3.74,8.35-8.35,8.35s-8.35-3.74-8.35-8.35,3.74-8.35,8.35-8.35,8.35,3.74,8.35,8.35Z"/>
      </g>
      <g>
        <ellipse class="cls-18" cx="250" cy="385.51" rx="193.89" ry="11.32"/>
        <g>
          <g>
            <g>
              <g>
                <path class="cls-35" d="M180.45,241.7c-1.29,0-2.33-1.04-2.33-2.33s1.04-2.33,2.33-2.33c5.71,0,10.54-8.19,10.54-17.89,0-1.29,1.04-2.33,2.33-2.33s2.33,1.04,2.33,2.33c0,12.65-6.68,22.55-15.21,22.55Z"/>
                <path class="cls-35" d="M215.74,241.7c-1.29,0-2.33-1.04-2.33-2.33s1.04-2.33,2.33-2.33c5.71,0,10.54-8.19,10.54-17.89,0-1.29,1.04-2.33,2.33-2.33s2.33,1.04,2.33,2.33c0,12.65-6.68,22.55-15.21,22.55Z"/>
                <path class="cls-35" d="M251.03,241.7c-1.29,0-2.33-1.04-2.33-2.33s1.04-2.33,2.33-2.33c5.71,0,10.54-8.19,10.54-17.89,0-1.29,1.04-2.33,2.33-2.33s2.33,1.04,2.33,2.33c0,12.65-6.68,22.55-15.21,22.55Z"/>
                <path class="cls-35" d="M286.32,241.7c-1.29,0-2.33-1.04-2.33-2.33s1.04-2.33,2.33-2.33c5.71,0,10.54-8.19,10.54-17.89,0-1.29,1.04-2.33,2.33-2.33s2.33,1.04,2.33,2.33c0,12.65-6.68,22.55-15.21,22.55Z"/>
                <path class="cls-35" d="M321.6,241.7c-1.29,0-2.33-1.04-2.33-2.33s1.04-2.33,2.33-2.33c5.71,0,10.54-8.19,10.54-17.89,0-1.29,1.04-2.33,2.33-2.33s2.33,1.04,2.33,2.33c0,12.65-6.68,22.55-15.2,22.55Z"/>
                <path class="cls-35" d="M356.89,241.7c-1.29,0-2.33-1.04-2.33-2.33s1.04-2.33,2.33-2.33c5.71,0,10.54-8.19,10.54-17.89,0-1.29,1.04-2.33,2.33-2.33s2.33,1.04,2.33,2.33c0,12.65-6.68,22.55-15.2,22.55Z"/>
              </g>
              <g>
                <path class="cls-29" d="M158.34,221.53h227.19c6.16,0,11.64,5.04,12.19,11.2l12.58,141.83c.55,6.16-4.05,11.2-10.2,11.2h-227.19c-6.16,0-11.64-5.04-12.19-11.2l-12.58-141.83c-.55-6.16,4.05-11.2,10.2-11.2Z"/>
                <path class="cls-49" d="M383.63,221.53h-227.19c-6.16,0-11.42,5.04-11.7,11.2l-6.4,141.83c-.28,6.16,4.53,11.2,10.69,11.2h227.18c6.16,0,11.42-5.04,11.7-11.2l6.4-141.83c.28-6.16-4.53-11.2-10.69-11.2Z"/>
                <path class="cls-24" d="M160.61,348.28l5.29-117.13c.11-2.36,2.11-4.28,4.47-4.28h198.83c2.36,0,4.19,1.92,4.09,4.28l-5.29,117.13c-.11,2.36-2.11,4.28-4.47,4.28h-198.83c-2.36,0-4.19-1.92-4.09-4.28Z"/>
                <path class="cls-24" d="M154.98,357.83l5.55-123.01c.11-2.48,2.22-4.5,4.7-4.5h208.82c2.48,0,4.4,2.01,4.29,4.5l-5.55,123.01c-.11,2.48-2.22,4.49-4.7,4.49h-208.82c-2.48,0-4.4-2.01-4.29-4.49Z"/>
                <path class="cls-52" d="M149.84,367.75l5.79-128.3c.12-2.59,2.31-4.69,4.9-4.69h217.81c2.59,0,4.59,2.1,4.48,4.69l-5.79,128.3c-.12,2.59-2.31,4.69-4.9,4.69h-217.81c-2.59,0-4.59-2.1-4.48-4.69Z"/>
                <g class="cls-61">
                  <path class="cls-55" d="M190.22,291.4h-23.11c-2.16,0-3.84-1.76-3.74-3.92l1.04-23.11c.1-2.16,1.94-3.92,4.1-3.92h23.11c2.16,0,3.84,1.76,3.74,3.92l-1.04,23.11c-.1,2.16-1.94,3.92-4.1,3.92Z"/>
                  <path class="cls-55" d="M225.51,291.4h-23.11c-2.16,0-3.84-1.76-3.74-3.92l1.04-23.11c.1-2.16,1.94-3.92,4.1-3.92h23.11c2.16,0,3.84,1.76,3.74,3.92l-1.04,23.11c-.1,2.16-1.94,3.92-4.1,3.92Z"/>
                  <path class="cls-55" d="M260.79,291.4h-23.11c-2.16,0-3.84-1.76-3.74-3.92l1.04-23.11c.1-2.16,1.94-3.92,4.1-3.92h23.11c2.16,0,3.84,1.76,3.74,3.92l-1.04,23.11c-.1,2.16-1.94,3.92-4.1,3.92Z"/>
                  <path class="cls-55" d="M296.08,291.4h-23.11c-2.16,0-3.84-1.76-3.74-3.92l1.04-23.11c.1-2.16,1.94-3.92,4.1-3.92h23.11c2.16,0,3.84,1.76,3.74,3.92l-1.04,23.11c-.1,2.16-1.94,3.92-4.1,3.92Z"/>
                  <path class="cls-55" d="M331.37,291.4h-23.11c-2.16,0-3.84-1.76-3.74-3.92l1.04-23.11c.1-2.16,1.94-3.92,4.1-3.92h23.11c2.16,0,3.84,1.76,3.74,3.92l-1.04,23.11c-.1,2.16-1.94,3.92-4.1,3.92Z"/>
                  <path class="cls-55" d="M366.65,291.4h-23.11c-2.16,0-3.84-1.76-3.74-3.92l1.04-23.11c.1-2.16,1.94-3.92,4.1-3.92h23.11c2.16,0,3.84,1.76,3.74,3.92l-1.04,23.11c-.1,2.16-1.94,3.92-4.1,3.92Z"/>
                  <g>
                    <path class="cls-53" d="M356.86,242.45h0c-1.75,0-3.12-1.43-3.04-3.18h0c.07-1.64,1.47-2.98,3.11-2.98h0c1.75,0,3.12,1.43,3.04,3.18h0c-.07,1.64-1.47,2.98-3.11,2.98Z"/>
                    <path class="cls-53" d="M321.57,242.45h0c-1.75,0-3.12-1.43-3.04-3.18h0c.07-1.64,1.47-2.98,3.11-2.98h0c1.75,0,3.12,1.43,3.04,3.18h0c-.07,1.64-1.47,2.98-3.11,2.98Z"/>
                    <path class="cls-53" d="M286.28,242.45h0c-1.75,0-3.12-1.43-3.04-3.18h0c.07-1.64,1.47-2.98,3.11-2.98h0c1.75,0,3.12,1.43,3.04,3.18h0c-.07,1.64-1.47,2.98-3.11,2.98Z"/>
                    <path class="cls-53" d="M250.99,242.45h0c-1.75,0-3.12-1.43-3.04-3.18h0c.07-1.64,1.47-2.98,3.11-2.98h0c1.75,0,3.12,1.43,3.04,3.18h0c-.07,1.64-1.47,2.98-3.11,2.98Z"/>
                    <path class="cls-53" d="M215.71,242.45h0c-1.75,0-3.12-1.43-3.04-3.18h0c.07-1.64,1.47-2.98,3.11-2.98h0c1.75,0,3.12,1.43,3.04,3.18h0c-.07,1.64-1.47,2.98-3.11,2.98Z"/>
                    <path class="cls-53" d="M180.42,242.45h0c-1.75,0-3.12-1.43-3.04-3.18h0c.07-1.64,1.47-2.98,3.11-2.98h0c1.75,0,3.12,1.43,3.04,3.18h0c-.07,1.64-1.47,2.98-3.11,2.98Z"/>
                  </g>
                </g>
                <g>
                  <path class="cls-44" d="M189.24,253.63h-17.75c-1.08,0-1.92-.88-1.87-1.96h0c.05-1.08.97-1.96,2.05-1.96h17.75c1.08,0,1.92.88,1.87,1.96h0c-.05,1.08-.97,1.96-2.05,1.96Z"/>
                  <path class="cls-44" d="M224.53,253.63h-17.75c-1.08,0-1.92-.88-1.87-1.96h0c.05-1.08.97-1.96,2.05-1.96h17.75c1.08,0,1.92.88,1.87,1.96h0c-.05,1.08-.97,1.96-2.05,1.96Z"/>
                  <path class="cls-44" d="M259.82,253.63h-17.75c-1.08,0-1.92-.88-1.87-1.96h0c.05-1.08.97-1.96,2.05-1.96h17.75c1.08,0,1.92.88,1.87,1.96h0c-.05,1.08-.97,1.96-2.05,1.96Z"/>
                  <path class="cls-44" d="M295.1,253.63h-17.75c-1.08,0-1.92-.88-1.87-1.96h0c.05-1.08.97-1.96,2.05-1.96h17.75c1.08,0,1.92.88,1.87,1.96h0c-.05,1.08-.97,1.96-2.05,1.96Z"/>
                  <path class="cls-44" d="M330.39,253.63h-17.75c-1.08,0-1.92-.88-1.87-1.96h0c.05-1.08.97-1.96,2.05-1.96h17.75c1.08,0,1.92.88,1.87,1.96h0c-.05,1.08-.97,1.96-2.05,1.96Z"/>
                  <path class="cls-44" d="M365.68,253.63h-17.75c-1.08,0-1.92-.88-1.87-1.96h0c.05-1.08.97-1.96,2.05-1.96h17.75c1.08,0,1.92.88,1.87,1.96h0c-.05,1.08-.97,1.96-2.05,1.96Z"/>
                </g>
                <g class="cls-61">
                  <path class="cls-55" d="M188.6,327.27h-23.11c-2.16,0-3.84-1.76-3.74-3.92l1.04-23.11c.1-2.16,1.94-3.92,4.1-3.92h23.11c2.16,0,3.84,1.76,3.74,3.92l-1.04,23.11c-.1,2.16-1.94,3.92-4.1,3.92Z"/>
                  <path class="cls-55" d="M223.89,327.27h-23.11c-2.16,0-3.84-1.76-3.74-3.92l1.04-23.11c.1-2.16,1.94-3.92,4.1-3.92h23.11c2.16,0,3.84,1.76,3.74,3.92l-1.04,23.11c-.1,2.16-1.94,3.92-4.1,3.92Z"/>
                  <path class="cls-55" d="M259.17,327.27h-23.11c-2.16,0-3.84-1.76-3.74-3.92l1.04-23.11c.1-2.16,1.94-3.92,4.1-3.92h23.11c2.16,0,3.84,1.76,3.74,3.92l-1.04,23.11c-.1,2.16-1.94,3.92-4.1,3.92Z"/>
                  <path class="cls-55" d="M294.46,327.27h-23.11c-2.16,0-3.84-1.76-3.74-3.92l1.04-23.11c.1-2.16,1.94-3.92,4.1-3.92h23.11c2.16,0,3.84,1.76,3.74,3.92l-1.04,23.11c-.1,2.16-1.94,3.92-4.1,3.92Z"/>
                  <path class="cls-55" d="M329.75,327.27h-23.11c-2.16,0-3.84-1.76-3.74-3.92l1.04-23.11c.1-2.16,1.94-3.92,4.1-3.92h23.11c2.16,0,3.84,1.76,3.74,3.92l-1.04,23.11c-.1,2.16-1.94,3.92-4.1,3.92Z"/>
                  <path class="cls-55" d="M365.04,327.27h-23.11c-2.16,0-3.84-1.76-3.74-3.92l1.04-23.11c.1-2.16,1.94-3.92,4.1-3.92h23.11c2.16,0,3.84,1.76,3.74,3.92l-1.04,23.11c-.1,2.16-1.94,3.92-4.1,3.92Z"/>
                </g>
                <g class="cls-61">
                  <path class="cls-55" d="M186.98,363.13h-23.11c-2.16,0-3.84-1.76-3.74-3.92l1.04-23.11c.1-2.16,1.94-3.92,4.1-3.92h23.11c2.16,0,3.84,1.76,3.74,3.92l-1.04,23.11c-.1,2.16-1.94,3.92-4.1,3.92Z"/>
                  <path class="cls-55" d="M222.27,363.13h-23.11c-2.16,0-3.84-1.76-3.74-3.92l1.04-23.11c.1-2.16,1.94-3.92,4.1-3.92h23.11c2.16,0,3.84,1.76,3.74,3.92l-1.04,23.11c-.1,2.16-1.94,3.92-4.1,3.92Z"/>
                  <path class="cls-55" d="M257.55,363.13h-23.11c-2.16,0-3.84-1.76-3.74-3.92l1.04-23.11c.1-2.16,1.94-3.92,4.1-3.92h23.11c2.16,0,3.84,1.76,3.74,3.92l-1.04,23.11c-.1,2.16-1.94,3.92-4.1,3.92Z"/>
                  <path class="cls-55" d="M292.84,363.13h-23.11c-2.16,0-3.84-1.76-3.74-3.92l1.04-23.11c.1-2.16,1.94-3.92,4.1-3.92h23.11c2.16,0,3.84,1.76,3.74,3.92l-1.04,23.11c-.1,2.16-1.94,3.92-4.1,3.92Z"/>
                  <path class="cls-55" d="M328.13,363.13h-23.11c-2.16,0-3.84-1.76-3.74-3.92l1.04-23.11c.1-2.16,1.94-3.92,4.1-3.92h23.11c2.16,0,3.84,1.76,3.74,3.92l-1.04,23.11c-.1,2.16-1.94,3.92-4.1,3.92Z"/>
                  <path class="cls-36" d="M363.42,363.13h-23.11c-2.16,0-3.84-1.76-3.74-3.92l1.04-23.11c.1-2.16,1.94-3.92,4.1-3.92h23.11c2.16,0,3.84,1.76,3.74,3.92l-1.04,23.11c-.1,2.16-1.94,3.92-4.1,3.92Z"/>
                </g>
              </g>
              <g>
                <path class="cls-44" d="M180.45,241.7c-8.53,0-15.21-9.91-15.21-22.55s6.68-22.55,15.21-22.55,15.21,9.91,15.21,22.55c0,1.29-1.04,2.33-2.33,2.33s-2.33-1.04-2.33-2.33c0-9.7-4.83-17.89-10.54-17.89s-10.54,8.19-10.54,17.89,4.83,17.89,10.54,17.89c1.29,0,2.33,1.04,2.33,2.33s-1.04,2.33-2.33,2.33Z"/>
                <path class="cls-44" d="M215.74,241.7c-8.53,0-15.21-9.91-15.21-22.55s6.68-22.55,15.21-22.55,15.21,9.91,15.21,22.55c0,1.29-1.04,2.33-2.33,2.33s-2.33-1.04-2.33-2.33c0-9.7-4.83-17.89-10.54-17.89s-10.54,8.19-10.54,17.89,4.83,17.89,10.54,17.89c1.29,0,2.33,1.04,2.33,2.33s-1.04,2.33-2.33,2.33Z"/>
                <path class="cls-44" d="M251.03,241.7c-8.53,0-15.21-9.91-15.21-22.55s6.68-22.55,15.21-22.55,15.21,9.91,15.21,22.55c0,1.29-1.04,2.33-2.33,2.33s-2.33-1.04-2.33-2.33c0-9.7-4.83-17.89-10.54-17.89s-10.54,8.19-10.54,17.89,4.83,17.89,10.54,17.89c1.29,0,2.33,1.04,2.33,2.33s-1.04,2.33-2.33,2.33Z"/>
                <path class="cls-44" d="M286.32,241.7c-8.53,0-15.2-9.91-15.2-22.55s6.68-22.55,15.2-22.55,15.21,9.91,15.21,22.55c0,1.29-1.04,2.33-2.33,2.33s-2.33-1.04-2.33-2.33c0-9.7-4.83-17.89-10.54-17.89s-10.54,8.19-10.54,17.89,4.83,17.89,10.54,17.89c1.29,0,2.33,1.04,2.33,2.33s-1.04,2.33-2.33,2.33Z"/>
                <path class="cls-44" d="M321.6,241.7c-8.53,0-15.21-9.91-15.21-22.55s6.68-22.55,15.21-22.55,15.2,9.91,15.2,22.55c0,1.29-1.04,2.33-2.33,2.33s-2.33-1.04-2.33-2.33c0-9.7-4.83-17.89-10.54-17.89s-10.54,8.19-10.54,17.89,4.83,17.89,10.54,17.89c1.29,0,2.33,1.04,2.33,2.33s-1.04,2.33-2.33,2.33Z"/>
                <path class="cls-44" d="M356.89,241.7c-8.53,0-15.2-9.91-15.2-22.55s6.68-22.55,15.2-22.55,15.2,9.91,15.2,22.55c0,1.29-1.04,2.33-2.33,2.33s-2.33-1.04-2.33-2.33c0-9.7-4.83-17.89-10.54-17.89s-10.54,8.19-10.54,17.89,4.83,17.89,10.54,17.89c1.29,0,2.33,1.04,2.33,2.33s-1.04,2.33-2.33,2.33Z"/>
              </g>
            </g>
            <path class="cls-49" d="M288.68,292.69c-8.16-1.62-17.33.27-20.59,8.87-2.63,6.92.74,14.42,8.03,16.25,6.4,1.6,17.44-.36,19.72-7.74,2.61-8.44-7.97-11.18-13.95-11.68-1.79-.15-1.78,2.65,0,2.8,2.71.23,5.81.38,8.2,1.87,5.04,3.13,2.94,8.15-1.32,10.55-4.18,2.35-10.78,3.01-14.96.34-4.6-2.94-4.75-9.38-2.02-13.57,3.61-5.55,10.19-6.17,16.14-4.99,1.76.35,2.51-2.35.74-2.7h0Z"/>
            <g>
              <path class="cls-49" d="M198.65,260.48c7.83,10.35,16.49,19.97,26.01,28.8,1.32,1.22,3.3-.75,1.98-1.98-9.34-8.66-17.88-18.07-25.57-28.23-1.07-1.42-3.5-.03-2.42,1.41h0Z"/>
              <path class="cls-49" d="M201.54,288.1c5.89-10.49,16.23-19.44,25.98-26.29,1.46-1.03.07-3.46-1.41-2.42-10.16,7.14-20.84,16.36-26.98,27.29-.88,1.57,1.53,2.98,2.42,1.41h0Z"/>
            </g>
            <g>
              <path class="cls-49" d="M309.87,269.43h18.24c1.8,0,1.8-2.8,0-2.8h-18.24c-1.8,0-1.8,2.8,0,2.8h0Z"/>
              <path class="cls-49" d="M309.66,274.62h10.57c1.8,0,1.8-2.8,0-2.8h-10.57c-1.8,0-1.8,2.8,0,2.8h0Z"/>
            </g>
            <g>
              <path class="cls-14" d="M200.56,341.07h15.65c1.8,0,1.8-2.8,0-2.8h-15.65c-1.8,0-1.8,2.8,0,2.8h0Z"/>
              <path class="cls-14" d="M199.99,347.08h20.32c1.8,0,1.8-2.8,0-2.8h-20.32c-1.8,0-1.8,2.8,0,2.8h0Z"/>
              <path class="cls-14" d="M199.99,353.3h10.16c1.8,0,1.8-2.8,0-2.8h-10.16c-1.8,0-1.8,2.8,0,2.8h0Z"/>
            </g>
          </g>
          <g>
            <g>
              <path class="cls-43" d="M90.19,184.06l4.73-.22-2.14,8.98s-2.64-1.75-4.58-4.04c-.81-.96-.71-2.39.24-3.21l1.75-1.51Z"/>
              <polygon class="cls-43" points="100.41 188.69 98.29 196.02 92.78 192.82 94.92 183.85 100.41 188.69"/>
            </g>
            <g>
              <rect class="cls-44" x="100.88" y="145.17" width="9.72" height="240.77" transform="translate(-24.03 10.88) rotate(-5.29)"/>
              <rect class="cls-44" x="120.24" y="143.38" width="9.72" height="240.77" transform="translate(-23.79 12.66) rotate(-5.29)"/>
              <rect class="cls-49" x="110.56" y="144.28" width="9.72" height="240.77" transform="translate(-23.91 11.77) rotate(-5.29)"/>
              <polygon class="cls-36" points="107.12 127.58 98.41 128.39 89.8 146.14 118.84 143.45 107.12 127.58"/>
              <polygon class="cls-44" points="102.1 120.78 98.41 128.39 107.12 127.58 102.1 120.78"/>
            </g>
            <g>
              <path class="cls-43" d="M175.28,134.33c.99,1.03,1.83,1.95,2.69,2.95.85.99,1.68,1.98,2.5,2.99,1.65,2.01,3.19,4.1,4.69,6.25,2.97,4.3,5.68,8.89,7.78,14,.26.64.49,1.32.73,1.97l.36,1.01c.2.62.35,1.24.42,1.84.3,2.42-.22,4.29-.77,5.87-1.17,3.15-2.8,5.43-4.48,7.6-3.43,4.26-7.21,7.69-11.43,10.85l-3.77-4.02c2.93-3.77,5.86-7.76,8.12-11.69,1.11-1.94,2.07-3.98,2.43-5.59.18-.78.14-1.43.05-1.49-.01-.03-.04,0-.03.03l-.33-.73c-.23-.5-.44-.99-.68-1.49-2-3.97-4.57-7.9-7.4-11.69-1.4-1.91-2.88-3.77-4.38-5.62-.75-.93-1.51-1.84-2.29-2.74l-2.29-2.62,8.09-7.65Z"/>
              <polygon class="cls-43" points="167.93 188.8 172.19 197.23 176.36 193.64 172.94 187.64 167.93 188.8"/>
              <path class="cls-43" d="M135.84,139.26c-2.59,4.94-5.29,9.82-8.08,14.65-1.38,2.43-2.81,4.82-4.21,7.23l-2.15,3.59-.54.9c-.27.43-.57.94-.83,1.28-.27.38-.55.75-.81,1.06-.27.34-.53.65-.8.95-2.13,2.38-4.26,4.3-6.44,6.22-2.19,1.87-4.38,3.69-6.64,5.42-4.48,3.49-9.07,6.74-13.83,9.84l-3.43-4.32,11.86-11.67c1.94-1.96,3.89-3.89,5.74-5.87,1.85-1.95,3.7-3.96,5.14-5.88.19-.24.35-.47.5-.69.17-.23.29-.44.42-.64.15-.22.17-.34.27-.5l.46-.94,1.86-3.76c1.27-2.49,2.5-5,3.8-7.48,2.55-4.98,5.2-9.9,7.95-14.77l9.76,5.35Z"/>
              <path class="cls-39" d="M163.91,105.49c-.12.58.08,1.13.46,1.22.38.09.78-.3.9-.88s-.08-1.13-.46-1.22c-.38-.09-.78.3-.9.88Z"/>
              <path class="cls-45" d="M163.93,106.61s.6,3.68,1.69,5.65c-1.22.7-2.85-.17-2.85-.17l1.16-5.48Z"/>
              <path class="cls-39" d="M165.44,101.97c-.07,0-.14-.02-.2-.06-.04-.03-1.1-.73-2.49-.16-.18.07-.38-.01-.45-.19-.07-.18.01-.38.19-.45,1.75-.72,3.09.2,3.15.24.16.11.19.33.09.48-.07.1-.18.15-.29.15Z"/>
              <path class="cls-43" d="M143.68,107.7c1.26,5.37,2.69,15.22-.93,18.81,0,0,1.68,5.45,11.67,5.45,10.98,0,5.04-5.45,5.04-5.45-6.05-1.43-6.07-5.88-5.18-10.05l-10.59-8.75Z"/>
              <path class="cls-1" d="M141.39,128.38c-.85-1.73-1.8-3.7-.03-4.32,1.95-.68,12.71-1.38,16.49-.1,3.77,1.28,2.85,4.78,2.85,4.78l-19.31-.36Z"/>
              <path class="cls-52" d="M127,379.29c-.76,0-1.54-.12-1.92-.21-.07-.02-.12-.07-.13-.14-.01-.07.01-.14.07-.17.08-.06,2.03-1.44,3.12-1.2.26.05.45.19.58.41.24.4.15.67.03.83-.27.37-1,.48-1.75.48ZM125.57,378.82c1.1.19,2.6.18,2.91-.23.03-.04.12-.16-.05-.45-.08-.13-.19-.21-.35-.24-.65-.14-1.82.49-2.5.92Z"/>
              <path class="cls-52" d="M125.12,379.09s-.06,0-.09-.03c-.05-.03-.08-.09-.08-.16,0-.09.1-2.21.92-2.91.22-.19.47-.26.74-.23.43.05.54.32.57.47.16.83-1.24,2.42-1.97,2.83-.03.01-.06.02-.08.02ZM126.49,376.11c-.14,0-.27.05-.39.15-.53.45-.71,1.69-.77,2.31.72-.57,1.61-1.77,1.52-2.26,0-.05-.03-.16-.27-.19-.03,0-.05,0-.08,0Z"/>
              <path class="cls-52" d="M171.12,379.29c-.88,0-1.79-.11-2.26-.21-.07-.01-.13-.07-.14-.14-.01-.07.02-.14.08-.18.37-.22,3.63-2.08,4.42-.79.22.36.14.62.04.77-.29.42-1.2.55-2.14.55ZM169.41,378.82c1.38.19,3.24.17,3.56-.28.03-.04.1-.14-.05-.39-.45-.73-2.43.11-3.51.67Z"/>
              <path class="cls-52" d="M168.89,379.09s-.07,0-.1-.03c-.05-.03-.08-.09-.08-.15,0-.08.13-2.06,1.03-2.83.28-.24.6-.34.96-.3.49.05.63.3.66.5.14.85-1.53,2.4-2.41,2.8-.02.01-.05.02-.07.02ZM170.57,376.11c-.22,0-.42.07-.6.23-.59.51-.81,1.7-.88,2.27.88-.54,2.02-1.77,1.93-2.28,0-.04-.03-.18-.36-.21-.04,0-.07,0-.1,0Z"/>
              <polygon class="cls-43" points="160.81 378.91 168.16 378.91 168.23 361.9 160.89 361.9 160.81 378.91"/>
              <polygon class="cls-43" points="116.7 378.91 124.05 378.91 127.09 361.9 119.74 361.9 116.7 378.91"/>
              <path class="cls-21" d="M124.54,378.06h-8.25c-.3,0-.55.21-.61.5l-1.2,6.53c-.12.68.43,1.32,1.13,1.31,2.88-.05,4.27-.22,7.9-.22,2.23,0,6.84.23,9.93.23s3.37-3.05,2.1-3.33c-5.71-1.24-7.91-2.95-9.78-4.57-.34-.29-.77-.45-1.21-.45Z"/>
              <path class="cls-44" d="M168.08,378.06h-8.02c-.3,0-.55.21-.61.5l-1.2,6.53c-.12.68.41,1.32,1.11,1.31,2.89-.05,7.07-.22,10.7-.22,4.25,0,7.94.23,12.92.23,3.02,0,3.74-3.05,2.46-3.33-5.8-1.26-10.49-1.39-15.58-4.45-.55-.33-1.16-.57-1.79-.57Z"/>
              <path class="cls-44" d="M128.74,128.17c-6.82,1.58-14,20.35-14,20.35l14.2,9.48s4.96-7.33,8.53-15.53c3.75-8.59-1.76-15.91-8.73-14.3Z"/>
              <path class="cls-26" d="M134.13,140.14l-5.87,17.41.67.45s2.68-3.97,5.53-9.33l-.33-8.53Z"/>
              <path class="cls-44" d="M174.57,160.99c-.05,8.2-.55,18.4-1.77,31.06h-39.3c-.5-6.03,2.15-35.46-4.76-63.88,0,0,6.68-1.35,13.09-1.66,5.01-.24,12.27-.4,16.7,0,5.84.53,11.38,2.04,11.38,2.04,0,0,3.36,3.64,4.38,20.71.2,3.37.31,7.25.28,11.73Z"/>
              <path class="cls-26" d="M174.57,160.99c-2.38-4.34-6.69-13.05-6.09-18.01l5.8,6.28c.2,3.37.31,7.25.28,11.73Z"/>
              <path class="cls-44" d="M162.2,135.19c-.62,6.97,15.25,23.84,15.25,23.84l12.72-10.36s-5.23-9.06-11.89-15.5c-7.44-7.19-15.38-5.82-16.08,2.03Z"/>
              <g>
                <polygon class="cls-42" points="168.23 361.91 168.2 370.67 160.85 370.67 160.88 361.91 168.23 361.91"/>
                <polygon class="cls-42" points="119.74 361.91 127.09 361.91 125.52 370.67 118.17 370.67 119.74 361.91"/>
              </g>
              <path class="cls-43" d="M145,99.42c-1.08,7.23-2.07,11.4.72,15.96,4.19,6.85,13.6,5.79,16.79-.9,2.87-6.02,4.15-16.84-2.16-21.42-6.21-4.51-14.27-.88-15.35,6.36Z"/>
              <path class="cls-44" d="M166.75,95.99c-3.42,1.93-7.03,2.15-7.03,2.15-1.83,8.37-6.7,17.96-14.58,15.23-3.03-1.05-5.98-8.27-6.31-14.73-.53.64-.87,1.45-1.14,1.79-.67-4.14.46-7.17.93-8.5,2.18-6.18,3.63-2.07,5.95-5.82,1.53-2.48,4.26-3.76,9.01-3.93-1.33.69-1.58,1.81.39,1.64,1.97-.17,10.38-.62,15.28,2.69-3.31.75-1.29,6.02,3.12,3.2-1.53,2.61-3.53,5.09-5.62,6.27Z"/>
              <path class="cls-43" d="M154.09,103.9c0,1.93.78,3.81,1.76,5.09,1.48,1.92,3.2.97,3.61-1.16.36-1.92.03-5.23-1.85-6.39-1.85-1.14-3.52.26-3.52,2.47Z"/>
              <path class="cls-39" d="M145.13,86.89c-1.03-.14-3.38-.45-4.89-3.04,0,0-.13,5.9,4.89,3.04Z"/>
              <path class="cls-1" d="M158.85,192.05s-6.17,56.14-9.93,77.18c-4.12,23.03-20.04,99.76-20.04,99.76h-13.46s9.56-74.86,11.54-97.67c2.15-24.75,6.54-79.26,6.54-79.26h25.35Z"/>
              <path class="cls-53" d="M130.83,364.02c.06,0-1.19,5.17-1.19,5.17h-15.14l.1-4.61,16.23-.56Z"/>
              <path class="cls-30" d="M154.36,212.05c-9.57,1.89-7.16,37.84-5.29,56.33,2.28-13.07,5.37-38.22,7.46-56.07-.65-.32-1.38-.42-2.18-.26Z"/>
              <path class="cls-1" d="M172.79,192.05s3.13,54.93,3.2,77.33c.07,23.3-5.12,99.6-5.12,99.6h-12.44s-3.35-74.94-4.79-97.82c-1.57-24.95-6.67-79.11-6.67-79.11h25.83Z"/>
              <path class="cls-43" d="M175.8,184.99l-3.49.28c-1.21.1-2.03,1.29-1.68,2.45l1.44,4.85c.52,1.73,2.63,2.41,4.04,1.28,1.39-1.12,3.17-3.81,3.74-6.21l-4.04-2.65Z"/>
              <path class="cls-30" d="M167.92,360.04h0c-.07,0-.12-.06-.12-.13,1.38-21.12,4.58-72.2,4.52-90.53-.06-18.75-2.28-60.69-2.96-73.1,0-.07.05-.13.12-.13.06,0,.13.05.13.12.68,12.41,2.91,54.36,2.96,73.11.05,18.33-3.15,69.43-4.52,90.54,0,.07-.06.12-.12.12Z"/>
              <path class="cls-53" d="M173.07,364.02c.06,0-.5,5.17-.5,5.17h-15.14l-.59-4.61,16.23-.56Z"/>
            </g>
          </g>
        </g>
      </g>
      <g>
        <path class="cls-49" d="M325.45,366.38l1.33,39.75c.23,6.93,6.15,12.45,13.4,12.49l99.08.56c4.85.03,8.98-3.36,9.68-7.94,1.55-10.04,3.52-28,1.3-44.86h-124.8Z"/>
        <path class="cls-51" d="M437.11,417.04c-.23,0-.42-.18-.43-.4,0-.23.18-.41.42-.42.82-.02,1.63-.15,2.4-.38.23-.07.46.05.53.27.07.22-.06.45-.28.51-.85.26-1.74.4-2.63.42h-.01ZM431.14,417.01h-2.56c-.24-.02-.43-.2-.42-.43,0-.23.19-.41.43-.41h2.56c.24.02.43.2.42.43,0,.23-.19.41-.43.41ZM422.6,416.96h-2.56c-.24-.02-.43-.2-.42-.43,0-.23.22-.39.43-.41h2.56c.24.02.43.2.42.43,0,.23-.19.41-.43.41ZM414.07,416.91h-2.56c-.24-.02-.43-.2-.42-.43,0-.23.19-.41.43-.41h2.56c.24.02.43.2.42.43,0,.23-.19.41-.43.41ZM405.53,416.86h-2.56c-.24-.02-.43-.2-.42-.43,0-.23.22-.41.43-.41h2.56c.24.02.43.2.42.43,0,.23-.19.41-.43.41ZM397,416.82h-2.56c-.24-.02-.43-.2-.42-.43,0-.23.19-.41.43-.41h2.56c.24.02.43.2.42.43,0,.23-.19.41-.43.41ZM388.46,416.77h-2.56c-.24-.02-.43-.2-.42-.43,0-.23.22-.42.43-.41h2.56c.24.02.43.2.42.43,0,.23-.19.41-.43.41ZM379.92,416.72h-2.56c-.24-.02-.43-.2-.42-.43,0-.23.19-.41.43-.41h2.56c.24.02.43.2.42.43,0,.23-.19.41-.43.41ZM371.39,416.67h-2.56c-.24-.02-.43-.2-.42-.43,0-.23.19-.41.43-.41h2.56c.24.02.43.2.42.43,0,.23-.19.41-.43.41ZM362.85,416.62h-2.56c-.24-.02-.43-.2-.42-.43,0-.23.19-.41.43-.41h2.56c.24.02.43.2.42.43,0,.23-.19.41-.43.41ZM354.32,416.57h-2.56c-.24-.02-.43-.2-.42-.43,0-.23.19-.41.43-.41h2.56c.24.02.43.2.42.43,0,.23-.19.41-.43.41ZM345.78,416.53h-2.56c-.24-.02-.43-.2-.42-.43,0-.23.19-.41.43-.41h2.56c.24.02.43.2.42.43,0,.23-.19.41-.43.41ZM337.4,415.46c-.06,0-.12-.01-.17-.03-.81-.34-1.58-.76-2.3-1.25-.19-.13-.24-.39-.1-.57.14-.19.4-.23.59-.1.67.46,1.4.85,2.15,1.17.22.09.31.33.22.54-.07.15-.23.25-.39.25ZM444.39,413.34c-.09,0-.17-.02-.25-.08-.19-.13-.24-.39-.1-.57.48-.64.86-1.33,1.13-2.07.08-.21.32-.32.55-.25s.34.31.26.52c-.3.81-.72,1.57-1.24,2.27-.08.11-.21.17-.35.17ZM331.25,410c-.15,0-.3-.08-.38-.22-.42-.75-.75-1.54-1.01-2.35-.07-.22.06-.45.29-.51.23-.07.46.06.53.28.23.76.55,1.49.94,2.19.11.2.03.45-.18.56-.06.03-.13.05-.2.05ZM446.58,405.52s-.04,0-.05,0c-.23-.03-.4-.23-.37-.46.1-.78.21-1.6.31-2.44.03-.22.24-.39.47-.36.23.03.4.23.38.45-.1.85-.21,1.66-.31,2.45-.03.21-.21.36-.42.36ZM329.67,402.04c-.23,0-.42-.17-.43-.4l-.08-2.46c0-.23.18-.42.41-.42.24-.02.43.17.44.4l.08,2.46c0,.23-.18.42-.41.42,0,0,0,0-.01,0ZM447.49,397.36s-.02,0-.04,0c-.24-.02-.41-.22-.39-.44.07-.8.14-1.62.2-2.45.02-.23.21-.4.46-.38.24.02.41.21.39.44-.06.83-.13,1.65-.21,2.46-.02.21-.21.37-.42.37ZM329.39,393.84c-.23,0-.42-.17-.43-.4l-.08-2.46c0-.23.18-.42.41-.42.23-.03.43.17.44.4l.08,2.46c0,.23-.18.42-.41.42,0,0,0,0-.01,0ZM448.05,389.18s-.01,0-.02,0c-.24,0-.42-.2-.41-.43.04-.81.07-1.63.09-2.45,0-.23.19-.41.44-.4.24,0,.42.19.42.42-.02.83-.05,1.65-.09,2.47,0,.22-.2.39-.43.39ZM329.12,385.64c-.23,0-.42-.17-.43-.4l-.08-2.46c0-.23.18-.42.41-.42.21-.02.43.17.44.4l.08,2.46c0,.23-.18.42-.41.42,0,0,0,0-.01,0ZM448.19,380.98c-.23,0-.42-.18-.43-.41,0-.81-.02-1.63-.04-2.45,0-.23.18-.41.42-.42.22,0,.43.17.44.4.02.83.04,1.65.04,2.47,0,.23-.19.41-.42.41h0ZM328.84,377.45c-.23,0-.42-.17-.43-.4l-.08-2.46c0-.23.18-.42.41-.42.21-.02.43.17.44.4l.08,2.46c0,.23-.18.42-.41.42,0,0,0,0-.01,0ZM447.86,372.78c-.22,0-.41-.16-.43-.38-.06-.81-.13-1.63-.21-2.44-.02-.23.15-.43.39-.45.24-.02.44.15.46.37.08.82.15,1.64.21,2.46.02.23-.16.42-.4.44-.01,0-.02,0-.03,0ZM328.57,369.25c-.23,0-.42-.17-.43-.4l-.08-2.46c0-.23.18-.42.41-.42.21-.02.43.17.44.4l.08,2.46c0,.23-.18.42-.41.42,0,0,0,0-.01,0ZM444.98,366.79h-2.56c-.24,0-.43-.18-.43-.41s.19-.41.43-.41h2.56c.24,0,.43.18.43.41s-.19.41-.43.41ZM436.45,366.79h-2.56c-.24,0-.43-.18-.43-.41s.19-.41.43-.41h2.56c.24,0,.43.18.43.41s-.19.41-.43.41ZM427.91,366.79h-2.56c-.24,0-.43-.18-.43-.41s.19-.41.43-.41h2.56c.24,0,.43.18.43.41s-.19.41-.43.41ZM419.38,366.79h-2.56c-.24,0-.43-.18-.43-.41s.19-.41.43-.41h2.56c.24,0,.43.18.43.41s-.19.41-.43.41ZM410.84,366.79h-2.56c-.24,0-.43-.18-.43-.41s.19-.41.43-.41h2.56c.24,0,.43.18.43.41s-.19.41-.43.41ZM402.31,366.79h-2.56c-.24,0-.43-.18-.43-.41s.19-.41.43-.41h2.56c.24,0,.43.18.43.41s-.19.41-.43.41ZM393.77,366.79h-2.56c-.24,0-.43-.18-.43-.41s.19-.41.43-.41h2.56c.24,0,.43.18.43.41s-.19.41-.43.41ZM385.23,366.79h-2.56c-.24,0-.43-.18-.43-.41s.19-.41.43-.41h2.56c.24,0,.43.18.43.41s-.19.41-.43.41ZM376.7,366.79h-2.56c-.24,0-.43-.18-.43-.41s.19-.41.43-.41h2.56c.24,0,.43.18.43.41s-.19.41-.43.41ZM368.16,366.79h-2.56c-.24,0-.43-.18-.43-.41s.19-.41.43-.41h2.56c.24,0,.43.18.43.41s-.19.41-.43.41ZM359.63,366.79h-2.56c-.24,0-.43-.18-.43-.41s.19-.41.43-.41h2.56c.24,0,.43.18.43.41s-.19.41-.43.41ZM351.09,366.79h-2.56c-.24,0-.43-.18-.43-.41s.19-.41.43-.41h2.56c.24,0,.43.18.43.41s-.19.41-.43.41ZM342.56,366.79h-2.56c-.24,0-.43-.18-.43-.41s.19-.41.43-.41h2.56c.24,0,.43.18.43.41s-.19.41-.43.41ZM334.02,366.79h-2.56c-.24,0-.43-.18-.43-.41s.19-.41.43-.41h2.56c.24,0,.43.18.43.41s-.19.41-.43.41Z"/>
        <path class="cls-49" d="M354.48,337.52l.3-3.07c.34-.73,1.04-1.25,1.86-1.38,3.09-.47,10.74-1.3,14.43,1.34l.55,3.56-17.14-.47Z"/>
        <path class="cls-49" d="M363.57,334.02c-.71.17-1.42.17-2.14,0-.86-.2-1.47-.95-1.47-1.8v-9.6h5.08v9.59c0,.85-.61,1.6-1.48,1.81Z"/>
        <path class="cls-49" d="M403.18,336.97l.3-3.07c.34-.73,1.04-1.25,1.86-1.38,3.09-.47,10.74-1.3,14.43,1.34l.55,3.56-17.14-.47Z"/>
        <path class="cls-49" d="M412.82,334.02c-.71.17-1.42.17-2.14,0-.86-.2-1.47-.95-1.47-1.8v-10.61h5.08v10.6c0,.85-.61,1.6-1.48,1.81Z"/>
        <path class="cls-49" d="M359.45,324.97l54.68-1.74c1.25-.04,2.3-.9,2.52-2.08.3-1.64.56-4.11.17-6.66-.45-2.9-3.05-5.06-6.11-5.13-10.2-.23-36.17-.23-50.48,5.21-1.51.58-2.64,1.82-3.02,3.33-.37,1.44-.61,3.37-.13,5.34.25,1.04,1.26,1.76,2.38,1.73Z"/>
        <path class="cls-20" d="M359.05,323.39c-.43,0-.8-.31-.85-.74,0-.09-.22-2.17.35-4.17.46-1.64,1.81-2.96,3.52-3.44,3.07-.87,8.95-2.34,13.78-2.47.48-.02.86.34.88.8.01.45-.36.83-.83.84-4.81.13-10.93,1.73-13.35,2.41-1.15.32-2.05,1.2-2.36,2.3-.48,1.71-.3,3.56-.29,3.58.05.45-.3.85-.76.9-.03,0-.06,0-.09,0Z"/>
        <path class="cls-49" d="M329.11,336.33c17.67-.22,94.09-.99,116.29,1.58,1.91.22,3.47,1.57,3.89,3.36,1.31,5.7,3.95,18.93,3.64,32.05-.04,1.79-1.41,3.29-3.24,3.63l-50.67,9.21h-18l-53.99-10.31c-1.9-.36-3.31-1.91-3.4-3.77-.35-6.6-.9-22.09.96-32.06.39-2.12,2.29-3.68,4.54-3.7Z"/>
        <path class="cls-31" d="M381.44,382.38s-.06,0-.08,0l-2.51-.48c-.23-.04-.38-.26-.34-.48.05-.22.27-.37.5-.32l2.51.48c.23.04.38.26.34.48-.04.2-.22.33-.42.33ZM394.65,382.38h-2.56c-.24,0-.43-.18-.43-.41s.19-.41.43-.41h2.56c.24,0,.43.18.43.41s-.19.41-.43.41ZM386.11,382.38h-2.56c-.24,0-.43-.18-.43-.41s.19-.41.43-.41h2.56c.24,0,.43.18.43.41s-.19.41-.43.41ZM400.59,382.02c-.2,0-.38-.14-.42-.33-.04-.22.11-.44.34-.48l2.52-.46c.23-.04.45.1.5.33.04.22-.11.44-.34.48l-2.52.46s-.05,0-.08,0ZM373.07,380.78s-.06,0-.08,0l-2.51-.48c-.23-.04-.38-.26-.34-.48.05-.22.27-.37.5-.32l2.51.48c.23.04.38.26.34.48-.04.2-.22.33-.42.33ZM408.97,380.5c-.2,0-.38-.14-.42-.33-.04-.22.11-.44.34-.48l2.52-.46c.23-.04.46.1.5.33.04.22-.11.44-.34.48l-2.52.46s-.05,0-.08,0ZM364.7,379.18s-.06,0-.08,0l-2.51-.48c-.23-.04-.38-.26-.34-.48.05-.22.27-.37.5-.32l2.51.48c.23.04.38.26.34.48-.04.19-.22.33-.42.33ZM417.36,378.97c-.2,0-.38-.14-.42-.33-.04-.22.11-.44.34-.48l2.52-.46c.23-.04.46.1.5.33.04.22-.11.44-.34.48l-2.52.46s-.05,0-.08,0ZM356.33,377.59s-.06,0-.08,0l-2.51-.48c-.23-.04-.38-.26-.34-.48.05-.22.27-.37.5-.32l2.51.48c.23.04.38.26.34.48-.04.2-.22.33-.42.33ZM425.75,377.45c-.2,0-.38-.14-.42-.33-.04-.22.11-.44.34-.48l2.52-.46c.23-.04.45.1.5.33.04.22-.11.44-.34.48l-2.52.46s-.05,0-.08,0ZM347.95,375.99s-.06,0-.08,0l-2.51-.48c-.23-.04-.38-.26-.34-.48.05-.22.27-.37.5-.32l2.51.48c.23.04.38.26.34.48-.04.2-.22.33-.42.33ZM434.14,375.92c-.2,0-.38-.14-.42-.33-.04-.22.11-.44.34-.48l2.52-.46c.23-.04.45.1.5.33.04.22-.11.44-.34.48l-2.52.46s-.05,0-.08,0ZM442.52,374.4c-.2,0-.38-.14-.42-.33-.04-.22.11-.44.34-.48l2.52-.46c.23-.04.45.1.5.33.04.22-.11.44-.34.48l-2.52.46s-.05,0-.08,0ZM339.58,374.39s-.06,0-.08,0l-2.51-.48c-.23-.04-.38-.26-.34-.48.05-.22.27-.37.5-.32l2.51.48c.23.04.38.26.34.48-.04.19-.22.33-.42.33ZM331.21,372.79s-.06,0-.08,0l-2.51-.48c-.23-.04-.38-.26-.34-.48.05-.22.27-.37.5-.32l2.51.48c.23.04.38.26.34.48-.04.19-.22.33-.42.33ZM448.58,371.01c-.23,0-.43-.18-.43-.41,0-.82-.02-1.64-.05-2.45,0-.23.18-.42.41-.42.23,0,.43.17.44.4.03.82.04,1.65.05,2.47,0,.23-.19.41-.42.41h0ZM327.75,367.15c-.23,0-.42-.17-.43-.4-.03-.78-.05-1.61-.07-2.46,0-.23.18-.41.42-.42.27.01.43.17.44.4.02.85.04,1.68.07,2.46,0,.23-.18.42-.41.42,0,0,0,0-.01,0ZM448.2,362.82c-.22,0-.41-.16-.43-.38-.07-.82-.15-1.64-.23-2.44-.02-.23.15-.43.38-.45.24-.02.44.14.47.37.08.81.16,1.63.23,2.46.02.23-.16.42-.39.44-.01,0-.02,0-.03,0ZM327.62,358.95h0c-.24,0-.43-.18-.43-.41,0-.81,0-1.64.02-2.47,0-.23.18-.4.43-.4.24,0,.42.19.42.42-.01.83-.02,1.65-.02,2.46,0,.23-.19.41-.43.41ZM447.27,354.66c-.21,0-.39-.15-.42-.35-.12-.83-.25-1.65-.37-2.43-.04-.22.12-.43.36-.47.24-.03.45.12.49.34.13.79.25,1.6.37,2.44.03.22-.13.43-.36.46-.02,0-.04,0-.06,0ZM327.84,350.75s-.02,0-.02,0c-.24-.01-.42-.2-.4-.43.05-.83.1-1.65.16-2.46.02-.23.22-.4.46-.38.24.02.41.21.39.44-.06.81-.11,1.62-.16,2.45-.01.22-.2.39-.43.39ZM445.87,346.57c-.2,0-.38-.14-.42-.33-.18-.88-.35-1.69-.5-2.41-.05-.22.1-.44.33-.48.23-.05.46.1.5.32.16.72.33,1.53.5,2.42.04.22-.11.44-.34.48-.03,0-.05,0-.08,0ZM328.63,342.58s-.04,0-.06,0c-.23-.03-.39-.24-.36-.47.08-.48.16-.95.24-1.41.06-.33.36-.58.71-.59h.66c.22,0,.43.17.43.4,0,.23-.19.41-.42.42h-.56c-.08.43-.15.86-.22,1.31-.03.2-.21.35-.42.35ZM440.78,342.1s-.02,0-.04,0c-.8-.06-1.65-.12-2.55-.18-.24-.02-.41-.21-.4-.44.02-.23.21-.39.46-.38.9.06,1.76.12,2.56.18.23.02.41.22.39.44-.02.21-.21.38-.43.38ZM432.26,341.58s-.01,0-.02,0c-.82-.04-1.68-.08-2.56-.11-.24,0-.42-.2-.41-.43.01-.23.22-.41.44-.39.88.04,1.73.07,2.56.11.24.01.42.2.41.43-.01.22-.2.39-.43.39ZM423.73,341.26s0,0-.01,0l-2.56-.08c-.24,0-.42-.2-.41-.42,0-.23.24-.4.44-.4l2.56.08c.24,0,.42.2.41.42,0,.22-.2.4-.43.4ZM415.2,341.03h0l-2.56-.05c-.24,0-.42-.19-.42-.42,0-.23.2-.39.44-.4l2.56.05c.24,0,.42.19.42.42,0,.22-.2.4-.43.4ZM406.66,340.87h0l-2.56-.04c-.24,0-.42-.19-.42-.42,0-.23.17-.42.43-.4l2.56.04c.24,0,.42.19.42.42,0,.22-.19.4-.43.4ZM335.8,340.86c-.23,0-.42-.18-.43-.41,0-.23.19-.41.42-.41l2.56-.03h0c.23,0,.42.18.43.41,0,.23-.19.41-.42.41l-2.56.03h0ZM344.34,340.78c-.23,0-.42-.18-.43-.41,0-.23.19-.41.42-.41l2.56-.02h0c.23,0,.43.18.43.41,0,.23-.19.41-.42.41l-2.56.02h0ZM398.13,340.77h0l-2.56-.02c-.24,0-.43-.19-.42-.41,0-.23.18-.39.43-.41l2.56.02c.24,0,.42.19.42.41,0,.23-.19.41-.43.41ZM352.88,340.72c-.23,0-.43-.18-.43-.41,0-.23.19-.41.42-.41h2.56s0-.01,0-.01c.23,0,.43.18.43.41,0,.23-.19.41-.42.41h-2.56s0,.01,0,.01ZM389.59,340.7h-2.56c-.24-.01-.43-.2-.42-.43,0-.23.19-.41.43-.41h2.56c.24.02.43.2.42.43,0,.23-.19.41-.43.41ZM361.42,340.68c-.24,0-.43-.18-.43-.41,0-.23.19-.41.43-.41h2.56s0,0,0,0c.24,0,.43.18.43.41,0,.23-.19.41-.43.41h-2.56s0,0,0,0ZM381.05,340.66h-2.56c-.24,0-.43-.19-.43-.42,0-.23.19-.41.43-.41h2.56c.24,0,.43.19.43.42,0,.23-.19.41-.43.41ZM369.96,340.66c-.24,0-.43-.18-.43-.41,0-.23.19-.41.43-.41h2.56c.24,0,.43.18.43.41s-.19.41-.43.41h-2.56s0,0,0,0Z"/>
        <path class="cls-7" d="M397.32,393.43h-15.77c-2.07,0-3.81-1.48-4.05-3.44l-1.82-14.58c-.29-2.32,1.61-4.37,4.05-4.37h18.94c2.4,0,4.28,1.97,4.07,4.25l-1.35,14.58c-.19,2.01-1.95,3.56-4.06,3.56Z"/>
        <path class="cls-13" d="M395.38,390.75h-12c-1.57,0-2.9-1.12-3.08-2.62l-1.39-11.1c-.22-1.77,1.22-3.32,3.08-3.32h14.42c1.82,0,3.26,1.5,3.09,3.23l-1.03,11.1c-.14,1.53-1.48,2.71-3.09,2.71Z"/>
      </g>
    </g>
    <g id="Designed_by_Freepik" data-name="Designed by Freepik">
      <g>
        <path class="cls-17" d="M321.42,434.58c0,.79-.61,1.39-1.4,1.39s-1.39-.6-1.39-1.39.6-1.41,1.39-1.41,1.4.62,1.4,1.41Z"/>
        <path class="cls-17" d="M195.05,435.3c0-.46.38-.85.83-.85s.85.38.85.85-.38.83-.85.83-.83-.36-.83-.83Z"/>
      </g>
    </g>
  </g>
</svg>