<?xml version="1.0" encoding="UTF-8"?>
<svg xmlns="http://www.w3.org/2000/svg" viewBox="0 0 500 431.26">
  <defs>
    <style>
      .cls-1 {
        fill: #688087;
      }

      .cls-1, .cls-2, .cls-3, .cls-4, .cls-5, .cls-6, .cls-7, .cls-8, .cls-9, .cls-10, .cls-11, .cls-12, .cls-13, .cls-14, .cls-15, .cls-16, .cls-17 {
        stroke-width: 0px;
      }

      .cls-2 {
        fill: #263238;
      }

      .cls-3, .cls-13 {
        fill: #063e55;
      }

      .cls-4, .cls-10, .cls-17 {
        fill: #000;
      }

      .cls-5 {
        fill: #a02724;
      }

      .cls-6 {
        fill: #a1c9c9;
      }

      .cls-7 {
        fill: #b55b52;
      }

      .cls-8, .cls-16 {
        fill: #129197;
      }

      .cls-9 {
        fill: #407bff;
      }

      .cls-10, .cls-13 {
        opacity: .4;
      }

      .cls-11, .cls-12, .cls-14 {
        fill: #fff;
      }

      .cls-11, .cls-16, .cls-17 {
        opacity: .2;
      }

      .cls-14 {
        opacity: .1;
      }

      .cls-15 {
        fill: #d7e0e0;
      }
    </style>
  </defs>
  <g id="Background_Simple" data-name="Background Simple">
    <path class="cls-6" d="M215.95,65.69c56.75,11.33,148.45-20.64,173.19,49.94,20.75,59.19-21.28,103.63,26.48,154.39,34.81,36.99,90.72,100.73,23.1,139.58-52.88,30.38-127.22,25.9-181.94,4.45-42.98-16.85-129.91-67.07-132.42-123.13-2.82-63,86.04-95.28,3.2-136.72-49.86-24.94-107.01-73.52-58.69-137.68,19.07-25.32,38.95-15.89,59.07.07,29.7,23.56,48.96,41.31,88,49.11Z"/>
  </g>
  <g id="Question_Marks" data-name="Question Marks">
    <g>
      <path class="cls-3" d="M156.87,136.93l-48.56,26.77-2.64-4.92c-4.49-8.37-7.21-15.69-8.14-21.95-.93-6.26-.7-12.57.69-18.93,1.39-6.36,5.64-18.55,12.75-36.57,3.84-9.5,4.49-16.63,1.94-21.38-2.55-4.75-5.91-7.68-10.1-8.79-4.18-1.11-9.08-.11-14.71,2.99-6.05,3.33-9.96,8.12-11.75,14.37-1.78,6.24-.52,14.72,3.8,25.43l-52.92,21.12c-8.21-19.42-9.57-37.94-4.07-55.58,5.5-17.63,20.17-33.02,44.03-46.18C85.76,3.08,102.87-1.25,118.5.31c21.2,2.07,36.56,11.96,46.05,29.66,3.94,7.34,5.74,15.53,5.39,24.55-.34,9.03-4.05,21.87-11.12,38.53-4.9,11.65-7.35,20.19-7.36,25.63,0,5.43,1.79,11.52,5.41,18.25ZM113.67,177.7l52.01-28.67,24.95,46.5-52.01,28.67-24.95-46.5Z"/>
      <path class="cls-3" d="M302.41,86.12l-5.68,9-.9-.57c-1.53-.97-2.67-1.92-3.4-2.87-.74-.95-1.28-2.02-1.64-3.2-.36-1.19-.77-3.61-1.25-7.26-.24-1.94-.79-3.18-1.66-3.73-.87-.55-1.71-.72-2.51-.51-.81.21-1.54.84-2.19,1.88-.71,1.12-.92,2.28-.64,3.49.28,1.2,1.28,2.49,3,3.86l-6.93,8.48c-3.18-2.45-5.13-5.39-5.84-8.83-.71-3.44.33-7.37,3.11-11.79,2.17-3.44,4.64-5.77,7.41-6.98,3.76-1.65,7.25-1.45,10.49.59,1.34.85,2.4,2.03,3.18,3.56.78,1.53,1.35,4.01,1.71,7.43.26,2.39.64,4.04,1.14,4.94.5.9,1.37,1.74,2.6,2.52ZM298.93,96.94l6.08-9.64,8.51,5.36-6.08,9.64-8.51-5.36Z"/>
      <path class="cls-3" d="M382.68,62.6l-7.5-4.08.41-.75c.69-1.28,1.4-2.23,2.12-2.87.72-.64,1.55-1.13,2.48-1.48.93-.35,2.84-.8,5.74-1.37,1.54-.29,2.5-.79,2.9-1.52.39-.72.49-1.4.28-2.04-.21-.63-.75-1.19-1.62-1.66-.93-.51-1.87-.62-2.82-.33-.95.29-1.93,1.15-2.93,2.6l-7.14-5.11c1.79-2.67,4.05-4.38,6.76-5.13,2.72-.75,5.91-.12,9.6,1.88,2.87,1.56,4.86,3.42,5.97,5.57,1.51,2.92,1.54,5.73.07,8.42-.61,1.12-1.5,2.03-2.69,2.73-1.18.7-3.14,1.28-5.86,1.75-1.9.33-3.2.72-3.89,1.17-.7.45-1.32,1.19-1.88,2.21ZM373.85,60.38l8.03,4.37-3.85,7.08-8.03-4.37,3.85-7.08Z"/>
      <path class="cls-3" d="M394.82,83.66l-1.99-6.38.64-.2c1.08-.34,2-.49,2.76-.46.75.04,1.49.21,2.2.52.71.31,2.04,1.1,3.98,2.36,1.02.68,1.84.92,2.45.73.61-.19,1.04-.52,1.26-.99.23-.47.23-1.07,0-1.81-.25-.79-.72-1.37-1.4-1.73-.69-.36-1.71-.4-3.06-.14l-1.22-6.76c2.46-.52,4.66-.25,6.59.81s3.39,3.16,4.36,6.29c.76,2.44.87,4.57.32,6.38-.74,2.46-2.26,4.05-4.55,4.77-.95.3-1.95.32-3,.07-1.05-.25-2.46-.99-4.24-2.21-1.25-.85-2.19-1.34-2.82-1.47-.64-.13-1.39-.05-2.26.22ZM391.06,77.6l2.13,6.83-6.02,1.88-2.13-6.83,6.02-1.88Z"/>
    </g>
  </g>
  <g id="Shadow">
    <ellipse id="_Path_" data-name="&amp;lt;Path&amp;gt;" class="cls-15" cx="250" cy="409.66" rx="193.89" ry="11.32"/>
  </g>
  <g id="Plant">
    <g>
      <path class="cls-2" d="M163.12,410.2c-.1,0-.21-.03-.3-.09-10.18-6.79-6.42-14.51-2.07-23.45,5.65-11.61,12.68-26.06-6.02-45.71-15.89-16.7-23.61-32.7-21.74-45.06,1.01-6.65,4.77-11.97,10.88-15.38.26-.15.59-.05.73.21.15.26.05.59-.21.73-5.81,3.24-9.39,8.29-10.34,14.6-1.83,12.02,5.79,27.7,21.45,44.16,19.22,20.19,12,35.01,6.21,46.92-4.3,8.83-7.69,15.81,1.7,22.08.25.17.32.5.15.75-.1.16-.28.24-.45.24Z"/>
      <path class="cls-2" d="M140.5,283.48c6.68-7.4,4.14-18.38,1.82-24.2-5.23,2.15-9.49,15.95-1.82,24.2Z"/>
      <path class="cls-2" d="M140.49,321.82c-8.66-16.42-24.75-18.45-33.81-19.22,5.36,10.82,19.49,24.27,33.81,19.22Z"/>
      <path class="cls-2" d="M158.13,392.95c11.48-18.86-8.36-32.48-18.8-46.25-4.02,13.9-1.06,37.81,18.8,46.25Z"/>
      <path class="cls-2" d="M156.33,341.89c-13.94-16.32-10.75-28.15-6.97-35.79,7.5,9.67,18.82,26.82,6.97,35.79Z"/>
      <path class="cls-2" d="M136.37,287.9c4.06-4.82,11.09-4.11,14.9-3.12-.91,3.48-9.14,7.29-14.9,3.12Z"/>
      <path class="cls-2" d="M166.41,374.45c1.53-12.46,6.95-11.48,11.19-17.06,2.28,8.25-3.14,15.82-11.19,17.06Z"/>
    </g>
  </g>
  <g id="Character">
    <g>
      <path class="cls-4" d="M330.07,141.85c-6.74,1.56-16.31,5.35-24.8,8.74.14-.63.19-1.29.22-1.94-.44.79-.87,1.57-1.31,2.37-.11.04-.22.08-.32.13.03-.86-.02-1.72-.17-2.56-.23,1.13-.72,2.2-1.43,3.11-.03.04-.08.1-.11.14-.58.23-1.15.46-1.71.69.15-1.73.22-3.45-.03-5.15-.15,1.63-.42,3.24-.79,4.83-.05.24-.11.48-.17.72-.77.32-1.5.61-2.21.92-.15-.61-.32-1.22-.47-1.84-.26.79-.52,1.57-.79,2.35-.32.13-.62.26-.92.38-.13-.92-.34-1.83-.62-2.71-.12,1.07-.25,2.16-.55,3.2-.25.11-.5.21-.74.32-.03-1.64-.24-3.27-.58-4.88-.15,1.25-.31,2.48-.45,3.72-.07.56-.13,1.12-.21,1.67-3.29,1.4-5.35,2.31-5.35,2.31,0,0-.24-11.9,0-29.94.25-18.03,3.83-32.8,11.19-40.04,7.4-7.28,23.08-8.38,30.5-1.94,7.4,6.44,9.5,21.42,6.68,36.08-1.62,8.45,14.03,14.94-4.85,19.3Z"/>
      <path class="cls-7" d="M264.19,223.6l.7-2.14c.56-1.7,1.84-3.06,3.5-3.71l9.26-3.64,4.63,2.26c-1.24,5.05-6.93,10.15-6.93,10.15l-1.45,1.59c-1.29,1.41-3.45,1.82-4.96.94l-3.48-2.03c-1.2-.7-1.7-2.06-1.26-3.42Z"/>
      <path class="cls-7" d="M316.42,164.97c-.18,1.68-.36,3.16-.6,4.72-.22,1.54-.5,3.06-.77,4.59-.57,3.05-1.22,6.08-1.99,9.09-.74,3.02-1.62,6.02-2.59,9-.95,2.99-2.1,5.95-3.33,8.89l-.17.41c-.24.57-.59,1.09-.99,1.51-2.26,2.34-4.49,4-6.74,5.67-2.24,1.66-4.54,3.13-6.83,4.57-2.31,1.42-4.63,2.78-7,4.05-2.37,1.28-4.74,2.5-7.23,3.63-1.73.78-3.77,0-4.55-1.72-.63-1.4-.25-3,.83-3.97l.05-.04c1.93-1.73,3.93-3.44,5.89-5.15,1.97-1.7,3.93-3.4,5.86-5.11,1.94-1.68,3.82-3.42,5.63-5.12,1.78-1.69,3.56-3.48,4.82-5.06l-1.16,1.92c.85-2.67,1.63-5.38,2.33-8.15.68-2.77,1.34-5.55,1.91-8.38.56-2.82,1.12-5.65,1.61-8.5l.71-4.26.65-4.17.03-.2c.58-3.75,4.1-6.32,7.85-5.74,3.63.56,6.15,3.89,5.78,7.51Z"/>
      <path class="cls-4" d="M316.71,145.71c-18.74,2.3-21.94,37.96-20.24,45.17,2.64,6.17,14.13,2.97,14.13,2.97,0,0,18.21-27.04,6.11-48.14Z"/>
      <path class="cls-12" d="M312.5,192.81c-.66,1.57-1.42,2.56-1.68,2.87-.06.07-.13.12-.21.16-1.02.42-8.2,3.17-14.23-.91-.1-.07-.18-.16-.23-.28-.7-1.63-.78-3.72-.76-4.84,0-.4.4-.67.78-.54,2.28.81,9.41,3.12,15.75,2.72.44-.03.76.41.58.82Z"/>
      <path class="cls-4" d="M389.8,409.65c9.13,0,8.47-.14,13.58-.31,4.38-.16,5.48.39,9,.31,2.95-.06,2.62-2.89,1.47-6.14-.58-1.63-1.43-3.63-2.26-6.26h-13.88c-1.61,3.59-5.16,6.29-10.26,6.99-4.86.66-1.3,5.41,2.34,5.41Z"/>
      <path class="cls-4" d="M314.35,409.65c11.61,0,12.72-5.01,17.04-7.65,3.7-2.26,5.17-1.64,8.99-3.79,2.53-1.43,1.41-4.55-.62-6.22-1.58-1.3-3.48-3.11-4.93-5.18l-11.31,5.02c-.62,4.57-2.76,12.24-9.58,12.73-4.88.36-3.17,5.09.43,5.09Z"/>
      <path class="cls-3" d="M316.64,216.59s-22.03,56-24.91,83.77c-.09,22.98,31.79,91.49,31.79,91.49.99,1.71,10.14-3.21,11.31-5.02-11.74-28.66-5.57-64.52-16.16-85.56,22.7-32.29,40.31-92.04,40.31-92.04l-42.34,7.37Z"/>
      <path class="cls-11" d="M312.87,230.52c-.11,0-.22-.08-.24-.19-.03-.13.05-.27.19-.3,4.68-1.06,6.83-4.42,6.85-4.45.08-.12.23-.15.34-.08.12.07.15.23.08.34-.09.14-2.28,3.57-7.16,4.67-.02,0-.04,0-.06,0Z"/>
      <path class="cls-17" d="M337.26,242.42c-4.9,9.93-5.67,24.73-5.28,36.06,6.38-12.66,11.96-26.28,16.37-38.05-.02-.02-.04-.03-.06-.05-3.41-3.16-8.98-2.12-11.04,2.05Z"/>
      <path class="cls-3" d="M329.33,214.38s5.84,52.32,17.46,88.02c5.79,17.8,38.9,58.23,50.92,94.86,2.23,1.24,9.76,1.32,13.88,0,0,0-18.47-80.51-38.36-97.45-.06-43.51,1.5-64.5-8.01-91.66l-35.88,6.24Z"/>
      <path class="cls-11" d="M406.5,392.44c-.12,0-.23-.09-.25-.21-8.23-48.61-37.66-90.96-37.96-91.39-.03-.05-.05-.11-.04-.17,0-.06.51-6.04,1.02-28.1.49-20.8-1.43-43.37-1.67-46.09-1.56.26-9.43,1.33-15.39-2.58-.12-.08-.15-.23-.07-.35.08-.12.23-.15.35-.07,6.43,4.22,15.2,2.47,15.29,2.45.07-.01.14,0,.2.04.06.04.09.11.1.18.02.24,2.22,24.33,1.7,46.42-.49,20.64-.96,27.22-1.02,28.04,1.41,2.03,29.91,43.76,37.99,91.51.02.14-.07.27-.2.29-.01,0-.03,0-.04,0Z"/>
      <g>
        <path class="cls-9" d="M395.08,392.05c.32,1.26.84,3.45,1,5.13.06.6.62,1.16,1.26,1.26,5.31.81,12.32-.36,14.53-.78.42-.08.66-.43.6-.88l-.63-4.8c-.09-.66-.77-1.25-1.43-1.23l-14.59.28c-.57.01-.9.46-.75,1.03Z"/>
        <path class="cls-16" d="M395.08,392.05c.32,1.26.84,3.45,1,5.13.06.6.62,1.16,1.26,1.26,5.31.81,12.32-.36,14.53-.78.42-.08.66-.43.6-.88l-.63-4.8c-.09-.66-.77-1.25-1.43-1.23l-14.59.28c-.57.01-.9.46-.75,1.03Z"/>
      </g>
      <g>
        <path class="cls-9" d="M320.25,387.35c.45,1.26,1.25,3.52,1.77,5.21.17.56.76.86,1.32.7,4.22-1.21,10.41-4.56,12.43-5.68.4-.22.61-.67.53-1.12l-.9-4.85c-.12-.66-.82-1.05-1.44-.8l-13.09,5.2c-.53.21-.81.8-.61,1.34Z"/>
        <path class="cls-16" d="M320.25,387.35c.45,1.26,1.25,3.52,1.77,5.21.17.56.76.86,1.32.7,4.22-1.21,10.41-4.56,12.43-5.68.4-.22.61-.67.53-1.12l-.9-4.85c-.12-.66-.82-1.05-1.44-.8l-13.09,5.2c-.53.21-.81.8-.61,1.34Z"/>
      </g>
      <path class="cls-12" d="M316.38,214.5c.13.65-.55,3.44-1.56,5.91,1.8,1.22,7.96,2.57,15.83,2.91.73-1.21,1.2-4.4,1.77-5.7.31,1.87,2.32,5,3.51,5.76,4.18-.07,8.64-.46,13.05-1.28,15.26-2.86,18.85-7.6,18.85-7.6,0,0-2.92-8.8-3.75-12.03-7.86.62-47.28,1.77-47.7,12.03Z"/>
      <path class="cls-4" d="M302.12,170.21c1.46,4.63,3.3,10.48,7.75,21.18,5.94,15.3,4.54,18.67,6.09,24.95,3.45,1.44,9.32,2.68,13.38,2.58.66-1.48,1.46-2.88,2.72-4.47,1.21.81,4.95,3.14,7.1,3.28,9.72-1.49,22.26-5.26,26.66-9.93-3.36-13.52-4.57-28.26-6.53-60.68-.45-7.52-7.07-12.57-14.22-10.86-1.91.46-3.92.99-5.96,1.59-7.94,2.35-14.42,4.34-21.13,7.39-2.22,1.01-4.5,2.13-6.67,3.25-7.82,4.01-11.8,13.43-9.18,21.72Z"/>
      <path class="cls-7" d="M385.28,223.55l-1.51-1.67c-1.2-1.33-1.74-3.11-1.48-4.88l1.43-9.84,4.26-2.9c3.77,3.58,5.37,11.06,5.37,11.06l.66,2.05c.59,1.82-.13,3.9-1.65,4.78l-3.49,2.01c-1.21.7-2.63.45-3.59-.61Z"/>
      <path class="cls-7" d="M364.31,145.74c1.29,1.2,2.37,2.26,3.49,3.42,1.12,1.13,2.18,2.31,3.25,3.48,2.11,2.36,4.16,4.78,6.1,7.29,1.97,2.49,3.83,5.08,5.6,7.75,1.8,2.64,3.42,5.44,4.99,8.27l.2.36c.15.26.27.56.35.84.9,3.12,1.24,5.88,1.58,8.67.32,2.77.47,5.49.58,8.2.09,2.71.11,5.4.05,8.09-.07,2.7-.18,5.35-.44,8.08-.18,1.89-1.86,3.28-3.76,3.09-1.53-.15-2.72-1.27-3.03-2.7v-.06c-.56-2.53-1.05-5.12-1.56-7.67-.5-2.56-1-5.1-1.53-7.62-.5-2.52-1.07-5.01-1.65-7.43-.58-2.39-1.25-4.82-2-6.69l.55,1.2c-1.6-2.37-3.25-4.71-5.01-7-1.77-2.29-3.58-4.55-5.47-6.77-1.9-2.21-3.81-4.41-5.8-6.56l-2.98-3.19c-.99-1.03-2.04-2.14-2.95-3.05l-.11-.11c-2.67-2.7-2.65-7.05.04-9.72,2.63-2.6,6.83-2.64,9.52-.15Z"/>
      <path class="cls-4" d="M344.22,136.46c17.67-6.63,37.01,23.5,38.84,30.68.51,6.69-11.15,9.17-11.15,9.17,0,0-28.65-15.55-27.69-39.85Z"/>
      <path class="cls-8" d="M321.53,160.15c-.21,0-.42-.11-.54-.31-.17-.3-.07-.68.22-.86,1.46-.85,7.54-6.8,10.05-11.79.16-.31.52-.43.84-.28.31.15.43.53.28.84-2.66,5.28-8.95,11.38-10.54,12.31-.1.06-.21.09-.31.09Z"/>
      <path class="cls-8" d="M319.38,159.84c-.11,0-.22-.03-.31-.09-1.88-1.1-5.2-5.55-4.77-11.33.03-.34.3-.6.67-.58.34.03.6.33.58.67-.42,5.58,2.95,9.46,4.15,10.16.3.17.4.56.22.86-.12.2-.33.31-.54.31Z"/>
      <path class="cls-7" d="M327.67,114.97c1.17,7.37,4.27,20.29,10.27,23.28,0,0-6.78,1.29-17.5,14.53-5.95-4.29-3.64-7.13-3.64-7.13,7.08-4.51,5.5-9.28,2.32-13.99l8.55-16.69Z"/>
      <path class="cls-12" d="M322.73,150.07c4.73-.93,8.52,5.38,8.52,5.38,0,0,8.14-11.44,9.68-18.03-1.9-.28-4.83-1.13-4.83-1.13,0,0-11.65,10.26-13.37,13.78Z"/>
      <path class="cls-12" d="M318.19,150.84s-3.52,2.41-3.02,8.38c-4.5-9.56-.46-12.87-.46-12.87,0,0,1.06-1.5,3.87-2.01-2.91,3.13-.39,6.5-.39,6.5Z"/>
      <path class="cls-17" d="M324.19,121.77l-5.06,9.87c.76,1.11,1.45,2.27,1.98,3.47,2.65-1.67,5.35-6.57,4.55-9.74-.4-1.58-.98-3-1.48-3.6Z"/>
      <path class="cls-12" d="M301.33,125.38h-2.32c-.08,0-.16-.04-.21-.1-.05-.06-.07-.15-.05-.23l1.16-5.35c.03-.13.14-.22.27-.22h0c.13,0,.24.09.27.22l1.16,5.35c.02.08,0,.17-.05.23-.05.06-.13.1-.21.1ZM299.35,124.83h1.64l-.82-3.78-.82,3.78Z"/>
      <path class="cls-7" d="M327.38,99.26c2.76,11.51,4.17,16.31.39,24.12-5.68,11.74-20.02,13.3-26.06,3.01-5.44-9.26-9.04-26.53.33-34.93,9.23-8.28,22.58-3.7,25.34,7.81Z"/>
      <path class="cls-4" d="M295.12,104.2c10.59-2.07,17.02-12.33,22.01-12.03-.76,7.78,5.34,16.57,11.35,16.78,8.13.28.6-19.69-4.86-22.85-5.77-3.34-30.37-3.58-28.5,18.1Z"/>
      <path class="cls-2" d="M323.54,109.39c-.84,0-1.68-.29-2.49-.87-3.67-2.63-5.89-10.8-4.48-16.49.07-.29.36-.47.66-.4.29.07.47.37.4.66-1.29,5.23.75,12.97,4.05,15.34,1.17.84,2.37.88,3.57.11.25-.16.59-.09.75.16.16.25.09.59-.17.76-.76.49-1.54.73-2.31.73Z"/>
      <path class="cls-2" d="M311.35,108.56c.27.96.01,1.91-.58,2.12-.59.22-1.3-.39-1.57-1.34-.27-.96-.01-1.91.58-2.12.59-.22,1.3.39,1.57,1.34Z"/>
      <path class="cls-2" d="M300.22,112.78c.27.96.01,1.91-.58,2.12-.59.22-1.3-.39-1.57-1.34-.27-.96-.01-1.91.58-2.12.59-.22,1.3.39,1.57,1.34Z"/>
      <path class="cls-2" d="M298.93,111.39l-2.37.13s1.63,1.39,2.37-.13Z"/>
      <path class="cls-5" d="M303.79,113.21s-.37,4.67-1.5,7.27c1.54.74,3.42-.53,3.42-.53l-1.93-6.74Z"/>
      <path class="cls-2" d="M311.59,121.39c-.48.18-1.01.33-1.58.43-.15.03-.29-.08-.31-.24-.02-.16.09-.31.25-.34,4.17-.75,5.79-4.14,5.81-4.17.07-.15.24-.22.38-.15.14.06.2.24.13.39-.06.13-1.36,2.86-4.67,4.09Z"/>
      <path class="cls-7" d="M333.08,110.19c-.57,2.61-2.1,4.51-3.72,5.42-2.45,1.37-4.35-1.35-4.24-4.58.1-2.9,1.49-7.11,4.21-7.11,2.69,0,4.4,3.29,3.75,6.27Z"/>
      <path class="cls-2" d="M305.39,104.39c.08-.13.21-.22.36-.25,2.44-.41,3.22-2.39,3.23-2.41.12-.29.44-.43.73-.3.29.13.43.49.31.78-.04.1-1.02,2.59-4.05,3.09-.3.05-.6-.17-.66-.5-.03-.16,0-.31.08-.43Z"/>
      <path class="cls-2" d="M295.33,108.9c-.13.06-.28.06-.42,0-.28-.12-.41-.46-.28-.76,1.27-3.05,3.83-3.65,3.94-3.68.31-.07.59.13.64.45.05.32-.16.63-.47.7-.1.02-2.08.52-3.09,2.94-.07.16-.19.27-.33.33Z"/>
      <path class="cls-2" d="M310.06,107.17l-2.37.13s1.63,1.39,2.37-.13Z"/>
      <path class="cls-8" d="M319.36,155.64c1.22-.22,2.13-.26,2.73-.25.48,0,.89.32,1.02.78.29,1.01.83,2.82,1.15,3.69.45,1.25-3.09,3.82-3.09,3.82,0,0-2.92-1.39-2.99-3.23-.05-1.24.15-2.93.29-3.9.07-.47.43-.83.89-.91Z"/>
      <path class="cls-8" d="M326.68,192.25c-.24-5.76-4.04-32.11-4.04-32.11l-2.81.35c-.21,3.75-2.2,26.28-2.2,32.25s5.1,12.64,5.1,12.64c0,0,4.19-7.36,3.95-13.12Z"/>
      <path class="cls-12" d="M369.74,176.26c1.31,1.08,2.44,1.61,2.81,1.77.09.04.17.05.26.04,1.1-.1,8.74-.98,12.19-7.4.06-.11.09-.23.08-.35-.13-1.77-1.03-3.65-1.57-4.65-.19-.35-.67-.41-.94-.12-1.64,1.78-6.89,7.12-12.7,9.7-.41.18-.48.72-.14,1Z"/>
      <g>
        <g>
          <path class="cls-3" d="M292.01,241.74l-4.91,10.01c-.98,1.99-3.43,2.75-5.36,1.66l-63.29-35.67,5.57-11.36,66.13,30.14c1.98.9,2.82,3.26,1.87,5.22Z"/>
          <path class="cls-13" d="M289.33,243.87l-4.91,10.01c-.98,1.99-3.43,2.75-5.36,1.66l-63.29-35.67,5.57-11.36,66.13,30.14c1.98.9,2.82,3.26,1.87,5.22Z"/>
        </g>
        <g>
          <path class="cls-3" d="M224.05,165.78c-.07-.19-.14-.39-.22-.58-.27-.69-.56-1.39-.86-2.07-.04-.09-.09-.18-.13-.28-.27-.6-.54-1.19-.83-1.77-.1-.21-.21-.42-.31-.62-.25-.5-.52-.99-.79-1.49-.1-.19-.2-.38-.31-.56-.37-.66-.75-1.31-1.16-1.96-.05-.08-.1-.15-.14-.22-.36-.57-.73-1.14-1.11-1.7-.13-.19-.27-.39-.4-.58-.33-.47-.66-.93-1-1.38-.13-.18-.26-.35-.4-.53-.47-.61-.95-1.22-1.44-1.81-.05-.06-.1-.11-.15-.17-.45-.54-.92-1.07-1.39-1.59-.16-.18-.32-.35-.48-.52-.39-.42-.8-.84-1.2-1.25-.16-.16-.32-.32-.48-.48-.56-.55-1.13-1.1-1.71-1.63-.04-.04-.08-.07-.12-.11-.55-.49-1.11-.98-1.68-1.45-.18-.15-.37-.3-.56-.46-.46-.37-.92-.74-1.4-1.1-.19-.14-.37-.29-.56-.43-.65-.48-1.3-.95-1.97-1.41-.03-.02-.05-.03-.08-.05-.65-.44-1.31-.86-1.98-1.28-.21-.13-.42-.26-.63-.38-.52-.31-1.04-.62-1.57-.91-.22-.12-.43-.24-.65-.36-.73-.4-1.47-.78-2.22-1.15-26.73-13.12-58.24-3.73-70.36,20.95l-3.95,8.05c12.11-24.69,43.62-34.07,70.36-20.95.75.37,1.49.76,2.22,1.15.22.12.43.24.65.36.53.3,1.06.6,1.57.91.21.13.42.25.63.38.67.42,1.33.84,1.98,1.28.02.02.05.03.08.05.67.46,1.33.93,1.97,1.41.19.14.38.29.56.43.47.36.94.72,1.39,1.1.19.15.38.3.56.46.57.48,1.13.96,1.68,1.45.04.04.08.07.12.11.59.53,1.15,1.07,1.71,1.63.16.16.32.32.48.48.41.41.81.83,1.2,1.25.16.17.32.35.48.52.47.52.94,1.05,1.39,1.59.05.06.1.11.15.17.49.59.97,1.2,1.44,1.81.13.18.27.35.4.53.34.46.67.92,1,1.38.14.19.27.38.4.58.38.56.75,1.13,1.11,1.7.05.08.1.15.14.22.4.65.78,1.3,1.16,1.96.11.19.21.38.31.56.27.49.53.99.79,1.49.11.21.21.41.31.62.29.59.57,1.18.83,1.77.04.09.09.18.13.28.3.69.59,1.38.86,2.07.08.19.15.39.22.58.2.52.38,1.04.56,1.57.07.22.15.44.22.66.2.6.38,1.2.55,1.81.03.11.07.23.1.34.2.71.38,1.43.54,2.15.05.2.09.4.13.6.12.54.23,1.08.33,1.62.04.23.08.46.12.69.1.61.2,1.21.28,1.82.02.13.04.25.05.38.09.73.16,1.46.22,2.19.02.2.03.4.04.6.04.55.07,1.1.08,1.66,0,.23.01.46.02.69.01.6,0,1.21,0,1.81,0,.14,0,.28,0,.42,0,.23-.03.45-.04.68-.03.67-.07,1.34-.12,2.02-.03.32-.07.64-.1.96-.06.57-.13,1.14-.21,1.71-.05.35-.11.69-.17,1.04-.09.55-.19,1.09-.3,1.64-.07.35-.14.7-.22,1.04-.13.56-.27,1.11-.42,1.66-.09.35-.18.71-.29,1.06-.08.26-.16.52-.24.78-.15.49-.31.97-.48,1.46-.09.27-.19.53-.29.8-.19.5-.38,1-.59,1.5-.09.23-.18.46-.28.69-.31.72-.63,1.44-.98,2.15l3.95-8.05c.35-.71.67-1.43.98-2.15.1-.23.19-.46.28-.69.2-.5.4-1,.59-1.5.1-.27.19-.53.29-.8.17-.48.33-.97.48-1.46.08-.26.16-.52.24-.78.04-.13.08-.25.12-.38.06-.23.11-.45.17-.68.15-.55.29-1.11.42-1.66.08-.35.15-.69.22-1.04.11-.55.21-1.09.31-1.64.06-.35.11-.69.16-1.04.08-.57.15-1.14.21-1.71.03-.32.07-.64.1-.96.06-.67.09-1.34.12-2.02,0-.19.03-.37.03-.56,0-.04,0-.08,0-.12,0-.14,0-.28,0-.42.01-.6.01-1.21,0-1.81,0-.23-.01-.46-.02-.69-.02-.55-.05-1.11-.08-1.66-.01-.2-.02-.4-.04-.59-.06-.73-.13-1.46-.22-2.19-.02-.13-.04-.25-.05-.38-.08-.61-.17-1.22-.28-1.82-.04-.23-.08-.46-.12-.69-.1-.54-.21-1.08-.33-1.62-.04-.2-.08-.4-.13-.6-.17-.72-.35-1.43-.55-2.15-.03-.11-.07-.23-.1-.34-.17-.6-.36-1.21-.55-1.8-.07-.22-.15-.44-.22-.66-.18-.52-.37-1.05-.56-1.57Z"/>
          <path class="cls-10" d="M224.05,165.2c-.07-.19-.14-.39-.22-.58-.27-.7-.56-1.39-.86-2.07-.04-.09-.09-.18-.13-.28-.27-.6-.54-1.19-.83-1.77-.1-.21-.21-.42-.31-.62-.25-.5-.52-.99-.79-1.49-.1-.19-.2-.38-.31-.56-.37-.66-.75-1.31-1.16-1.96-.05-.08-.1-.15-.14-.22-.36-.57-.73-1.14-1.11-1.7-.13-.19-.27-.39-.4-.58-.33-.47-.66-.93-1-1.38-.13-.18-.26-.35-.4-.53-.47-.61-.95-1.22-1.44-1.81-.05-.06-.1-.11-.15-.17-.45-.54-.92-1.07-1.39-1.59-.16-.18-.32-.35-.48-.52-.39-.42-.8-.84-1.2-1.25-.16-.16-.32-.32-.48-.48-.56-.55-1.13-1.1-1.71-1.63-.04-.04-.08-.07-.12-.11-.55-.49-1.11-.98-1.68-1.45-.18-.15-.37-.3-.56-.46-.46-.37-.92-.74-1.4-1.1-.19-.14-.37-.29-.56-.43-.65-.48-1.3-.95-1.97-1.41-.03-.02-.05-.03-.08-.05-.65-.44-1.31-.86-1.98-1.28-.21-.13-.42-.26-.63-.38-.52-.31-1.04-.62-1.57-.91-.22-.12-.43-.24-.65-.36-.73-.4-1.47-.78-2.22-1.15-26.73-13.12-58.24-3.73-70.36,20.95l-3.95,8.05c12.11-24.69,43.62-34.07,70.36-20.95.75.37,1.49.76,2.22,1.15.22.12.43.24.65.36.53.3,1.06.6,1.57.91.21.13.42.25.63.38.67.42,1.33.84,1.98,1.28.02.02.05.03.08.05.67.46,1.33.93,1.97,1.41.19.14.38.29.56.43.47.36.94.72,1.39,1.1.19.15.38.3.56.46.57.48,1.13.96,1.68,1.45.04.04.08.07.12.11.59.53,1.15,1.08,1.71,1.63.16.16.32.32.48.48.41.41.81.83,1.2,1.25.16.17.32.35.48.52.47.52.94,1.05,1.39,1.59.05.06.1.11.15.17.49.59.97,1.2,1.44,1.81.13.18.27.35.4.53.34.46.67.92,1,1.38.14.19.27.38.4.58.38.56.75,1.13,1.11,1.7.05.08.1.15.14.22.4.65.78,1.3,1.16,1.96.11.19.21.38.31.56.27.49.53.99.79,1.49.11.21.21.41.31.62.29.59.57,1.18.83,1.77.04.09.09.18.13.28.3.69.59,1.38.86,2.07.08.19.15.39.22.58.2.52.38,1.04.56,1.57.07.22.15.44.22.66.2.6.38,1.2.55,1.81.03.11.07.23.1.34.2.71.38,1.43.54,2.15.05.2.09.4.13.6.12.54.23,1.08.33,1.62.04.23.08.46.12.69.1.61.2,1.21.28,1.82.02.13.04.25.05.38.09.73.16,1.46.22,2.19.02.2.03.4.04.6.04.55.07,1.1.08,1.66,0,.23.01.46.02.69.01.6,0,1.21,0,1.81,0,.14,0,.28,0,.42,0,.23-.03.45-.04.68-.03.67-.07,1.34-.12,2.02-.03.32-.07.64-.1.96-.06.57-.13,1.14-.21,1.71-.05.35-.11.69-.17,1.04-.09.55-.19,1.09-.3,1.64-.07.35-.14.7-.22,1.04-.13.56-.27,1.11-.42,1.66-.09.35-.18.71-.29,1.06-.08.26-.16.52-.24.78-.15.49-.31.97-.48,1.46-.09.27-.19.53-.29.8-.19.5-.38,1-.59,1.5-.09.23-.18.46-.28.69-.31.72-.63,1.44-.98,2.15l3.95-8.05c.35-.71.67-1.43.98-2.15.1-.23.19-.46.28-.69.2-.5.4-1,.59-1.5.1-.27.19-.53.29-.8.17-.48.33-.97.48-1.46.08-.26.16-.52.24-.78.04-.13.08-.25.12-.38.06-.23.11-.45.17-.68.15-.55.29-1.11.42-1.66.08-.35.15-.69.22-1.04.11-.55.21-1.09.31-1.64.06-.35.11-.69.16-1.04.08-.57.15-1.14.21-1.71.03-.32.07-.64.1-.96.06-.67.09-1.34.12-2.02,0-.19.03-.37.03-.56,0-.04,0-.08,0-.12,0-.14,0-.28,0-.42.01-.6.01-1.21,0-1.81,0-.23-.01-.46-.02-.69-.02-.55-.05-1.11-.08-1.66-.01-.2-.02-.4-.04-.59-.06-.73-.13-1.46-.22-2.19-.02-.13-.04-.25-.05-.38-.08-.61-.17-1.22-.28-1.82-.04-.23-.08-.46-.12-.69-.1-.54-.21-1.08-.33-1.62-.04-.2-.08-.4-.13-.6-.17-.72-.35-1.43-.55-2.15-.03-.11-.07-.23-.1-.34-.17-.6-.36-1.21-.55-1.8-.07-.22-.15-.44-.22-.66-.18-.52-.37-1.05-.56-1.57Z"/>
        </g>
        <g>
          <path class="cls-3" d="M145.71,238.16c-.98-.48-1.93-.98-2.88-1.5-.28-.15-.56-.31-.84-.47-.69-.39-1.37-.78-2.04-1.19-.27-.16-.55-.33-.82-.5-.87-.54-1.73-1.09-2.57-1.66-.03-.02-.06-.04-.09-.06-.87-.59-1.72-1.2-2.56-1.82-.25-.18-.49-.37-.73-.56-.61-.47-1.21-.94-1.81-1.42-.24-.2-.49-.39-.73-.59-.74-.62-1.47-1.24-2.18-1.88-.05-.05-.11-.09-.16-.14-.76-.69-1.5-1.39-2.22-2.11-.21-.21-.42-.42-.63-.63-.53-.53-1.05-1.07-1.56-1.62-.21-.23-.42-.45-.63-.68-.62-.68-1.22-1.37-1.81-2.06-.06-.07-.13-.14-.19-.22-.64-.77-1.26-1.55-1.87-2.34-.17-.23-.34-.46-.52-.69-.44-.59-.87-1.19-1.3-1.79-.17-.25-.35-.5-.52-.75-.49-.72-.97-1.46-1.44-2.2-.06-.1-.13-.2-.19-.3-.52-.84-1.01-1.68-1.5-2.53-.14-.24-.27-.49-.41-.74-.35-.64-.69-1.28-1.02-1.92-.14-.27-.28-.54-.41-.81-.37-.76-.73-1.52-1.08-2.29-.05-.12-.11-.24-.17-.36-.39-.89-.76-1.78-1.11-2.68-.1-.25-.19-.51-.29-.76-.25-.67-.5-1.35-.73-2.03-.1-.28-.19-.57-.29-.85-.25-.78-.49-1.56-.72-2.34-.04-.15-.09-.29-.13-.44-.26-.92-.49-1.85-.71-2.78-.06-.26-.11-.52-.17-.77-.15-.7-.3-1.4-.43-2.11-.05-.29-.11-.59-.16-.88-.13-.79-.25-1.58-.36-2.37-.02-.16-.05-.33-.07-.49-.12-.95-.21-1.89-.29-2.84-.02-.26-.03-.51-.05-.77-.05-.71-.08-1.43-.11-2.15,0-.3-.02-.6-.02-.9-.01-.78-.01-1.57,0-2.35,0-.18,0-.36,0-.54,0-.29.03-.58.05-.88.04-.87.09-1.75.16-2.62.04-.42.09-.83.13-1.25.08-.74.17-1.48.27-2.22.06-.45.14-.9.21-1.35.12-.71.25-1.42.4-2.13.09-.45.19-.9.29-1.35.16-.72.35-1.44.54-2.16.12-.46.24-.92.37-1.38.1-.34.21-.67.31-1,.2-.63.41-1.27.63-1.9.12-.34.24-.69.37-1.03.24-.65.5-1.3.76-1.95.12-.3.24-.6.37-.89.4-.93.82-1.86,1.27-2.79l-3.95,8.05c-.45.92-.87,1.85-1.27,2.79-.13.3-.24.6-.37.89-.27.65-.52,1.29-.76,1.95-.13.34-.25.69-.37,1.03-.22.63-.43,1.26-.63,1.89-.1.33-.21.67-.31,1-.05.16-.11.33-.15.49-.08.29-.14.59-.22.88-.19.72-.38,1.44-.54,2.16-.1.45-.2.9-.29,1.35-.14.71-.28,1.42-.4,2.13-.08.45-.15.9-.21,1.35-.11.74-.19,1.48-.27,2.22-.04.42-.1.83-.13,1.25-.07.87-.12,1.74-.16,2.62-.01.24-.04.48-.04.73,0,.05,0,.1,0,.15,0,.18,0,.36,0,.54-.02.78-.02,1.57,0,2.35,0,.3.01.6.02.9.02.72.06,1.43.11,2.15.02.26.03.51.05.77.08.95.17,1.9.29,2.84.02.16.05.33.07.49.11.79.22,1.58.36,2.37.05.29.1.59.16.88.13.7.27,1.4.43,2.1.06.26.11.52.17.77.22.93.45,1.86.71,2.78.04.15.09.29.13.43.22.79.46,1.57.72,2.35.09.29.19.57.29.85.23.68.47,1.36.73,2.03.1.25.19.51.29.76.35.9.72,1.8,1.11,2.68.05.12.11.24.17.36.34.77.71,1.53,1.08,2.29.13.27.27.54.41.81.33.65.67,1.29,1.02,1.93.13.24.27.49.4.73.48.85.98,1.7,1.5,2.53.06.1.13.2.19.3.46.74.94,1.47,1.44,2.2.17.25.35.5.52.75.42.6.85,1.2,1.3,1.79.17.23.34.46.52.69.61.79,1.23,1.57,1.87,2.34.06.07.13.14.19.22.59.7,1.19,1.38,1.81,2.06.21.23.42.45.63.68.51.55,1.03,1.09,1.56,1.62.21.21.41.42.62.63.73.71,1.46,1.42,2.22,2.11.05.04.1.09.15.13.71.64,1.44,1.27,2.19,1.89.24.2.48.4.73.59.59.48,1.2.96,1.81,1.42.24.19.49.37.73.56.84.62,1.69,1.23,2.56,1.82.03.02.06.04.09.06.84.57,1.7,1.12,2.57,1.66.27.17.55.33.82.5.67.41,1.35.8,2.04,1.19.28.16.55.31.84.47.95.51,1.9,1.02,2.88,1.5,34.66,17.01,75.49,4.85,91.2-27.17l3.95-8.05c-15.71,32.02-56.54,44.18-91.2,27.17Z"/>
          <path class="cls-13" d="M145.71,238.16c-.98-.48-1.93-.98-2.88-1.5-.28-.15-.56-.31-.84-.47-.69-.39-1.37-.78-2.04-1.19-.27-.16-.55-.33-.82-.5-.87-.54-1.73-1.09-2.57-1.66-.03-.02-.06-.04-.09-.06-.87-.59-1.72-1.2-2.56-1.82-.25-.18-.49-.37-.73-.56-.61-.47-1.21-.94-1.81-1.42-.24-.2-.49-.39-.73-.59-.74-.62-1.47-1.24-2.18-1.88-.05-.05-.11-.09-.16-.14-.76-.69-1.5-1.39-2.22-2.11-.21-.21-.42-.42-.63-.63-.53-.53-1.05-1.07-1.56-1.62-.21-.23-.42-.45-.63-.68-.62-.68-1.22-1.37-1.81-2.06-.06-.07-.13-.14-.19-.22-.64-.77-1.26-1.55-1.87-2.34-.17-.23-.34-.46-.52-.69-.44-.59-.87-1.19-1.3-1.79-.17-.25-.35-.5-.52-.75-.49-.72-.97-1.46-1.44-2.2-.06-.1-.13-.2-.19-.3-.52-.84-1.01-1.68-1.5-2.53-.14-.24-.27-.49-.41-.74-.35-.64-.69-1.28-1.02-1.92-.14-.27-.28-.54-.41-.81-.37-.76-.73-1.52-1.08-2.29-.05-.12-.11-.24-.17-.36-.39-.89-.76-1.78-1.11-2.68-.1-.25-.19-.51-.29-.76-.25-.67-.5-1.35-.73-2.03-.1-.28-.19-.57-.29-.85-.25-.78-.49-1.56-.72-2.34-.04-.15-.09-.29-.13-.44-.26-.92-.49-1.85-.71-2.78-.06-.26-.11-.52-.17-.77-.15-.7-.3-1.4-.43-2.11-.05-.29-.11-.59-.16-.88-.13-.79-.25-1.58-.36-2.37-.02-.16-.05-.33-.07-.49-.12-.95-.21-1.89-.29-2.84-.02-.26-.03-.51-.05-.77-.05-.71-.08-1.43-.11-2.15,0-.3-.02-.6-.02-.9-.01-.78-.01-1.57,0-2.35,0-.18,0-.36,0-.54,0-.29.03-.58.05-.88.04-.87.09-1.75.16-2.62.04-.42.09-.83.13-1.25.08-.74.17-1.48.27-2.22.06-.45.14-.9.21-1.35.12-.71.25-1.42.4-2.13.09-.45.19-.9.29-1.35.16-.72.35-1.44.54-2.16.12-.46.24-.92.37-1.38.1-.34.21-.67.31-1,.2-.63.41-1.27.63-1.9.12-.34.24-.69.37-1.03.24-.65.5-1.3.76-1.95.12-.3.24-.6.37-.89.4-.93.82-1.86,1.27-2.79l-3.95,8.05c-.45.92-.87,1.85-1.27,2.79-.13.3-.24.6-.37.89-.27.65-.52,1.29-.76,1.95-.13.34-.25.69-.37,1.03-.22.63-.43,1.26-.63,1.89-.1.33-.21.67-.31,1-.05.16-.11.33-.15.49-.08.29-.14.59-.22.88-.19.72-.38,1.44-.54,2.16-.1.45-.2.9-.29,1.35-.14.71-.28,1.42-.4,2.13-.08.45-.15.9-.21,1.35-.11.74-.19,1.48-.27,2.22-.04.42-.1.83-.13,1.25-.07.87-.12,1.74-.16,2.62-.01.24-.04.48-.04.73,0,.05,0,.1,0,.15,0,.18,0,.36,0,.54-.02.78-.02,1.57,0,2.35,0,.3.01.6.02.9.02.72.06,1.43.11,2.15.02.26.03.51.05.77.08.95.17,1.9.29,2.84.02.16.05.33.07.49.11.79.22,1.58.36,2.37.05.29.1.59.16.88.13.7.27,1.4.43,2.1.06.26.11.52.17.77.22.93.45,1.86.71,2.78.04.15.09.29.13.43.22.79.46,1.57.72,2.35.09.29.19.57.29.85.23.68.48,1.36.73,2.03.1.25.19.51.29.76.35.9.72,1.8,1.11,2.68.05.12.11.24.17.36.34.77.71,1.53,1.08,2.29.13.27.27.54.41.81.33.65.67,1.29,1.02,1.93.13.24.27.49.4.73.48.85.98,1.7,1.5,2.53.06.1.13.2.19.3.46.74.94,1.47,1.44,2.2.17.25.35.5.52.75.42.6.85,1.2,1.3,1.79.17.23.34.46.52.69.61.79,1.23,1.57,1.87,2.34.06.07.13.14.19.22.59.7,1.19,1.38,1.81,2.06.21.23.42.45.63.68.51.55,1.03,1.09,1.56,1.62.21.21.41.42.62.63.73.71,1.46,1.42,2.22,2.11.05.04.1.09.15.13.71.64,1.44,1.27,2.19,1.89.24.2.48.4.73.59.59.48,1.2.96,1.81,1.42.24.19.49.37.73.56.84.62,1.69,1.23,2.56,1.82.03.02.06.04.09.06.84.57,1.7,1.12,2.57,1.66.27.17.55.33.82.5.67.41,1.35.8,2.04,1.19.28.16.55.31.84.47.95.51,1.9,1.02,2.88,1.5,34.66,17.01,75.49,4.85,91.2-27.17l3.95-8.05c-15.71,32.02-56.54,44.18-91.2,27.17Z"/>
        </g>
        <path class="cls-9" d="M131.25,123.35l-.55-.84c2.46-1.61,5.05-3.09,7.73-4.37l.44.9c-2.63,1.27-5.19,2.72-7.61,4.31ZM146.36,115.96l-.33-.95c11.64-4.01,24.44-4.96,37.04-2.76l-.17.99c-12.43-2.17-25.07-1.23-36.54,2.72Z"/>
        <path class="cls-1" d="M111.41,149.4c15.71-32.01,56.53-44.16,91.19-27.15,34.66,17.01,50.02,56.74,34.31,88.75-15.71,32.02-56.54,44.18-91.2,27.17-34.66-17.01-50.02-56.75-34.31-88.76ZM222.57,203.95c12.11-24.69.27-55.35-26.46-68.47s-58.24-3.73-70.36,20.95c-12.12,24.7-.26,55.35,26.47,68.47,26.73,13.12,58.22,3.75,70.35-20.96"/>
        <path class="cls-1" d="M295.96,233.69l-4.96,10.11c-.96,1.95-3.34,2.73-5.27,1.72l-64.3-33.87,6.54-13.32,66.13,30.14c1.98.9,2.82,3.26,1.87,5.22Z"/>
        <path class="cls-14" d="M203.64,130.29c-14.1.92-21.39-.99-28.59-1.53l-54.49,40.78c-1.09,7-.61,14.14,8.42,16.62l74.66-55.87Z"/>
      </g>
      <path class="cls-7" d="M277.15,214.99c-4.06-1.46-6.85,1.24-9.66,2.64-.48.24-.34,1.65.62,1.8,1.68.25,2.5-.03,3.42-.59.99.92,4.58,2.45,7.2-.31.04-1.98-1.58-3.55-1.58-3.55Z"/>
      <path class="cls-12" d="M330.8,120.21h-2.32c-.08,0-.16-.04-.21-.1-.05-.06-.07-.15-.05-.23l1.16-5.35c.03-.13.14-.22.27-.22h0c.13,0,.24.09.27.22l1.16,5.35c.02.08,0,.17-.05.23-.05.06-.13.1-.21.1ZM328.82,119.66h1.64l-.82-3.78-.82,3.78Z"/>
    </g>
  </g>
</svg>